;PTH Drill file created by EasyEDA 
M48
INCH,LZ,00.0000
;Holesize 1 = 0.012 INCH
T01C0.012
;Holesize 2 = 0.028 INCH
T02C0.028
;Holesize 3 = 0.035 INCH
T03C0.035
;Holesize 4 = 0.036 INCH
T04C0.036
;Holesize 5 = 0.110 INCH
T05C0.110
%
G05
G90
T01
X+009000Y+013600
X+013000Y+013600
X+019400Y+013600
X+025400Y+013600
X+032400Y+013600
X+029400Y+013600
X+022800Y+013600
X+016600Y+013600
X+014600Y+018000
X+010600Y+018000
X+018200Y+012400
X+024400Y+012400
X+021000Y+018000
X+027000Y+018000
X+034200Y+018000
X+006350Y+018000
X+013800Y+015809
X+005600Y+015800
X+005350Y+015250
X+009800Y+015250
X+008000Y+018800
X+005400Y+018800
X+014300Y+018800
X+010200Y+018800
X+015300Y+019150
X+009600Y+019150
X+012250Y+016250
X+017400Y+018000
X+023400Y+018000
X+030000Y+018000
X+016350Y+018550
X+013800Y+018550
X+015900Y+019100
X+017750Y+019100
X+015900Y+016300
X+015400Y+015950
X+017000Y+016000
X+018600Y+016200
X+020200Y+018800
X+028800Y+018400
X+028300Y+018400
X+010200Y+016200
X+008200Y+016200
X+026700Y+016250
X+024450Y+016250
X+022000Y+011400
X+021000Y+011400
X+020600Y+012400
X+018600Y+016680
X+017650Y+016700
X+015800Y+011280
X+014200Y+011300
X+031600Y+009200
X+034000Y+009200
X+031600Y+015809
X+029350Y+015850
X+028600Y+011280
X+027400Y+011000
X+027200Y+012400
X+002394Y+003000
X+002709Y+003350
X+003025Y+003800
X+003340Y+004200
X+003655Y+004600
X+004100Y+004950
X+004284Y+002750
X+007400Y+005650
X+007150Y+005350
X+006900Y+005050
X+006650Y+004750
X+006350Y+004450
X+006050Y+004100
X+005750Y+003800
X+001000Y+008200
X+022700Y+014000
X+007410Y+013600
X+005200Y+013200
X+003150Y+014000
X+003650Y+014250
X+021850Y+014300
X+021550Y+015000
X+004150Y+014950
X+020300Y+019200
X+021300Y+015550
X+004650Y+015500
X+003000Y+001200
X+002700Y+000900
X+002400Y+000550
T02
X+003400Y+021200
X+003400Y+021790
T03
X+011800Y+020000
X+011800Y+021000
X+012800Y+020000
X+012800Y+021000
X+013800Y+020000
X+013800Y+021000
X+014800Y+020000
X+014800Y+021000
X+015800Y+020000
X+015800Y+021000
X+016800Y+020000
X+016800Y+021000
X+017800Y+020000
X+017800Y+021000
X+018800Y+020000
X+018800Y+021000
X+019800Y+020000
X+019800Y+021000
X+020800Y+020000
X+020800Y+021000
X+021800Y+020000
X+021800Y+021000
X+022800Y+020000
X+022800Y+021000
X+023800Y+020000
X+023800Y+021000
X+024800Y+020000
X+024800Y+021000
X+025800Y+020000
X+025800Y+021000
X+026800Y+020000
X+026800Y+021000
X+027800Y+020000
X+027800Y+021000
X+028800Y+020000
X+028800Y+021000
X+029800Y+020000
X+029800Y+021000
X+030800Y+020000
X+030800Y+021000
X+001800Y+012400
X+001800Y+011400
X+001800Y+010400
X+001800Y+009400
X+001800Y+014800
X+001800Y+015800
X+001800Y+016800
X+001800Y+017800
X+001800Y+018800
X+001800Y+019800
X+001800Y+020800
X+001800Y+021800
X+013000Y+001000
X+014000Y+001000
X+015000Y+001000
X+016000Y+001000
X+017000Y+001000
X+018000Y+001000
X+019000Y+001000
X+020000Y+001000
X+021000Y+001000
X+022000Y+001000
X+024400Y+005000
X+025400Y+005000
X+026400Y+005000
X+027400Y+005000
X+028400Y+005000
X+029400Y+005000
X+030400Y+005000
X+031400Y+005000
X+013000Y+005000
X+014000Y+005000
X+015000Y+005000
X+016000Y+005000
X+017000Y+005000
X+018000Y+005000
X+019000Y+005000
X+020000Y+005000
T04
X+005400Y+010600
T05
X+009800Y+020500
X+032800Y+020500
X+009800Y+001250
X+032800Y+001250
M30
