G04 ---------------------------- Layer name :TOP SILK LAYER*
G04 EasyEDA v5.8.20, Fri, 09 Nov 2018 02:12:10 GMT*
G04 afbeeaa0033d4c789317b0f66a149b2b*
G04 Gerber Generator version 0.2*
G04 Scale: 100 percent, Rotated: No, Reflected: No *
G04 Dimensions in inches *
G04 leading zeros omitted , absolute positions ,2 integer and 4 decimal *
%FSLAX24Y24*%
%MOIN*%
G90*
G70D02*

%ADD10C,0.010000*%
%ADD31C,0.008000*%
%ADD32C,0.007874*%
%ADD33C,0.007870*%
%ADD34C,0.009000*%
%ADD35C,0.013000*%
%ADD36C,0.005000*%
%ADD37C,0.004000*%
%ADD38C,0.007992*%
%ADD39C,0.009842*%
%ADD40C,0.007000*%

%LPD*%
G54D31*
G01X11300Y21500D02*
G01X11300Y19500D01*
G01X31300Y19500D01*
G01X31300Y21500D01*
G01X11300Y21500D01*
G54D32*
G01X8656Y16328D02*
G01X8656Y16090D01*
G01X9443Y16090D01*
G01X9443Y16409D01*
G01X8656Y16409D01*
G01X8656Y16328D01*
G54D33*
G01X7381Y18407D02*
G01X6861Y18407D01*
G01X6861Y17592D01*
G01X7381Y17592D01*
G01X7827Y18407D02*
G01X8347Y18407D01*
G01X8347Y17592D01*
G01X7827Y17592D01*
G01X9181Y18407D02*
G01X8661Y18407D01*
G01X8661Y17592D01*
G01X9181Y17592D01*
G01X9627Y18407D02*
G01X10147Y18407D01*
G01X10147Y17592D01*
G01X9627Y17592D01*
G01X8818Y13992D02*
G01X9338Y13992D01*
G01X9338Y14807D01*
G01X8818Y14807D01*
G01X8372Y13992D02*
G01X7852Y13992D01*
G01X7852Y14807D01*
G01X8372Y14807D01*
G01X10418Y13992D02*
G01X10938Y13992D01*
G01X10938Y14807D01*
G01X10418Y14807D01*
G01X9972Y13992D02*
G01X9452Y13992D01*
G01X9452Y14807D01*
G01X9972Y14807D01*
G54D32*
G01X12656Y16328D02*
G01X12656Y16090D01*
G01X13443Y16090D01*
G01X13443Y16409D01*
G01X12656Y16409D01*
G01X12656Y16328D01*
G54D33*
G01X11581Y18407D02*
G01X11061Y18407D01*
G01X11061Y17592D01*
G01X11581Y17592D01*
G01X12027Y18407D02*
G01X12547Y18407D01*
G01X12547Y17592D01*
G01X12027Y17592D01*
G01X13181Y18407D02*
G01X12661Y18407D01*
G01X12661Y17592D01*
G01X13181Y17592D01*
G01X13627Y18407D02*
G01X14147Y18407D01*
G01X14147Y17592D01*
G01X13627Y17592D01*
G01X12818Y13992D02*
G01X13338Y13992D01*
G01X13338Y14807D01*
G01X12818Y14807D01*
G01X12372Y13992D02*
G01X11852Y13992D01*
G01X11852Y14807D01*
G01X12372Y14807D01*
G01X14418Y13992D02*
G01X14938Y13992D01*
G01X14938Y14807D01*
G01X14418Y14807D01*
G01X13972Y13992D02*
G01X13452Y13992D01*
G01X13452Y14807D01*
G01X13972Y14807D01*
G01X32581Y18407D02*
G01X32061Y18407D01*
G01X32061Y17592D01*
G01X32581Y17592D01*
G01X33027Y18407D02*
G01X33547Y18407D01*
G01X33547Y17592D01*
G01X33027Y17592D01*
G01X32218Y13992D02*
G01X32738Y13992D01*
G01X32738Y14807D01*
G01X32218Y14807D01*
G01X31772Y13992D02*
G01X31252Y13992D01*
G01X31252Y14807D01*
G01X31772Y14807D01*
G01X25581Y18407D02*
G01X25061Y18407D01*
G01X25061Y17592D01*
G01X25581Y17592D01*
G01X26027Y18407D02*
G01X26547Y18407D01*
G01X26547Y17592D01*
G01X26027Y17592D01*
G01X25218Y13992D02*
G01X25738Y13992D01*
G01X25738Y14807D01*
G01X25218Y14807D01*
G01X24772Y13992D02*
G01X24252Y13992D01*
G01X24252Y14807D01*
G01X24772Y14807D01*
G01X22981Y12807D02*
G01X22461Y12807D01*
G01X22461Y11992D01*
G01X22981Y11992D01*
G01X23427Y12807D02*
G01X23947Y12807D01*
G01X23947Y11992D01*
G01X23427Y11992D01*
G01X22618Y8792D02*
G01X23138Y8792D01*
G01X23138Y9607D01*
G01X22618Y9607D01*
G01X22172Y8792D02*
G01X21652Y8792D01*
G01X21652Y9607D01*
G01X22172Y9607D01*
G01X16781Y12807D02*
G01X16261Y12807D01*
G01X16261Y11992D01*
G01X16781Y11992D01*
G01X17227Y12807D02*
G01X17747Y12807D01*
G01X17747Y11992D01*
G01X17227Y11992D01*
G01X16418Y8792D02*
G01X16938Y8792D01*
G01X16938Y9607D01*
G01X16418Y9607D01*
G01X15972Y8792D02*
G01X15452Y8792D01*
G01X15452Y9607D01*
G01X15972Y9607D01*
G01X19581Y18407D02*
G01X19061Y18407D01*
G01X19061Y17592D01*
G01X19581Y17592D01*
G01X20027Y18407D02*
G01X20547Y18407D01*
G01X20547Y17592D01*
G01X20027Y17592D01*
G01X19218Y13992D02*
G01X19738Y13992D01*
G01X19738Y14807D01*
G01X19218Y14807D01*
G01X18772Y13992D02*
G01X18252Y13992D01*
G01X18252Y14807D01*
G01X18772Y14807D01*
G01X29581Y12807D02*
G01X29061Y12807D01*
G01X29061Y11992D01*
G01X29581Y11992D01*
G01X30027Y12807D02*
G01X30547Y12807D01*
G01X30547Y11992D01*
G01X30027Y11992D01*
G01X29218Y8792D02*
G01X29738Y8792D01*
G01X29738Y9607D01*
G01X29218Y9607D01*
G01X28772Y8792D02*
G01X28252Y8792D01*
G01X28252Y9607D01*
G01X28772Y9607D01*
G54D32*
G01X32056Y16328D02*
G01X32056Y16090D01*
G01X32843Y16090D01*
G01X32843Y16409D01*
G01X32056Y16409D01*
G01X32056Y16328D01*
G54D33*
G01X30981Y18407D02*
G01X30461Y18407D01*
G01X30461Y17592D01*
G01X30981Y17592D01*
G01X31427Y18407D02*
G01X31947Y18407D01*
G01X31947Y17592D01*
G01X31427Y17592D01*
G01X33818Y13992D02*
G01X34338Y13992D01*
G01X34338Y14807D01*
G01X33818Y14807D01*
G01X33372Y13992D02*
G01X32852Y13992D01*
G01X32852Y14807D01*
G01X33372Y14807D01*
G54D32*
G01X25056Y16328D02*
G01X25056Y16090D01*
G01X25843Y16090D01*
G01X25843Y16409D01*
G01X25056Y16409D01*
G01X25056Y16328D01*
G54D33*
G01X23981Y18407D02*
G01X23461Y18407D01*
G01X23461Y17592D01*
G01X23981Y17592D01*
G01X24427Y18407D02*
G01X24947Y18407D01*
G01X24947Y17592D01*
G01X24427Y17592D01*
G01X26818Y13992D02*
G01X27338Y13992D01*
G01X27338Y14807D01*
G01X26818Y14807D01*
G01X26372Y13992D02*
G01X25852Y13992D01*
G01X25852Y14807D01*
G01X26372Y14807D01*
G54D32*
G01X22456Y10928D02*
G01X22456Y10690D01*
G01X23243Y10690D01*
G01X23243Y11009D01*
G01X22456Y11009D01*
G01X22456Y10928D01*
G54D33*
G01X21381Y12807D02*
G01X20861Y12807D01*
G01X20861Y11992D01*
G01X21381Y11992D01*
G01X21827Y12807D02*
G01X22347Y12807D01*
G01X22347Y11992D01*
G01X21827Y11992D01*
G01X24218Y8792D02*
G01X24738Y8792D01*
G01X24738Y9607D01*
G01X24218Y9607D01*
G01X23772Y8792D02*
G01X23252Y8792D01*
G01X23252Y9607D01*
G01X23772Y9607D01*
G54D32*
G01X16256Y10928D02*
G01X16256Y10690D01*
G01X17043Y10690D01*
G01X17043Y11009D01*
G01X16256Y11009D01*
G01X16256Y10928D01*
G54D33*
G01X15181Y12807D02*
G01X14661Y12807D01*
G01X14661Y11992D01*
G01X15181Y11992D01*
G01X15627Y12807D02*
G01X16147Y12807D01*
G01X16147Y11992D01*
G01X15627Y11992D01*
G01X18018Y8792D02*
G01X18538Y8792D01*
G01X18538Y9607D01*
G01X18018Y9607D01*
G01X17572Y8792D02*
G01X17052Y8792D01*
G01X17052Y9607D01*
G01X17572Y9607D01*
G54D32*
G01X19056Y16328D02*
G01X19056Y16090D01*
G01X19843Y16090D01*
G01X19843Y16409D01*
G01X19056Y16409D01*
G01X19056Y16328D01*
G54D33*
G01X17981Y18407D02*
G01X17461Y18407D01*
G01X17461Y17592D01*
G01X17981Y17592D01*
G01X18427Y18407D02*
G01X18947Y18407D01*
G01X18947Y17592D01*
G01X18427Y17592D01*
G01X20818Y13992D02*
G01X21338Y13992D01*
G01X21338Y14807D01*
G01X20818Y14807D01*
G01X20372Y13992D02*
G01X19852Y13992D01*
G01X19852Y14807D01*
G01X20372Y14807D01*
G54D32*
G01X29056Y10928D02*
G01X29056Y10690D01*
G01X29843Y10690D01*
G01X29843Y11009D01*
G01X29056Y11009D01*
G01X29056Y10928D01*
G54D33*
G01X27981Y12807D02*
G01X27461Y12807D01*
G01X27461Y11992D01*
G01X27981Y11992D01*
G01X28427Y12807D02*
G01X28947Y12807D01*
G01X28947Y11992D01*
G01X28427Y11992D01*
G01X30818Y8792D02*
G01X31338Y8792D01*
G01X31338Y9607D01*
G01X30818Y9607D01*
G01X30372Y8792D02*
G01X29852Y8792D01*
G01X29852Y9607D01*
G01X30372Y9607D01*
G54D10*
G01X6901Y13219D02*
G01X7256Y13219D01*
G01X7256Y12196D01*
G01X5444Y12196D02*
G01X5444Y13219D01*
G01X5798Y13219D01*
G54D34*
G01X4609Y16984D02*
G01X4609Y16688D01*
G01X5594Y16688D01*
G01X5790Y16688D01*
G01X5790Y17713D01*
G01X4609Y17713D01*
G01X4609Y16984D01*
G54D10*
G01X3300Y16900D02*
G01X3300Y16200D01*
G01X4300Y16200D01*
G01X4300Y16900D01*
G01X4300Y17500D02*
G01X4300Y18200D01*
G01X3300Y18200D01*
G01X3300Y17500D01*
G01X8419Y10369D02*
G01X8419Y11390D01*
G01X9200Y11390D01*
G01X9200Y10369D01*
G54D35*
G01X9180Y11190D02*
G01X8439Y11190D01*
G54D10*
G01X9200Y9730D02*
G01X9200Y8926D01*
G01X8411Y8926D01*
G01X8411Y9730D01*
G01X5019Y21569D02*
G01X5019Y22590D01*
G01X5800Y22590D01*
G01X5800Y21569D01*
G54D35*
G01X5780Y22390D02*
G01X5040Y22390D01*
G54D10*
G01X5800Y20930D02*
G01X5800Y20126D01*
G01X5011Y20126D01*
G01X5011Y20930D01*
G01X7019Y10369D02*
G01X7019Y11390D01*
G01X7800Y11390D01*
G01X7800Y10369D01*
G54D35*
G01X7780Y11190D02*
G01X7039Y11190D01*
G54D10*
G01X7800Y9730D02*
G01X7800Y8926D01*
G01X7011Y8926D01*
G01X7011Y9730D01*
G01X3230Y22596D02*
G01X3540Y22596D01*
G01X3380Y22436D02*
G01X3380Y22765D01*
G01X10900Y13200D02*
G01X11100Y12800D01*
G01X10900Y12400D01*
G01X10900Y13200D01*
G54D33*
G01X11218Y12392D02*
G01X11738Y12392D01*
G01X11738Y13207D01*
G01X11218Y13207D01*
G01X10772Y12392D02*
G01X10252Y12392D01*
G01X10252Y13207D01*
G01X10772Y13207D01*
G01X12818Y12392D02*
G01X13338Y12392D01*
G01X13338Y13207D01*
G01X12818Y13207D01*
G01X12372Y12392D02*
G01X11852Y12392D01*
G01X11852Y13207D01*
G01X12372Y13207D01*
G54D10*
G01X12000Y8500D02*
G01X12400Y8700D01*
G01X12800Y8500D01*
G01X12000Y8500D01*
G54D33*
G01X12807Y8819D02*
G01X12807Y9338D01*
G01X11993Y9338D01*
G01X11993Y8819D01*
G01X12807Y8373D02*
G01X12807Y7853D01*
G01X11993Y7853D01*
G01X11993Y8373D01*
G01X12807Y10619D02*
G01X12807Y11138D01*
G01X11993Y11138D01*
G01X11993Y10619D01*
G01X12807Y10173D02*
G01X12807Y9653D01*
G01X11993Y9653D01*
G01X11993Y10173D01*
G54D36*
G01X1430Y6009D02*
G01X5369Y6009D01*
G54D10*
G01X1430Y7386D02*
G01X5369Y7386D01*
G01X5369Y7386D02*
G01X5369Y5813D01*
G01X5369Y5813D02*
G01X1430Y5813D01*
G01X1430Y5813D02*
G01X1430Y7386D01*
G54D37*
G01X8443Y6157D02*
G01X8443Y3638D01*
G01X8048Y3638D01*
G01X8048Y6157D01*
G01X8443Y6157D01*
G54D10*
G01X219Y6569D02*
G01X219Y7590D01*
G01X1000Y7590D01*
G01X1000Y6569D01*
G54D35*
G01X980Y7390D02*
G01X240Y7390D01*
G54D10*
G01X1000Y5930D02*
G01X1000Y5126D01*
G01X211Y5126D01*
G01X211Y5930D01*
G54D31*
G01X2300Y8900D02*
G01X1300Y8900D01*
G01X1300Y12900D01*
G01X2300Y12900D01*
G01X2300Y12150D01*
G54D38*
G01X2300Y8900D02*
G01X2300Y12150D01*
G54D31*
G01X1300Y22300D02*
G01X2300Y22300D01*
G01X2300Y14300D01*
G01X1300Y14300D01*
G01X1300Y15050D01*
G54D38*
G01X1300Y22300D02*
G01X1300Y15050D01*
G54D31*
G01X21750Y500D02*
G01X22500Y500D01*
G01X22500Y1500D01*
G01X12500Y1500D01*
G01X12500Y500D01*
G54D38*
G01X12500Y500D02*
G01X21750Y500D01*
G54D31*
G01X31900Y5500D02*
G01X31900Y4500D01*
G01X23900Y4500D01*
G01X23900Y5500D01*
G01X24650Y5500D01*
G54D38*
G01X31900Y5500D02*
G01X24650Y5500D01*
G54D31*
G01X20500Y5500D02*
G01X20500Y4500D01*
G01X12500Y4500D01*
G01X12500Y5500D01*
G01X13250Y5500D01*
G54D38*
G01X20500Y5500D02*
G01X13250Y5500D01*
G54D33*
G01X25807Y6817D02*
G01X25807Y7338D01*
G01X24993Y7338D01*
G01X24993Y6817D01*
G01X25807Y6373D02*
G01X25807Y5853D01*
G01X24993Y5853D01*
G01X24993Y6373D01*
G01X26807Y6817D02*
G01X26807Y7338D01*
G01X25993Y7338D01*
G01X25993Y6817D01*
G01X26807Y6373D02*
G01X26807Y5853D01*
G01X25993Y5853D01*
G01X25993Y6373D01*
G01X27807Y6817D02*
G01X27807Y7338D01*
G01X26993Y7338D01*
G01X26993Y6817D01*
G01X27807Y6373D02*
G01X27807Y5853D01*
G01X26993Y5853D01*
G01X26993Y6373D01*
G01X28807Y6817D02*
G01X28807Y7338D01*
G01X27993Y7338D01*
G01X27993Y6817D01*
G01X28807Y6373D02*
G01X28807Y5853D01*
G01X27993Y5853D01*
G01X27993Y6373D01*
G01X29807Y6817D02*
G01X29807Y7338D01*
G01X28993Y7338D01*
G01X28993Y6817D01*
G01X29807Y6373D02*
G01X29807Y5853D01*
G01X28993Y5853D01*
G01X28993Y6373D01*
G01X30807Y6817D02*
G01X30807Y7338D01*
G01X29993Y7338D01*
G01X29993Y6817D01*
G01X30807Y6373D02*
G01X30807Y5853D01*
G01X29993Y5853D01*
G01X29993Y6373D01*
G01X14407Y6617D02*
G01X14407Y7138D01*
G01X13593Y7138D01*
G01X13593Y6617D01*
G01X14407Y6173D02*
G01X14407Y5653D01*
G01X13593Y5653D01*
G01X13593Y6173D01*
G01X15407Y6617D02*
G01X15407Y7138D01*
G01X14593Y7138D01*
G01X14593Y6617D01*
G01X15407Y6173D02*
G01X15407Y5653D01*
G01X14593Y5653D01*
G01X14593Y6173D01*
G01X16407Y6617D02*
G01X16407Y7138D01*
G01X15593Y7138D01*
G01X15593Y6617D01*
G01X16407Y6173D02*
G01X16407Y5653D01*
G01X15593Y5653D01*
G01X15593Y6173D01*
G01X17407Y6617D02*
G01X17407Y7138D01*
G01X16593Y7138D01*
G01X16593Y6617D01*
G01X17407Y6173D02*
G01X17407Y5653D01*
G01X16593Y5653D01*
G01X16593Y6173D01*
G01X18407Y6617D02*
G01X18407Y7138D01*
G01X17593Y7138D01*
G01X17593Y6617D01*
G01X18407Y6173D02*
G01X18407Y5653D01*
G01X17593Y5653D01*
G01X17593Y6173D01*
G01X19407Y6617D02*
G01X19407Y7138D01*
G01X18593Y7138D01*
G01X18593Y6617D01*
G01X19407Y6173D02*
G01X19407Y5653D01*
G01X18593Y5653D01*
G01X18593Y6173D01*
G54D37*
G01X4757Y1757D02*
G01X2238Y1757D01*
G01X2238Y2151D01*
G01X4757Y2151D01*
G01X4757Y1757D01*
G54D33*
G01X4418Y18592D02*
G01X4938Y18592D01*
G01X4938Y19407D01*
G01X4418Y19407D01*
G01X3972Y18592D02*
G01X3453Y18592D01*
G01X3453Y19407D01*
G01X3972Y19407D01*
G01X3725Y14949D02*
G01X4092Y15316D01*
G01X3516Y15892D01*
G01X3149Y15525D01*
G01X3410Y14634D02*
G01X3042Y14266D01*
G01X2466Y14842D01*
G01X2834Y15210D01*
G54D40*
G01X21300Y22244D02*
G01X21300Y21815D01*
G01X21300Y22244D02*
G01X21484Y22244D01*
G01X21544Y22225D01*
G01X21565Y22205D01*
G01X21585Y22163D01*
G01X21585Y22102D01*
G01X21565Y22061D01*
G01X21544Y22040D01*
G01X21484Y22019D01*
G01X21300Y22019D01*
G01X21721Y22163D02*
G01X21761Y22184D01*
G01X21823Y22244D01*
G01X21823Y21815D01*
G01X7722Y16400D02*
G01X7681Y16380D01*
G01X7640Y16338D01*
G01X7619Y16298D01*
G01X7600Y16236D01*
G01X7600Y16134D01*
G01X7619Y16073D01*
G01X7640Y16032D01*
G01X7681Y15990D01*
G01X7722Y15971D01*
G01X7805Y15971D01*
G01X7844Y15990D01*
G01X7885Y16032D01*
G01X7906Y16073D01*
G01X7927Y16134D01*
G01X7927Y16236D01*
G01X7906Y16298D01*
G01X7885Y16338D01*
G01X7844Y16380D01*
G01X7805Y16400D01*
G01X7722Y16400D01*
G01X7784Y16053D02*
G01X7906Y15930D01*
G01X8061Y16319D02*
G01X8102Y16338D01*
G01X8164Y16400D01*
G01X8164Y15971D01*
G01X6800Y17400D02*
G01X6800Y16971D01*
G01X6800Y17400D02*
G01X6984Y17400D01*
G01X7044Y17380D01*
G01X7065Y17359D01*
G01X7085Y17319D01*
G01X7085Y17278D01*
G01X7065Y17236D01*
G01X7044Y17215D01*
G01X6984Y17196D01*
G01X6800Y17196D01*
G01X6943Y17196D02*
G01X7085Y16971D01*
G01X7221Y17319D02*
G01X7261Y17338D01*
G01X7323Y17400D01*
G01X7323Y16971D01*
G01X9400Y17400D02*
G01X9400Y16971D01*
G01X9400Y17400D02*
G01X9584Y17400D01*
G01X9644Y17380D01*
G01X9665Y17359D01*
G01X9685Y17319D01*
G01X9685Y17278D01*
G01X9665Y17236D01*
G01X9644Y17215D01*
G01X9584Y17196D01*
G01X9400Y17196D01*
G01X9543Y17196D02*
G01X9685Y16971D01*
G01X9842Y17298D02*
G01X9842Y17319D01*
G01X9861Y17359D01*
G01X9882Y17380D01*
G01X9923Y17400D01*
G01X10005Y17400D01*
G01X10046Y17380D01*
G01X10067Y17359D01*
G01X10086Y17319D01*
G01X10086Y17278D01*
G01X10067Y17236D01*
G01X10026Y17175D01*
G01X9821Y16971D01*
G01X10107Y16971D01*
G01X7800Y15400D02*
G01X7800Y14971D01*
G01X7800Y15400D02*
G01X7984Y15400D01*
G01X8044Y15380D01*
G01X8065Y15359D01*
G01X8085Y15319D01*
G01X8085Y15278D01*
G01X8065Y15236D01*
G01X8044Y15215D01*
G01X7984Y15196D01*
G01X7800Y15196D01*
G01X7943Y15196D02*
G01X8085Y14971D01*
G01X8261Y15400D02*
G01X8486Y15400D01*
G01X8364Y15236D01*
G01X8426Y15236D01*
G01X8467Y15215D01*
G01X8486Y15196D01*
G01X8507Y15134D01*
G01X8507Y15094D01*
G01X8486Y15032D01*
G01X8446Y14990D01*
G01X8385Y14971D01*
G01X8323Y14971D01*
G01X8261Y14990D01*
G01X8242Y15011D01*
G01X8221Y15053D01*
G01X10200Y15400D02*
G01X10200Y14971D01*
G01X10200Y15400D02*
G01X10384Y15400D01*
G01X10444Y15380D01*
G01X10465Y15359D01*
G01X10485Y15319D01*
G01X10485Y15278D01*
G01X10465Y15236D01*
G01X10444Y15215D01*
G01X10384Y15196D01*
G01X10200Y15196D01*
G01X10343Y15196D02*
G01X10485Y14971D01*
G01X10826Y15400D02*
G01X10621Y15113D01*
G01X10927Y15113D01*
G01X10826Y15400D02*
G01X10826Y14971D01*
G01X11322Y16400D02*
G01X11281Y16380D01*
G01X11240Y16338D01*
G01X11219Y16298D01*
G01X11200Y16236D01*
G01X11200Y16134D01*
G01X11219Y16073D01*
G01X11240Y16032D01*
G01X11281Y15990D01*
G01X11322Y15971D01*
G01X11405Y15971D01*
G01X11444Y15990D01*
G01X11485Y16032D01*
G01X11506Y16073D01*
G01X11527Y16134D01*
G01X11527Y16236D01*
G01X11506Y16298D01*
G01X11485Y16338D01*
G01X11444Y16380D01*
G01X11405Y16400D01*
G01X11322Y16400D01*
G01X11384Y16053D02*
G01X11506Y15930D01*
G01X11682Y16298D02*
G01X11682Y16319D01*
G01X11702Y16359D01*
G01X11723Y16380D01*
G01X11764Y16400D01*
G01X11846Y16400D01*
G01X11886Y16380D01*
G01X11907Y16359D01*
G01X11927Y16319D01*
G01X11927Y16278D01*
G01X11907Y16236D01*
G01X11867Y16175D01*
G01X11661Y15971D01*
G01X11948Y15971D01*
G01X11000Y17400D02*
G01X11000Y16971D01*
G01X11000Y17400D02*
G01X11184Y17400D01*
G01X11244Y17380D01*
G01X11265Y17359D01*
G01X11285Y17319D01*
G01X11285Y17278D01*
G01X11265Y17236D01*
G01X11244Y17215D01*
G01X11184Y17196D01*
G01X11000Y17196D01*
G01X11143Y17196D02*
G01X11285Y16971D01*
G01X11667Y17338D02*
G01X11646Y17380D01*
G01X11585Y17400D01*
G01X11543Y17400D01*
G01X11482Y17380D01*
G01X11442Y17319D01*
G01X11421Y17215D01*
G01X11421Y17113D01*
G01X11442Y17032D01*
G01X11482Y16990D01*
G01X11543Y16971D01*
G01X11564Y16971D01*
G01X11626Y16990D01*
G01X11667Y17032D01*
G01X11686Y17094D01*
G01X11686Y17113D01*
G01X11667Y17175D01*
G01X11626Y17215D01*
G01X11564Y17236D01*
G01X11543Y17236D01*
G01X11482Y17215D01*
G01X11442Y17175D01*
G01X11421Y17113D01*
G01X13400Y17400D02*
G01X13400Y16971D01*
G01X13400Y17400D02*
G01X13584Y17400D01*
G01X13644Y17380D01*
G01X13665Y17359D01*
G01X13685Y17319D01*
G01X13685Y17278D01*
G01X13665Y17236D01*
G01X13644Y17215D01*
G01X13584Y17196D01*
G01X13400Y17196D01*
G01X13543Y17196D02*
G01X13685Y16971D01*
G01X14107Y17400D02*
G01X13902Y16971D01*
G01X13821Y17400D02*
G01X14107Y17400D01*
G01X11800Y15400D02*
G01X11800Y14971D01*
G01X11800Y15400D02*
G01X11984Y15400D01*
G01X12044Y15380D01*
G01X12065Y15359D01*
G01X12085Y15319D01*
G01X12085Y15278D01*
G01X12065Y15236D01*
G01X12044Y15215D01*
G01X11984Y15196D01*
G01X11800Y15196D01*
G01X11943Y15196D02*
G01X12085Y14971D01*
G01X12323Y15400D02*
G01X12261Y15380D01*
G01X12242Y15338D01*
G01X12242Y15298D01*
G01X12261Y15257D01*
G01X12302Y15236D01*
G01X12385Y15215D01*
G01X12446Y15196D01*
G01X12486Y15155D01*
G01X12507Y15113D01*
G01X12507Y15053D01*
G01X12486Y15011D01*
G01X12467Y14990D01*
G01X12405Y14971D01*
G01X12323Y14971D01*
G01X12261Y14990D01*
G01X12242Y15011D01*
G01X12221Y15053D01*
G01X12221Y15113D01*
G01X12242Y15155D01*
G01X12282Y15196D01*
G01X12343Y15215D01*
G01X12426Y15236D01*
G01X12467Y15257D01*
G01X12486Y15298D01*
G01X12486Y15338D01*
G01X12467Y15380D01*
G01X12405Y15400D01*
G01X12323Y15400D01*
G01X14200Y15400D02*
G01X14200Y14971D01*
G01X14200Y15400D02*
G01X14384Y15400D01*
G01X14444Y15380D01*
G01X14465Y15359D01*
G01X14485Y15319D01*
G01X14485Y15278D01*
G01X14465Y15236D01*
G01X14444Y15215D01*
G01X14384Y15196D01*
G01X14200Y15196D01*
G01X14343Y15196D02*
G01X14485Y14971D01*
G01X14886Y15257D02*
G01X14867Y15196D01*
G01X14826Y15155D01*
G01X14764Y15134D01*
G01X14743Y15134D01*
G01X14682Y15155D01*
G01X14642Y15196D01*
G01X14621Y15257D01*
G01X14621Y15278D01*
G01X14642Y15338D01*
G01X14682Y15380D01*
G01X14743Y15400D01*
G01X14764Y15400D01*
G01X14826Y15380D01*
G01X14867Y15338D01*
G01X14886Y15257D01*
G01X14886Y15155D01*
G01X14867Y15053D01*
G01X14826Y14990D01*
G01X14764Y14971D01*
G01X14723Y14971D01*
G01X14661Y14990D01*
G01X14642Y15032D01*
G01X32800Y17400D02*
G01X32800Y16971D01*
G01X32800Y17400D02*
G01X32984Y17400D01*
G01X33044Y17380D01*
G01X33065Y17359D01*
G01X33085Y17319D01*
G01X33085Y17278D01*
G01X33065Y17236D01*
G01X33044Y17215D01*
G01X32984Y17196D01*
G01X32800Y17196D01*
G01X32943Y17196D02*
G01X33085Y16971D01*
G01X33221Y17319D02*
G01X33261Y17338D01*
G01X33323Y17400D01*
G01X33323Y16971D01*
G01X33459Y17319D02*
G01X33500Y17338D01*
G01X33560Y17400D01*
G01X33560Y16971D01*
G01X31000Y15400D02*
G01X31000Y14971D01*
G01X31000Y15400D02*
G01X31184Y15400D01*
G01X31244Y15380D01*
G01X31265Y15359D01*
G01X31285Y15319D01*
G01X31285Y15278D01*
G01X31265Y15236D01*
G01X31244Y15215D01*
G01X31184Y15196D01*
G01X31000Y15196D01*
G01X31143Y15196D02*
G01X31285Y14971D01*
G01X31421Y15319D02*
G01X31461Y15338D01*
G01X31523Y15400D01*
G01X31523Y14971D01*
G01X31678Y15298D02*
G01X31678Y15319D01*
G01X31700Y15359D01*
G01X31719Y15380D01*
G01X31760Y15400D01*
G01X31843Y15400D01*
G01X31884Y15380D01*
G01X31903Y15359D01*
G01X31925Y15319D01*
G01X31925Y15278D01*
G01X31903Y15236D01*
G01X31863Y15175D01*
G01X31659Y14971D01*
G01X31944Y14971D01*
G01X26400Y17400D02*
G01X26400Y16971D01*
G01X26400Y17400D02*
G01X26584Y17400D01*
G01X26644Y17380D01*
G01X26665Y17359D01*
G01X26685Y17319D01*
G01X26685Y17278D01*
G01X26665Y17236D01*
G01X26644Y17215D01*
G01X26584Y17196D01*
G01X26400Y17196D01*
G01X26543Y17196D02*
G01X26685Y16971D01*
G01X26821Y17319D02*
G01X26861Y17338D01*
G01X26923Y17400D01*
G01X26923Y16971D01*
G01X27303Y17400D02*
G01X27100Y17400D01*
G01X27078Y17215D01*
G01X27100Y17236D01*
G01X27160Y17257D01*
G01X27222Y17257D01*
G01X27284Y17236D01*
G01X27325Y17196D01*
G01X27344Y17134D01*
G01X27344Y17094D01*
G01X27325Y17032D01*
G01X27284Y16990D01*
G01X27222Y16971D01*
G01X27160Y16971D01*
G01X27100Y16990D01*
G01X27078Y17011D01*
G01X27059Y17053D01*
G01X23800Y15600D02*
G01X23800Y15171D01*
G01X23800Y15600D02*
G01X23984Y15600D01*
G01X24044Y15580D01*
G01X24065Y15559D01*
G01X24085Y15519D01*
G01X24085Y15478D01*
G01X24065Y15436D01*
G01X24044Y15415D01*
G01X23984Y15396D01*
G01X23800Y15396D01*
G01X23943Y15396D02*
G01X24085Y15171D01*
G01X24221Y15519D02*
G01X24261Y15538D01*
G01X24323Y15600D01*
G01X24323Y15171D01*
G01X24703Y15538D02*
G01X24684Y15580D01*
G01X24622Y15600D01*
G01X24581Y15600D01*
G01X24519Y15580D01*
G01X24478Y15519D01*
G01X24459Y15415D01*
G01X24459Y15313D01*
G01X24478Y15232D01*
G01X24519Y15190D01*
G01X24581Y15171D01*
G01X24602Y15171D01*
G01X24663Y15190D01*
G01X24703Y15232D01*
G01X24725Y15294D01*
G01X24725Y15313D01*
G01X24703Y15375D01*
G01X24663Y15415D01*
G01X24602Y15436D01*
G01X24581Y15436D01*
G01X24519Y15415D01*
G01X24478Y15375D01*
G01X24459Y15313D01*
G01X23400Y11800D02*
G01X23400Y11371D01*
G01X23400Y11800D02*
G01X23584Y11800D01*
G01X23644Y11780D01*
G01X23665Y11759D01*
G01X23685Y11719D01*
G01X23685Y11678D01*
G01X23665Y11636D01*
G01X23644Y11615D01*
G01X23584Y11596D01*
G01X23400Y11596D01*
G01X23543Y11596D02*
G01X23685Y11371D01*
G01X23821Y11719D02*
G01X23861Y11738D01*
G01X23923Y11800D01*
G01X23923Y11371D01*
G01X24325Y11657D02*
G01X24303Y11596D01*
G01X24263Y11555D01*
G01X24202Y11534D01*
G01X24181Y11534D01*
G01X24119Y11555D01*
G01X24078Y11596D01*
G01X24059Y11657D01*
G01X24059Y11678D01*
G01X24078Y11738D01*
G01X24119Y11780D01*
G01X24181Y11800D01*
G01X24202Y11800D01*
G01X24263Y11780D01*
G01X24303Y11738D01*
G01X24325Y11657D01*
G01X24325Y11555D01*
G01X24303Y11453D01*
G01X24263Y11390D01*
G01X24202Y11371D01*
G01X24160Y11371D01*
G01X24100Y11390D01*
G01X24078Y11432D01*
G01X21000Y10400D02*
G01X21000Y9971D01*
G01X21000Y10400D02*
G01X21184Y10400D01*
G01X21244Y10380D01*
G01X21265Y10359D01*
G01X21285Y10319D01*
G01X21285Y10278D01*
G01X21265Y10236D01*
G01X21244Y10215D01*
G01X21184Y10196D01*
G01X21000Y10196D01*
G01X21143Y10196D02*
G01X21285Y9971D01*
G01X21442Y10298D02*
G01X21442Y10319D01*
G01X21461Y10359D01*
G01X21482Y10380D01*
G01X21523Y10400D01*
G01X21605Y10400D01*
G01X21646Y10380D01*
G01X21667Y10359D01*
G01X21686Y10319D01*
G01X21686Y10278D01*
G01X21667Y10236D01*
G01X21626Y10175D01*
G01X21421Y9971D01*
G01X21707Y9971D01*
G01X21964Y10400D02*
G01X21903Y10380D01*
G01X21863Y10319D01*
G01X21843Y10215D01*
G01X21843Y10155D01*
G01X21863Y10053D01*
G01X21903Y9990D01*
G01X21964Y9971D01*
G01X22006Y9971D01*
G01X22068Y9990D01*
G01X22109Y10053D01*
G01X22128Y10155D01*
G01X22128Y10215D01*
G01X22109Y10319D01*
G01X22068Y10380D01*
G01X22006Y10400D01*
G01X21964Y10400D01*
G01X17400Y11800D02*
G01X17400Y11371D01*
G01X17400Y11800D02*
G01X17584Y11800D01*
G01X17644Y11780D01*
G01X17665Y11759D01*
G01X17685Y11719D01*
G01X17685Y11678D01*
G01X17665Y11636D01*
G01X17644Y11615D01*
G01X17584Y11596D01*
G01X17400Y11596D01*
G01X17543Y11596D02*
G01X17685Y11371D01*
G01X17842Y11698D02*
G01X17842Y11719D01*
G01X17861Y11759D01*
G01X17882Y11780D01*
G01X17923Y11800D01*
G01X18005Y11800D01*
G01X18046Y11780D01*
G01X18067Y11759D01*
G01X18086Y11719D01*
G01X18086Y11678D01*
G01X18067Y11636D01*
G01X18026Y11575D01*
G01X17821Y11371D01*
G01X18107Y11371D01*
G01X18284Y11800D02*
G01X18509Y11800D01*
G01X18385Y11636D01*
G01X18447Y11636D01*
G01X18488Y11615D01*
G01X18509Y11596D01*
G01X18528Y11534D01*
G01X18528Y11494D01*
G01X18509Y11432D01*
G01X18468Y11390D01*
G01X18406Y11371D01*
G01X18344Y11371D01*
G01X18284Y11390D01*
G01X18263Y11411D01*
G01X18243Y11453D01*
G01X14800Y10400D02*
G01X14800Y9971D01*
G01X14800Y10400D02*
G01X14984Y10400D01*
G01X15044Y10380D01*
G01X15065Y10359D01*
G01X15085Y10319D01*
G01X15085Y10278D01*
G01X15065Y10236D01*
G01X15044Y10215D01*
G01X14984Y10196D01*
G01X14800Y10196D01*
G01X14943Y10196D02*
G01X15085Y9971D01*
G01X15242Y10298D02*
G01X15242Y10319D01*
G01X15261Y10359D01*
G01X15282Y10380D01*
G01X15323Y10400D01*
G01X15405Y10400D01*
G01X15446Y10380D01*
G01X15467Y10359D01*
G01X15486Y10319D01*
G01X15486Y10278D01*
G01X15467Y10236D01*
G01X15426Y10175D01*
G01X15221Y9971D01*
G01X15507Y9971D01*
G01X15847Y10400D02*
G01X15643Y10113D01*
G01X15950Y10113D01*
G01X15847Y10400D02*
G01X15847Y9971D01*
G01X19800Y17400D02*
G01X19800Y16971D01*
G01X19800Y17400D02*
G01X19984Y17400D01*
G01X20044Y17380D01*
G01X20065Y17359D01*
G01X20085Y17319D01*
G01X20085Y17278D01*
G01X20065Y17236D01*
G01X20044Y17215D01*
G01X19984Y17196D01*
G01X19800Y17196D01*
G01X19943Y17196D02*
G01X20085Y16971D01*
G01X20242Y17298D02*
G01X20242Y17319D01*
G01X20261Y17359D01*
G01X20282Y17380D01*
G01X20323Y17400D01*
G01X20405Y17400D01*
G01X20446Y17380D01*
G01X20467Y17359D01*
G01X20486Y17319D01*
G01X20486Y17278D01*
G01X20467Y17236D01*
G01X20426Y17175D01*
G01X20221Y16971D01*
G01X20507Y16971D01*
G01X20928Y17400D02*
G01X20725Y16971D01*
G01X20643Y17400D02*
G01X20928Y17400D01*
G01X17600Y15600D02*
G01X17600Y15171D01*
G01X17600Y15600D02*
G01X17784Y15600D01*
G01X17844Y15580D01*
G01X17865Y15559D01*
G01X17885Y15519D01*
G01X17885Y15478D01*
G01X17865Y15436D01*
G01X17844Y15415D01*
G01X17784Y15396D01*
G01X17600Y15396D01*
G01X17743Y15396D02*
G01X17885Y15171D01*
G01X18042Y15498D02*
G01X18042Y15519D01*
G01X18061Y15559D01*
G01X18082Y15580D01*
G01X18123Y15600D01*
G01X18205Y15600D01*
G01X18246Y15580D01*
G01X18267Y15559D01*
G01X18286Y15519D01*
G01X18286Y15478D01*
G01X18267Y15436D01*
G01X18226Y15375D01*
G01X18021Y15171D01*
G01X18307Y15171D01*
G01X18544Y15600D02*
G01X18484Y15580D01*
G01X18463Y15538D01*
G01X18463Y15498D01*
G01X18484Y15457D01*
G01X18525Y15436D01*
G01X18606Y15415D01*
G01X18668Y15396D01*
G01X18709Y15355D01*
G01X18728Y15313D01*
G01X18728Y15253D01*
G01X18709Y15211D01*
G01X18688Y15190D01*
G01X18627Y15171D01*
G01X18544Y15171D01*
G01X18484Y15190D01*
G01X18463Y15211D01*
G01X18443Y15253D01*
G01X18443Y15313D01*
G01X18463Y15355D01*
G01X18503Y15396D01*
G01X18564Y15415D01*
G01X18647Y15436D01*
G01X18688Y15457D01*
G01X18709Y15498D01*
G01X18709Y15538D01*
G01X18688Y15580D01*
G01X18627Y15600D01*
G01X18544Y15600D01*
G01X30000Y11800D02*
G01X30000Y11371D01*
G01X30000Y11800D02*
G01X30184Y11800D01*
G01X30244Y11780D01*
G01X30265Y11759D01*
G01X30285Y11719D01*
G01X30285Y11678D01*
G01X30265Y11636D01*
G01X30244Y11615D01*
G01X30184Y11596D01*
G01X30000Y11596D01*
G01X30143Y11596D02*
G01X30285Y11371D01*
G01X30461Y11800D02*
G01X30686Y11800D01*
G01X30564Y11636D01*
G01X30626Y11636D01*
G01X30667Y11615D01*
G01X30686Y11596D01*
G01X30707Y11534D01*
G01X30707Y11494D01*
G01X30686Y11432D01*
G01X30646Y11390D01*
G01X30585Y11371D01*
G01X30523Y11371D01*
G01X30461Y11390D01*
G01X30442Y11411D01*
G01X30421Y11453D01*
G01X30843Y11719D02*
G01X30884Y11738D01*
G01X30944Y11800D01*
G01X30944Y11371D01*
G01X27800Y10200D02*
G01X27800Y9771D01*
G01X27800Y10200D02*
G01X27984Y10200D01*
G01X28044Y10180D01*
G01X28065Y10159D01*
G01X28085Y10119D01*
G01X28085Y10078D01*
G01X28065Y10036D01*
G01X28044Y10015D01*
G01X27984Y9996D01*
G01X27800Y9996D01*
G01X27943Y9996D02*
G01X28085Y9771D01*
G01X28261Y10200D02*
G01X28486Y10200D01*
G01X28364Y10036D01*
G01X28426Y10036D01*
G01X28467Y10015D01*
G01X28486Y9996D01*
G01X28507Y9934D01*
G01X28507Y9894D01*
G01X28486Y9832D01*
G01X28446Y9790D01*
G01X28385Y9771D01*
G01X28323Y9771D01*
G01X28261Y9790D01*
G01X28242Y9811D01*
G01X28221Y9853D01*
G01X28663Y10098D02*
G01X28663Y10119D01*
G01X28684Y10159D01*
G01X28703Y10180D01*
G01X28744Y10200D01*
G01X28827Y10200D01*
G01X28868Y10180D01*
G01X28888Y10159D01*
G01X28909Y10119D01*
G01X28909Y10078D01*
G01X28888Y10036D01*
G01X28847Y9975D01*
G01X28643Y9771D01*
G01X28928Y9771D01*
G01X30922Y16400D02*
G01X30881Y16380D01*
G01X30840Y16338D01*
G01X30819Y16298D01*
G01X30800Y16236D01*
G01X30800Y16134D01*
G01X30819Y16073D01*
G01X30840Y16032D01*
G01X30881Y15990D01*
G01X30922Y15971D01*
G01X31005Y15971D01*
G01X31044Y15990D01*
G01X31085Y16032D01*
G01X31106Y16073D01*
G01X31127Y16134D01*
G01X31127Y16236D01*
G01X31106Y16298D01*
G01X31085Y16338D01*
G01X31044Y16380D01*
G01X31005Y16400D01*
G01X30922Y16400D01*
G01X30984Y16053D02*
G01X31106Y15930D01*
G01X31302Y16400D02*
G01X31527Y16400D01*
G01X31405Y16236D01*
G01X31467Y16236D01*
G01X31507Y16215D01*
G01X31527Y16196D01*
G01X31548Y16134D01*
G01X31548Y16094D01*
G01X31527Y16032D01*
G01X31486Y15990D01*
G01X31426Y15971D01*
G01X31364Y15971D01*
G01X31302Y15990D01*
G01X31282Y16011D01*
G01X31261Y16053D01*
G01X30400Y17400D02*
G01X30400Y16971D01*
G01X30400Y17400D02*
G01X30584Y17400D01*
G01X30644Y17380D01*
G01X30665Y17359D01*
G01X30685Y17319D01*
G01X30685Y17278D01*
G01X30665Y17236D01*
G01X30644Y17215D01*
G01X30584Y17196D01*
G01X30400Y17196D01*
G01X30543Y17196D02*
G01X30685Y16971D01*
G01X30821Y17319D02*
G01X30861Y17338D01*
G01X30923Y17400D01*
G01X30923Y16971D01*
G01X31181Y17400D02*
G01X31119Y17380D01*
G01X31078Y17319D01*
G01X31059Y17215D01*
G01X31059Y17155D01*
G01X31078Y17053D01*
G01X31119Y16990D01*
G01X31181Y16971D01*
G01X31222Y16971D01*
G01X31284Y16990D01*
G01X31325Y17053D01*
G01X31344Y17155D01*
G01X31344Y17215D01*
G01X31325Y17319D01*
G01X31284Y17380D01*
G01X31222Y17400D01*
G01X31181Y17400D01*
G01X33400Y15400D02*
G01X33400Y14971D01*
G01X33400Y15400D02*
G01X33584Y15400D01*
G01X33644Y15380D01*
G01X33665Y15359D01*
G01X33685Y15319D01*
G01X33685Y15278D01*
G01X33665Y15236D01*
G01X33644Y15215D01*
G01X33584Y15196D01*
G01X33400Y15196D01*
G01X33543Y15196D02*
G01X33685Y14971D01*
G01X33821Y15319D02*
G01X33861Y15338D01*
G01X33923Y15400D01*
G01X33923Y14971D01*
G01X34100Y15400D02*
G01X34325Y15400D01*
G01X34202Y15236D01*
G01X34263Y15236D01*
G01X34304Y15215D01*
G01X34325Y15196D01*
G01X34344Y15134D01*
G01X34344Y15094D01*
G01X34325Y15032D01*
G01X34284Y14990D01*
G01X34222Y14971D01*
G01X34160Y14971D01*
G01X34100Y14990D01*
G01X34079Y15011D01*
G01X34059Y15053D01*
G01X26222Y16344D02*
G01X26181Y16325D01*
G01X26140Y16284D01*
G01X26119Y16242D01*
G01X26100Y16182D01*
G01X26100Y16080D01*
G01X26119Y16017D01*
G01X26140Y15976D01*
G01X26181Y15936D01*
G01X26222Y15915D01*
G01X26305Y15915D01*
G01X26344Y15936D01*
G01X26385Y15976D01*
G01X26406Y16017D01*
G01X26427Y16080D01*
G01X26427Y16182D01*
G01X26406Y16242D01*
G01X26385Y16284D01*
G01X26344Y16325D01*
G01X26305Y16344D01*
G01X26222Y16344D01*
G01X26284Y15998D02*
G01X26406Y15875D01*
G01X26767Y16344D02*
G01X26561Y16059D01*
G01X26868Y16059D01*
G01X26767Y16344D02*
G01X26767Y15915D01*
G01X23600Y17200D02*
G01X23600Y16771D01*
G01X23600Y17200D02*
G01X23784Y17200D01*
G01X23844Y17180D01*
G01X23865Y17159D01*
G01X23885Y17119D01*
G01X23885Y17078D01*
G01X23865Y17036D01*
G01X23844Y17015D01*
G01X23784Y16996D01*
G01X23600Y16996D01*
G01X23743Y16996D02*
G01X23885Y16771D01*
G01X24021Y17119D02*
G01X24061Y17138D01*
G01X24123Y17200D01*
G01X24123Y16771D01*
G01X24463Y17200D02*
G01X24259Y16913D01*
G01X24564Y16913D01*
G01X24463Y17200D02*
G01X24463Y16771D01*
G01X26500Y15444D02*
G01X26500Y15015D01*
G01X26500Y15444D02*
G01X26684Y15444D01*
G01X26744Y15425D01*
G01X26765Y15405D01*
G01X26785Y15363D01*
G01X26785Y15323D01*
G01X26765Y15282D01*
G01X26744Y15261D01*
G01X26684Y15240D01*
G01X26500Y15240D01*
G01X26643Y15240D02*
G01X26785Y15015D01*
G01X26921Y15363D02*
G01X26961Y15384D01*
G01X27023Y15444D01*
G01X27023Y15015D01*
G01X27444Y15444D02*
G01X27239Y15015D01*
G01X27159Y15444D02*
G01X27444Y15444D01*
G01X23722Y11000D02*
G01X23681Y10980D01*
G01X23640Y10938D01*
G01X23619Y10898D01*
G01X23600Y10836D01*
G01X23600Y10734D01*
G01X23619Y10673D01*
G01X23640Y10632D01*
G01X23681Y10590D01*
G01X23722Y10571D01*
G01X23805Y10571D01*
G01X23844Y10590D01*
G01X23885Y10632D01*
G01X23906Y10673D01*
G01X23927Y10734D01*
G01X23927Y10836D01*
G01X23906Y10898D01*
G01X23885Y10938D01*
G01X23844Y10980D01*
G01X23805Y11000D01*
G01X23722Y11000D01*
G01X23784Y10653D02*
G01X23906Y10530D01*
G01X24307Y11000D02*
G01X24102Y11000D01*
G01X24082Y10815D01*
G01X24102Y10836D01*
G01X24164Y10857D01*
G01X24226Y10857D01*
G01X24286Y10836D01*
G01X24327Y10796D01*
G01X24348Y10734D01*
G01X24348Y10694D01*
G01X24327Y10632D01*
G01X24286Y10590D01*
G01X24226Y10571D01*
G01X24164Y10571D01*
G01X24102Y10590D01*
G01X24082Y10611D01*
G01X24061Y10653D01*
G01X20800Y11800D02*
G01X20800Y11371D01*
G01X20800Y11800D02*
G01X20984Y11800D01*
G01X21044Y11780D01*
G01X21065Y11759D01*
G01X21085Y11719D01*
G01X21085Y11678D01*
G01X21065Y11636D01*
G01X21044Y11615D01*
G01X20984Y11596D01*
G01X20800Y11596D01*
G01X20943Y11596D02*
G01X21085Y11371D01*
G01X21221Y11719D02*
G01X21261Y11738D01*
G01X21323Y11800D01*
G01X21323Y11371D01*
G01X21560Y11800D02*
G01X21500Y11780D01*
G01X21478Y11738D01*
G01X21478Y11698D01*
G01X21500Y11657D01*
G01X21539Y11636D01*
G01X21622Y11615D01*
G01X21684Y11596D01*
G01X21725Y11555D01*
G01X21744Y11513D01*
G01X21744Y11453D01*
G01X21725Y11411D01*
G01X21703Y11390D01*
G01X21643Y11371D01*
G01X21560Y11371D01*
G01X21500Y11390D01*
G01X21478Y11411D01*
G01X21459Y11453D01*
G01X21459Y11513D01*
G01X21478Y11555D01*
G01X21519Y11596D01*
G01X21581Y11615D01*
G01X21663Y11636D01*
G01X21703Y11657D01*
G01X21725Y11698D01*
G01X21725Y11738D01*
G01X21703Y11780D01*
G01X21643Y11800D01*
G01X21560Y11800D01*
G01X23800Y10200D02*
G01X23800Y9771D01*
G01X23800Y10200D02*
G01X23984Y10200D01*
G01X24044Y10180D01*
G01X24065Y10159D01*
G01X24085Y10119D01*
G01X24085Y10078D01*
G01X24065Y10036D01*
G01X24044Y10015D01*
G01X23984Y9996D01*
G01X23800Y9996D01*
G01X23943Y9996D02*
G01X24085Y9771D01*
G01X24242Y10098D02*
G01X24242Y10119D01*
G01X24261Y10159D01*
G01X24282Y10180D01*
G01X24323Y10200D01*
G01X24405Y10200D01*
G01X24446Y10180D01*
G01X24467Y10159D01*
G01X24486Y10119D01*
G01X24486Y10078D01*
G01X24467Y10036D01*
G01X24426Y9975D01*
G01X24221Y9771D01*
G01X24507Y9771D01*
G01X24643Y10119D02*
G01X24684Y10138D01*
G01X24744Y10200D01*
G01X24744Y9771D01*
G01X17322Y11000D02*
G01X17281Y10980D01*
G01X17240Y10938D01*
G01X17219Y10898D01*
G01X17200Y10836D01*
G01X17200Y10734D01*
G01X17219Y10673D01*
G01X17240Y10632D01*
G01X17281Y10590D01*
G01X17322Y10571D01*
G01X17405Y10571D01*
G01X17444Y10590D01*
G01X17485Y10632D01*
G01X17506Y10673D01*
G01X17527Y10734D01*
G01X17527Y10836D01*
G01X17506Y10898D01*
G01X17485Y10938D01*
G01X17444Y10980D01*
G01X17405Y11000D01*
G01X17322Y11000D01*
G01X17384Y10653D02*
G01X17506Y10530D01*
G01X17907Y10938D02*
G01X17886Y10980D01*
G01X17826Y11000D01*
G01X17785Y11000D01*
G01X17723Y10980D01*
G01X17682Y10919D01*
G01X17661Y10815D01*
G01X17661Y10713D01*
G01X17682Y10632D01*
G01X17723Y10590D01*
G01X17785Y10571D01*
G01X17805Y10571D01*
G01X17867Y10590D01*
G01X17907Y10632D01*
G01X17927Y10694D01*
G01X17927Y10713D01*
G01X17907Y10775D01*
G01X17867Y10815D01*
G01X17805Y10836D01*
G01X17785Y10836D01*
G01X17723Y10815D01*
G01X17682Y10775D01*
G01X17661Y10713D01*
G01X14600Y11800D02*
G01X14600Y11371D01*
G01X14600Y11800D02*
G01X14784Y11800D01*
G01X14844Y11780D01*
G01X14865Y11759D01*
G01X14885Y11719D01*
G01X14885Y11678D01*
G01X14865Y11636D01*
G01X14844Y11615D01*
G01X14784Y11596D01*
G01X14600Y11596D01*
G01X14743Y11596D02*
G01X14885Y11371D01*
G01X15042Y11698D02*
G01X15042Y11719D01*
G01X15061Y11759D01*
G01X15082Y11780D01*
G01X15123Y11800D01*
G01X15205Y11800D01*
G01X15246Y11780D01*
G01X15267Y11759D01*
G01X15286Y11719D01*
G01X15286Y11678D01*
G01X15267Y11636D01*
G01X15226Y11575D01*
G01X15021Y11371D01*
G01X15307Y11371D01*
G01X15463Y11698D02*
G01X15463Y11719D01*
G01X15484Y11759D01*
G01X15503Y11780D01*
G01X15544Y11800D01*
G01X15627Y11800D01*
G01X15668Y11780D01*
G01X15688Y11759D01*
G01X15709Y11719D01*
G01X15709Y11678D01*
G01X15688Y11636D01*
G01X15647Y11575D01*
G01X15443Y11371D01*
G01X15728Y11371D01*
G01X17700Y10444D02*
G01X17700Y10015D01*
G01X17700Y10444D02*
G01X17884Y10444D01*
G01X17944Y10425D01*
G01X17965Y10405D01*
G01X17985Y10363D01*
G01X17985Y10323D01*
G01X17965Y10282D01*
G01X17944Y10261D01*
G01X17884Y10240D01*
G01X17700Y10240D01*
G01X17843Y10240D02*
G01X17985Y10015D01*
G01X18142Y10342D02*
G01X18142Y10363D01*
G01X18161Y10405D01*
G01X18182Y10425D01*
G01X18223Y10444D01*
G01X18305Y10444D01*
G01X18346Y10425D01*
G01X18367Y10405D01*
G01X18386Y10363D01*
G01X18386Y10323D01*
G01X18367Y10282D01*
G01X18326Y10219D01*
G01X18121Y10015D01*
G01X18407Y10015D01*
G01X18788Y10444D02*
G01X18584Y10444D01*
G01X18563Y10261D01*
G01X18584Y10282D01*
G01X18644Y10301D01*
G01X18706Y10301D01*
G01X18768Y10282D01*
G01X18809Y10240D01*
G01X18828Y10180D01*
G01X18828Y10138D01*
G01X18809Y10076D01*
G01X18768Y10036D01*
G01X18706Y10015D01*
G01X18644Y10015D01*
G01X18584Y10036D01*
G01X18563Y10057D01*
G01X18543Y10098D01*
G01X20222Y16544D02*
G01X20181Y16525D01*
G01X20140Y16484D01*
G01X20119Y16442D01*
G01X20100Y16382D01*
G01X20100Y16280D01*
G01X20119Y16217D01*
G01X20140Y16176D01*
G01X20181Y16136D01*
G01X20222Y16115D01*
G01X20305Y16115D01*
G01X20344Y16136D01*
G01X20385Y16176D01*
G01X20406Y16217D01*
G01X20427Y16280D01*
G01X20427Y16382D01*
G01X20406Y16442D01*
G01X20385Y16484D01*
G01X20344Y16525D01*
G01X20305Y16544D01*
G01X20222Y16544D01*
G01X20284Y16198D02*
G01X20406Y16075D01*
G01X20848Y16544D02*
G01X20643Y16115D01*
G01X20561Y16544D02*
G01X20848Y16544D01*
G01X17600Y17400D02*
G01X17600Y16971D01*
G01X17600Y17400D02*
G01X17784Y17400D01*
G01X17844Y17380D01*
G01X17865Y17359D01*
G01X17885Y17319D01*
G01X17885Y17278D01*
G01X17865Y17236D01*
G01X17844Y17215D01*
G01X17784Y17196D01*
G01X17600Y17196D01*
G01X17743Y17196D02*
G01X17885Y16971D01*
G01X18042Y17298D02*
G01X18042Y17319D01*
G01X18061Y17359D01*
G01X18082Y17380D01*
G01X18123Y17400D01*
G01X18205Y17400D01*
G01X18246Y17380D01*
G01X18267Y17359D01*
G01X18286Y17319D01*
G01X18286Y17278D01*
G01X18267Y17236D01*
G01X18226Y17175D01*
G01X18021Y16971D01*
G01X18307Y16971D01*
G01X18688Y17338D02*
G01X18668Y17380D01*
G01X18606Y17400D01*
G01X18564Y17400D01*
G01X18503Y17380D01*
G01X18463Y17319D01*
G01X18443Y17215D01*
G01X18443Y17113D01*
G01X18463Y17032D01*
G01X18503Y16990D01*
G01X18564Y16971D01*
G01X18585Y16971D01*
G01X18647Y16990D01*
G01X18688Y17032D01*
G01X18709Y17094D01*
G01X18709Y17113D01*
G01X18688Y17175D01*
G01X18647Y17215D01*
G01X18585Y17236D01*
G01X18564Y17236D01*
G01X18503Y17215D01*
G01X18463Y17175D01*
G01X18443Y17113D01*
G01X20000Y15600D02*
G01X20000Y15171D01*
G01X20000Y15600D02*
G01X20184Y15600D01*
G01X20244Y15580D01*
G01X20265Y15559D01*
G01X20285Y15519D01*
G01X20285Y15478D01*
G01X20265Y15436D01*
G01X20244Y15415D01*
G01X20184Y15396D01*
G01X20000Y15396D01*
G01X20143Y15396D02*
G01X20285Y15171D01*
G01X20442Y15498D02*
G01X20442Y15519D01*
G01X20461Y15559D01*
G01X20482Y15580D01*
G01X20523Y15600D01*
G01X20605Y15600D01*
G01X20646Y15580D01*
G01X20667Y15559D01*
G01X20686Y15519D01*
G01X20686Y15478D01*
G01X20667Y15436D01*
G01X20626Y15375D01*
G01X20421Y15171D01*
G01X20707Y15171D01*
G01X21109Y15457D02*
G01X21088Y15396D01*
G01X21047Y15355D01*
G01X20985Y15334D01*
G01X20964Y15334D01*
G01X20903Y15355D01*
G01X20863Y15396D01*
G01X20843Y15457D01*
G01X20843Y15478D01*
G01X20863Y15538D01*
G01X20903Y15580D01*
G01X20964Y15600D01*
G01X20985Y15600D01*
G01X21047Y15580D01*
G01X21088Y15538D01*
G01X21109Y15457D01*
G01X21109Y15355D01*
G01X21088Y15253D01*
G01X21047Y15190D01*
G01X20985Y15171D01*
G01X20944Y15171D01*
G01X20884Y15190D01*
G01X20863Y15232D01*
G01X30122Y10800D02*
G01X30081Y10780D01*
G01X30040Y10738D01*
G01X30019Y10698D01*
G01X30000Y10636D01*
G01X30000Y10534D01*
G01X30019Y10473D01*
G01X30040Y10432D01*
G01X30081Y10390D01*
G01X30122Y10371D01*
G01X30205Y10371D01*
G01X30244Y10390D01*
G01X30285Y10432D01*
G01X30306Y10473D01*
G01X30327Y10534D01*
G01X30327Y10636D01*
G01X30306Y10698D01*
G01X30285Y10738D01*
G01X30244Y10780D01*
G01X30205Y10800D01*
G01X30122Y10800D01*
G01X30184Y10453D02*
G01X30306Y10330D01*
G01X30564Y10800D02*
G01X30502Y10780D01*
G01X30482Y10738D01*
G01X30482Y10698D01*
G01X30502Y10657D01*
G01X30543Y10636D01*
G01X30626Y10615D01*
G01X30686Y10596D01*
G01X30727Y10555D01*
G01X30748Y10513D01*
G01X30748Y10453D01*
G01X30727Y10411D01*
G01X30707Y10390D01*
G01X30646Y10371D01*
G01X30564Y10371D01*
G01X30502Y10390D01*
G01X30482Y10411D01*
G01X30461Y10453D01*
G01X30461Y10513D01*
G01X30482Y10555D01*
G01X30523Y10596D01*
G01X30585Y10615D01*
G01X30667Y10636D01*
G01X30707Y10657D01*
G01X30727Y10698D01*
G01X30727Y10738D01*
G01X30707Y10780D01*
G01X30646Y10800D01*
G01X30564Y10800D01*
G01X27400Y11800D02*
G01X27400Y11371D01*
G01X27400Y11800D02*
G01X27584Y11800D01*
G01X27644Y11780D01*
G01X27665Y11759D01*
G01X27685Y11719D01*
G01X27685Y11678D01*
G01X27665Y11636D01*
G01X27644Y11615D01*
G01X27584Y11596D01*
G01X27400Y11596D01*
G01X27543Y11596D02*
G01X27685Y11371D01*
G01X27861Y11800D02*
G01X28086Y11800D01*
G01X27964Y11636D01*
G01X28026Y11636D01*
G01X28067Y11615D01*
G01X28086Y11596D01*
G01X28107Y11534D01*
G01X28107Y11494D01*
G01X28086Y11432D01*
G01X28046Y11390D01*
G01X27985Y11371D01*
G01X27923Y11371D01*
G01X27861Y11390D01*
G01X27842Y11411D01*
G01X27821Y11453D01*
G01X28364Y11800D02*
G01X28303Y11780D01*
G01X28263Y11719D01*
G01X28243Y11615D01*
G01X28243Y11555D01*
G01X28263Y11453D01*
G01X28303Y11390D01*
G01X28364Y11371D01*
G01X28406Y11371D01*
G01X28468Y11390D01*
G01X28509Y11453D01*
G01X28528Y11555D01*
G01X28528Y11615D01*
G01X28509Y11719D01*
G01X28468Y11780D01*
G01X28406Y11800D01*
G01X28364Y11800D01*
G01X31200Y10200D02*
G01X31200Y9771D01*
G01X31200Y10200D02*
G01X31384Y10200D01*
G01X31444Y10180D01*
G01X31465Y10159D01*
G01X31485Y10119D01*
G01X31485Y10078D01*
G01X31465Y10036D01*
G01X31444Y10015D01*
G01X31384Y9996D01*
G01X31200Y9996D01*
G01X31343Y9996D02*
G01X31485Y9771D01*
G01X31661Y10200D02*
G01X31886Y10200D01*
G01X31764Y10036D01*
G01X31826Y10036D01*
G01X31867Y10015D01*
G01X31886Y9996D01*
G01X31907Y9934D01*
G01X31907Y9894D01*
G01X31886Y9832D01*
G01X31846Y9790D01*
G01X31785Y9771D01*
G01X31723Y9771D01*
G01X31661Y9790D01*
G01X31642Y9811D01*
G01X31621Y9853D01*
G01X32084Y10200D02*
G01X32309Y10200D01*
G01X32185Y10036D01*
G01X32247Y10036D01*
G01X32288Y10015D01*
G01X32309Y9996D01*
G01X32328Y9934D01*
G01X32328Y9894D01*
G01X32309Y9832D01*
G01X32268Y9790D01*
G01X32206Y9771D01*
G01X32144Y9771D01*
G01X32084Y9790D01*
G01X32063Y9811D01*
G01X32043Y9853D01*
G01X6300Y13944D02*
G01X6300Y13638D01*
G01X6319Y13576D01*
G01X6361Y13536D01*
G01X6422Y13515D01*
G01X6464Y13515D01*
G01X6525Y13536D01*
G01X6565Y13576D01*
G01X6585Y13638D01*
G01X6585Y13944D01*
G01X6742Y13842D02*
G01X6742Y13863D01*
G01X6761Y13905D01*
G01X6782Y13925D01*
G01X6823Y13944D01*
G01X6905Y13944D01*
G01X6946Y13925D01*
G01X6967Y13905D01*
G01X6986Y13863D01*
G01X6986Y13823D01*
G01X6967Y13782D01*
G01X6926Y13719D01*
G01X6721Y13515D01*
G01X7007Y13515D01*
G01X6000Y17200D02*
G01X6000Y16894D01*
G01X6019Y16832D01*
G01X6061Y16790D01*
G01X6123Y16771D01*
G01X6163Y16771D01*
G01X6225Y16790D01*
G01X6265Y16832D01*
G01X6286Y16894D01*
G01X6286Y17200D01*
G01X6421Y17119D02*
G01X6461Y17138D01*
G01X6523Y17200D01*
G01X6523Y16771D01*
G01X2600Y18491D02*
G01X3028Y18491D01*
G01X2600Y18491D02*
G01X2600Y18675D01*
G01X2619Y18736D01*
G01X2640Y18757D01*
G01X2680Y18777D01*
G01X2721Y18777D01*
G01X2763Y18757D01*
G01X2784Y18736D01*
G01X2803Y18675D01*
G01X2803Y18491D01*
G01X2803Y18634D02*
G01X3028Y18777D01*
G01X2600Y19158D02*
G01X2600Y18953D01*
G01X2784Y18933D01*
G01X2763Y18953D01*
G01X2742Y19015D01*
G01X2742Y19076D01*
G01X2763Y19137D01*
G01X2803Y19178D01*
G01X2865Y19199D01*
G01X2905Y19199D01*
G01X2967Y19178D01*
G01X3009Y19137D01*
G01X3028Y19076D01*
G01X3028Y19015D01*
G01X3009Y18953D01*
G01X2988Y18933D01*
G01X2946Y18912D01*
G01X8701Y8363D02*
G01X8660Y8342D01*
G01X8619Y8301D01*
G01X8599Y8261D01*
G01X8599Y8178D01*
G01X8619Y8138D01*
G01X8660Y8096D01*
G01X8701Y8076D01*
G01X8762Y8055D01*
G01X8864Y8055D01*
G01X8926Y8076D01*
G01X8967Y8096D01*
G01X9008Y8138D01*
G01X9028Y8178D01*
G01X9028Y8261D01*
G01X9008Y8301D01*
G01X8967Y8342D01*
G01X8926Y8363D01*
G01X8680Y8498D02*
G01X8660Y8538D01*
G01X8599Y8600D01*
G01X9028Y8600D01*
G01X4501Y21978D02*
G01X4461Y21957D01*
G01X4419Y21917D01*
G01X4400Y21877D01*
G01X4400Y21794D01*
G01X4419Y21753D01*
G01X4461Y21713D01*
G01X4501Y21692D01*
G01X4563Y21671D01*
G01X4665Y21671D01*
G01X4726Y21692D01*
G01X4767Y21713D01*
G01X4809Y21753D01*
G01X4828Y21794D01*
G01X4828Y21877D01*
G01X4809Y21917D01*
G01X4767Y21957D01*
G01X4726Y21978D01*
G01X4501Y22134D02*
G01X4480Y22134D01*
G01X4440Y22155D01*
G01X4419Y22175D01*
G01X4400Y22215D01*
G01X4400Y22298D01*
G01X4419Y22338D01*
G01X4440Y22359D01*
G01X4480Y22380D01*
G01X4521Y22380D01*
G01X4563Y22359D01*
G01X4625Y22317D01*
G01X4828Y22113D01*
G01X4828Y22400D01*
G01X7302Y8178D02*
G01X7260Y8157D01*
G01X7219Y8117D01*
G01X7200Y8076D01*
G01X7200Y7994D01*
G01X7219Y7953D01*
G01X7260Y7913D01*
G01X7302Y7892D01*
G01X7363Y7871D01*
G01X7464Y7871D01*
G01X7527Y7892D01*
G01X7568Y7913D01*
G01X7609Y7953D01*
G01X7628Y7994D01*
G01X7628Y8076D01*
G01X7609Y8117D01*
G01X7568Y8157D01*
G01X7527Y8178D01*
G01X7200Y8355D02*
G01X7200Y8580D01*
G01X7363Y8457D01*
G01X7363Y8517D01*
G01X7384Y8559D01*
G01X7403Y8580D01*
G01X7464Y8600D01*
G01X7506Y8600D01*
G01X7568Y8580D01*
G01X7609Y8538D01*
G01X7628Y8476D01*
G01X7628Y8415D01*
G01X7609Y8355D01*
G01X7588Y8334D01*
G01X7547Y8313D01*
G01X3507Y20298D02*
G01X3486Y20338D01*
G01X3444Y20380D01*
G01X3405Y20400D01*
G01X3323Y20400D01*
G01X3282Y20380D01*
G01X3240Y20338D01*
G01X3219Y20298D01*
G01X3200Y20236D01*
G01X3200Y20134D01*
G01X3219Y20073D01*
G01X3240Y20032D01*
G01X3282Y19990D01*
G01X3323Y19971D01*
G01X3405Y19971D01*
G01X3444Y19990D01*
G01X3486Y20032D01*
G01X3507Y20073D01*
G01X3846Y20400D02*
G01X3642Y20113D01*
G01X3948Y20113D01*
G01X3846Y20400D02*
G01X3846Y19971D01*
G01X11200Y12200D02*
G01X11200Y11771D01*
G01X11200Y12200D02*
G01X11343Y12200D01*
G01X11405Y12180D01*
G01X11444Y12138D01*
G01X11465Y12098D01*
G01X11485Y12036D01*
G01X11485Y11934D01*
G01X11465Y11873D01*
G01X11444Y11832D01*
G01X11405Y11790D01*
G01X11343Y11771D01*
G01X11200Y11771D01*
G01X11621Y12119D02*
G01X11661Y12138D01*
G01X11723Y12200D01*
G01X11723Y11771D01*
G01X12000Y12200D02*
G01X12000Y11771D01*
G01X12000Y12200D02*
G01X12184Y12200D01*
G01X12244Y12180D01*
G01X12265Y12159D01*
G01X12285Y12119D01*
G01X12285Y12078D01*
G01X12265Y12036D01*
G01X12244Y12015D01*
G01X12184Y11996D01*
G01X12000Y11996D01*
G01X12143Y11996D02*
G01X12285Y11771D01*
G01X12626Y12200D02*
G01X12421Y11913D01*
G01X12727Y11913D01*
G01X12626Y12200D02*
G01X12626Y11771D01*
G01X13109Y12138D02*
G01X13088Y12180D01*
G01X13027Y12200D01*
G01X12985Y12200D01*
G01X12925Y12180D01*
G01X12884Y12119D01*
G01X12863Y12015D01*
G01X12863Y11913D01*
G01X12884Y11832D01*
G01X12925Y11790D01*
G01X12985Y11771D01*
G01X13006Y11771D01*
G01X13068Y11790D01*
G01X13109Y11832D01*
G01X13128Y11894D01*
G01X13128Y11913D01*
G01X13109Y11975D01*
G01X13068Y12015D01*
G01X13006Y12036D01*
G01X12985Y12036D01*
G01X12925Y12015D01*
G01X12884Y11975D01*
G01X12863Y11913D01*
G01X11400Y8000D02*
G01X11828Y8000D01*
G01X11400Y8000D02*
G01X11400Y8142D01*
G01X11419Y8205D01*
G01X11460Y8244D01*
G01X11502Y8265D01*
G01X11563Y8286D01*
G01X11664Y8286D01*
G01X11727Y8265D01*
G01X11768Y8244D01*
G01X11809Y8205D01*
G01X11828Y8142D01*
G01X11828Y8000D01*
G01X11502Y8442D02*
G01X11481Y8442D01*
G01X11439Y8461D01*
G01X11419Y8482D01*
G01X11400Y8523D01*
G01X11400Y8605D01*
G01X11419Y8646D01*
G01X11439Y8667D01*
G01X11481Y8686D01*
G01X11522Y8686D01*
G01X11563Y8667D01*
G01X11625Y8626D01*
G01X11828Y8421D01*
G01X11828Y8707D01*
G01X11200Y10050D02*
G01X11628Y10050D01*
G01X11200Y10050D02*
G01X11200Y10234D01*
G01X11219Y10294D01*
G01X11239Y10315D01*
G01X11281Y10336D01*
G01X11322Y10336D01*
G01X11363Y10315D01*
G01X11384Y10294D01*
G01X11403Y10234D01*
G01X11403Y10050D01*
G01X11403Y10192D02*
G01X11628Y10336D01*
G01X11200Y10676D02*
G01X11485Y10471D01*
G01X11485Y10778D01*
G01X11200Y10676D02*
G01X11628Y10676D01*
G01X11200Y11200D02*
G01X11628Y10994D01*
G01X11200Y10913D02*
G01X11200Y11200D01*
G01X3400Y8844D02*
G01X3400Y8538D01*
G01X3419Y8476D01*
G01X3461Y8436D01*
G01X3523Y8415D01*
G01X3563Y8415D01*
G01X3625Y8436D01*
G01X3665Y8476D01*
G01X3686Y8538D01*
G01X3686Y8844D01*
G01X3861Y8844D02*
G01X4086Y8844D01*
G01X3965Y8682D01*
G01X4026Y8682D01*
G01X4067Y8661D01*
G01X4086Y8640D01*
G01X4107Y8580D01*
G01X4107Y8538D01*
G01X4086Y8476D01*
G01X4046Y8436D01*
G01X3984Y8415D01*
G01X3923Y8415D01*
G01X3861Y8436D01*
G01X3842Y8457D01*
G01X3821Y8498D01*
G01X6800Y3471D02*
G01X7229Y3471D01*
G01X6800Y3471D02*
G01X6800Y3655D01*
G01X6820Y3715D01*
G01X6840Y3736D01*
G01X6881Y3757D01*
G01X6922Y3757D01*
G01X6963Y3736D01*
G01X6984Y3715D01*
G01X7004Y3655D01*
G01X7004Y3471D01*
G01X7004Y3613D02*
G01X7229Y3757D01*
G01X6800Y3892D02*
G01X7229Y3892D01*
G01X6800Y3892D02*
G01X7229Y4178D01*
G01X6800Y4178D02*
G01X7229Y4178D01*
G01X6902Y4334D02*
G01X6881Y4334D01*
G01X6840Y4355D01*
G01X6820Y4375D01*
G01X6800Y4415D01*
G01X6800Y4498D01*
G01X6820Y4538D01*
G01X6840Y4559D01*
G01X6881Y4580D01*
G01X6922Y4580D01*
G01X6963Y4559D01*
G01X7025Y4517D01*
G01X7229Y4313D01*
G01X7229Y4600D01*
G01X701Y4378D02*
G01X661Y4357D01*
G01X619Y4317D01*
G01X600Y4276D01*
G01X600Y4194D01*
G01X619Y4153D01*
G01X661Y4113D01*
G01X701Y4092D01*
G01X763Y4071D01*
G01X865Y4071D01*
G01X926Y4092D01*
G01X967Y4113D01*
G01X1009Y4153D01*
G01X1028Y4194D01*
G01X1028Y4276D01*
G01X1009Y4317D01*
G01X967Y4357D01*
G01X926Y4378D01*
G01X600Y4759D02*
G01X600Y4555D01*
G01X784Y4534D01*
G01X763Y4555D01*
G01X742Y4615D01*
G01X742Y4676D01*
G01X763Y4738D01*
G01X803Y4780D01*
G01X865Y4800D01*
G01X905Y4800D01*
G01X967Y4780D01*
G01X1009Y4738D01*
G01X1028Y4676D01*
G01X1028Y4615D01*
G01X1009Y4555D01*
G01X988Y4534D01*
G01X946Y4513D01*
G01X2555Y10900D02*
G01X2984Y10900D01*
G01X2555Y10900D02*
G01X2555Y11084D01*
G01X2575Y11144D01*
G01X2594Y11165D01*
G01X2636Y11186D01*
G01X2698Y11186D01*
G01X2738Y11165D01*
G01X2759Y11144D01*
G01X2780Y11084D01*
G01X2780Y10900D01*
G01X2555Y11444D02*
G01X2575Y11403D01*
G01X2615Y11361D01*
G01X2657Y11342D01*
G01X2717Y11321D01*
G01X2819Y11321D01*
G01X2882Y11342D01*
G01X2923Y11361D01*
G01X2963Y11403D01*
G01X2984Y11444D01*
G01X2984Y11526D01*
G01X2963Y11567D01*
G01X2923Y11607D01*
G01X2882Y11628D01*
G01X2819Y11648D01*
G01X2717Y11648D01*
G01X2657Y11628D01*
G01X2615Y11607D01*
G01X2575Y11567D01*
G01X2555Y11526D01*
G01X2555Y11444D01*
G01X2555Y11784D02*
G01X2984Y11886D01*
G01X2555Y11988D02*
G01X2984Y11886D01*
G01X2555Y11988D02*
G01X2984Y12090D01*
G01X2555Y12192D02*
G01X2984Y12090D01*
G01X2555Y12328D02*
G01X2984Y12328D01*
G01X2555Y12328D02*
G01X2555Y12594D01*
G01X2759Y12328D02*
G01X2759Y12490D01*
G01X2984Y12328D02*
G01X2984Y12594D01*
G01X2555Y12728D02*
G01X2984Y12728D01*
G01X2555Y12728D02*
G01X2555Y12913D01*
G01X2575Y12973D01*
G01X2594Y12994D01*
G01X2636Y13015D01*
G01X2676Y13015D01*
G01X2717Y12994D01*
G01X2738Y12973D01*
G01X2759Y12913D01*
G01X2759Y12728D01*
G01X2759Y12871D02*
G01X2984Y13015D01*
G01X2555Y13150D02*
G01X2984Y13150D01*
G01X2555Y13284D02*
G01X2984Y13284D01*
G01X2555Y13284D02*
G01X2984Y13571D01*
G01X2555Y13571D02*
G01X2984Y13571D01*
G01X555Y18300D02*
G01X984Y18300D01*
G01X555Y18300D02*
G01X555Y18484D01*
G01X575Y18544D01*
G01X594Y18565D01*
G01X636Y18586D01*
G01X676Y18586D01*
G01X717Y18565D01*
G01X738Y18544D01*
G01X759Y18484D01*
G01X759Y18300D01*
G01X759Y18442D02*
G01X984Y18586D01*
G01X615Y19007D02*
G01X575Y18967D01*
G01X555Y18905D01*
G01X555Y18823D01*
G01X575Y18761D01*
G01X615Y18721D01*
G01X657Y18721D01*
G01X698Y18742D01*
G01X717Y18761D01*
G01X738Y18803D01*
G01X780Y18926D01*
G01X800Y18967D01*
G01X819Y18986D01*
G01X861Y19007D01*
G01X923Y19007D01*
G01X963Y18967D01*
G01X984Y18905D01*
G01X984Y18823D01*
G01X963Y18761D01*
G01X923Y18721D01*
G01X555Y19346D02*
G01X840Y19142D01*
G01X840Y19450D01*
G01X555Y19346D02*
G01X984Y19346D01*
G01X555Y19686D02*
G01X575Y19625D01*
G01X615Y19605D01*
G01X657Y19605D01*
G01X698Y19625D01*
G01X717Y19665D01*
G01X738Y19748D01*
G01X759Y19809D01*
G01X800Y19850D01*
G01X840Y19871D01*
G01X901Y19871D01*
G01X942Y19850D01*
G01X963Y19830D01*
G01X984Y19769D01*
G01X984Y19686D01*
G01X963Y19625D01*
G01X942Y19605D01*
G01X901Y19584D01*
G01X840Y19584D01*
G01X800Y19605D01*
G01X759Y19646D01*
G01X738Y19707D01*
G01X717Y19788D01*
G01X698Y19830D01*
G01X657Y19850D01*
G01X615Y19850D01*
G01X575Y19830D01*
G01X555Y19769D01*
G01X555Y19686D01*
G01X555Y20251D02*
G01X555Y20046D01*
G01X738Y20026D01*
G01X717Y20046D01*
G01X698Y20107D01*
G01X698Y20169D01*
G01X717Y20230D01*
G01X759Y20271D01*
G01X819Y20292D01*
G01X861Y20292D01*
G01X923Y20271D01*
G01X963Y20230D01*
G01X984Y20169D01*
G01X984Y20107D01*
G01X963Y20046D01*
G01X942Y20026D01*
G01X901Y20005D01*
G01X22800Y1600D02*
G01X22800Y1171D01*
G01X22800Y1600D02*
G01X22984Y1600D01*
G01X23044Y1580D01*
G01X23065Y1559D01*
G01X23085Y1519D01*
G01X23085Y1457D01*
G01X23065Y1415D01*
G01X23044Y1396D01*
G01X22984Y1375D01*
G01X22800Y1375D01*
G01X23467Y1600D02*
G01X23261Y1600D01*
G01X23242Y1415D01*
G01X23261Y1436D01*
G01X23323Y1457D01*
G01X23385Y1457D01*
G01X23446Y1436D01*
G01X23486Y1396D01*
G01X23507Y1334D01*
G01X23507Y1294D01*
G01X23486Y1232D01*
G01X23446Y1190D01*
G01X23385Y1171D01*
G01X23323Y1171D01*
G01X23261Y1190D01*
G01X23242Y1211D01*
G01X23221Y1253D01*
G01X23643Y1028D02*
G01X24010Y1028D01*
G01X24310Y1600D02*
G01X24146Y1171D01*
G01X24310Y1600D02*
G01X24472Y1171D01*
G01X24206Y1313D02*
G01X24411Y1313D01*
G01X24607Y1600D02*
G01X24607Y1171D01*
G01X24607Y1600D02*
G01X24894Y1171D01*
G01X24894Y1600D02*
G01X24894Y1171D01*
G01X25193Y1600D02*
G01X25030Y1171D01*
G01X25193Y1600D02*
G01X25356Y1171D01*
G01X25090Y1313D02*
G01X25294Y1313D01*
G01X25492Y1600D02*
G01X25492Y1171D01*
G01X25492Y1171D02*
G01X25736Y1171D01*
G01X25994Y1600D02*
G01X25953Y1580D01*
G01X25913Y1538D01*
G01X25893Y1498D01*
G01X25872Y1436D01*
G01X25872Y1334D01*
G01X25893Y1273D01*
G01X25913Y1232D01*
G01X25953Y1190D01*
G01X25994Y1171D01*
G01X26077Y1171D01*
G01X26118Y1190D01*
G01X26159Y1232D01*
G01X26178Y1273D01*
G01X26200Y1334D01*
G01X26200Y1436D01*
G01X26178Y1498D01*
G01X26159Y1538D01*
G01X26118Y1580D01*
G01X26077Y1600D01*
G01X25994Y1600D01*
G01X26640Y1498D02*
G01X26621Y1538D01*
G01X26580Y1580D01*
G01X26539Y1600D01*
G01X26456Y1600D01*
G01X26415Y1580D01*
G01X26375Y1538D01*
G01X26355Y1498D01*
G01X26335Y1436D01*
G01X26335Y1334D01*
G01X26355Y1273D01*
G01X26375Y1232D01*
G01X26415Y1190D01*
G01X26456Y1171D01*
G01X26539Y1171D01*
G01X26580Y1190D01*
G01X26621Y1232D01*
G01X26640Y1273D01*
G01X26640Y1334D01*
G01X26539Y1334D02*
G01X26640Y1334D01*
G01X26776Y1600D02*
G01X26776Y1171D01*
G01X26910Y1600D02*
G01X26910Y1171D01*
G01X26910Y1600D02*
G01X27197Y1171D01*
G01X27197Y1600D02*
G01X27197Y1171D01*
G01X21200Y6200D02*
G01X21200Y5771D01*
G01X21200Y6200D02*
G01X21384Y6200D01*
G01X21444Y6180D01*
G01X21465Y6159D01*
G01X21485Y6119D01*
G01X21485Y6057D01*
G01X21465Y6015D01*
G01X21444Y5996D01*
G01X21384Y5975D01*
G01X21200Y5975D01*
G01X21642Y6098D02*
G01X21642Y6119D01*
G01X21661Y6159D01*
G01X21682Y6180D01*
G01X21723Y6200D01*
G01X21805Y6200D01*
G01X21846Y6180D01*
G01X21867Y6159D01*
G01X21886Y6119D01*
G01X21886Y6078D01*
G01X21867Y6036D01*
G01X21826Y5975D01*
G01X21621Y5771D01*
G01X21907Y5771D01*
G01X22043Y5628D02*
G01X22410Y5628D01*
G01X22546Y6200D02*
G01X22546Y5771D01*
G01X22546Y6200D02*
G01X22689Y6200D01*
G01X22750Y6180D01*
G01X22790Y6138D01*
G01X22811Y6098D01*
G01X22831Y6036D01*
G01X22831Y5934D01*
G01X22811Y5873D01*
G01X22790Y5832D01*
G01X22750Y5790D01*
G01X22689Y5771D01*
G01X22546Y5771D01*
G01X22967Y6200D02*
G01X22967Y5771D01*
G01X23409Y6098D02*
G01X23389Y6138D01*
G01X23347Y6180D01*
G01X23306Y6200D01*
G01X23225Y6200D01*
G01X23184Y6180D01*
G01X23143Y6138D01*
G01X23122Y6098D01*
G01X23102Y6036D01*
G01X23102Y5934D01*
G01X23122Y5873D01*
G01X23143Y5832D01*
G01X23184Y5790D01*
G01X23225Y5771D01*
G01X23306Y5771D01*
G01X23347Y5790D01*
G01X23389Y5832D01*
G01X23409Y5873D01*
G01X23409Y5934D01*
G01X23306Y5934D02*
G01X23409Y5934D01*
G01X23543Y6200D02*
G01X23543Y5771D01*
G01X23822Y6200D02*
G01X23822Y5771D01*
G01X23678Y6200D02*
G01X23964Y6200D01*
G01X24264Y6200D02*
G01X24100Y5771D01*
G01X24264Y6200D02*
G01X24427Y5771D01*
G01X24161Y5913D02*
G01X24365Y5913D01*
G01X24563Y6200D02*
G01X24563Y5771D01*
G01X24563Y5771D02*
G01X24807Y5771D01*
G01X9800Y6400D02*
G01X9800Y5971D01*
G01X9800Y6400D02*
G01X9984Y6400D01*
G01X10044Y6380D01*
G01X10065Y6359D01*
G01X10085Y6319D01*
G01X10085Y6257D01*
G01X10065Y6215D01*
G01X10044Y6196D01*
G01X9984Y6175D01*
G01X9800Y6175D01*
G01X10261Y6400D02*
G01X10486Y6400D01*
G01X10364Y6236D01*
G01X10426Y6236D01*
G01X10467Y6215D01*
G01X10486Y6196D01*
G01X10507Y6134D01*
G01X10507Y6094D01*
G01X10486Y6032D01*
G01X10446Y5990D01*
G01X10385Y5971D01*
G01X10323Y5971D01*
G01X10261Y5990D01*
G01X10242Y6011D01*
G01X10221Y6053D01*
G01X10643Y5828D02*
G01X11010Y5828D01*
G01X11146Y6400D02*
G01X11146Y5971D01*
G01X11146Y6400D02*
G01X11289Y6400D01*
G01X11350Y6380D01*
G01X11390Y6338D01*
G01X11411Y6298D01*
G01X11431Y6236D01*
G01X11431Y6134D01*
G01X11411Y6073D01*
G01X11390Y6032D01*
G01X11350Y5990D01*
G01X11289Y5971D01*
G01X11146Y5971D01*
G01X11567Y6400D02*
G01X11567Y5971D01*
G01X12009Y6298D02*
G01X11989Y6338D01*
G01X11947Y6380D01*
G01X11906Y6400D01*
G01X11825Y6400D01*
G01X11784Y6380D01*
G01X11743Y6338D01*
G01X11722Y6298D01*
G01X11702Y6236D01*
G01X11702Y6134D01*
G01X11722Y6073D01*
G01X11743Y6032D01*
G01X11784Y5990D01*
G01X11825Y5971D01*
G01X11906Y5971D01*
G01X11947Y5990D01*
G01X11989Y6032D01*
G01X12009Y6073D01*
G01X12009Y6134D01*
G01X11906Y6134D02*
G01X12009Y6134D01*
G01X12143Y6400D02*
G01X12143Y5971D01*
G01X12422Y6400D02*
G01X12422Y5971D01*
G01X12278Y6400D02*
G01X12564Y6400D01*
G01X12864Y6400D02*
G01X12700Y5971D01*
G01X12864Y6400D02*
G01X13027Y5971D01*
G01X12761Y6113D02*
G01X12965Y6113D01*
G01X13163Y6400D02*
G01X13163Y5971D01*
G01X13163Y5971D02*
G01X13407Y5971D01*
G01X25200Y7450D02*
G01X25629Y7450D01*
G01X25200Y7450D02*
G01X25200Y7634D01*
G01X25220Y7694D01*
G01X25240Y7715D01*
G01X25281Y7736D01*
G01X25322Y7736D01*
G01X25363Y7715D01*
G01X25384Y7694D01*
G01X25404Y7634D01*
G01X25404Y7450D01*
G01X25404Y7592D02*
G01X25629Y7736D01*
G01X25200Y7911D02*
G01X25200Y8136D01*
G01X25363Y8015D01*
G01X25363Y8076D01*
G01X25384Y8117D01*
G01X25404Y8136D01*
G01X25465Y8157D01*
G01X25506Y8157D01*
G01X25568Y8136D01*
G01X25609Y8096D01*
G01X25629Y8034D01*
G01X25629Y7973D01*
G01X25609Y7911D01*
G01X25588Y7892D01*
G01X25547Y7871D01*
G01X25200Y8496D02*
G01X25486Y8292D01*
G01X25486Y8600D01*
G01X25200Y8496D02*
G01X25629Y8496D01*
G01X26200Y7471D02*
G01X26629Y7471D01*
G01X26200Y7471D02*
G01X26200Y7655D01*
G01X26220Y7715D01*
G01X26240Y7736D01*
G01X26281Y7757D01*
G01X26322Y7757D01*
G01X26363Y7736D01*
G01X26384Y7715D01*
G01X26404Y7655D01*
G01X26404Y7471D01*
G01X26404Y7613D02*
G01X26629Y7757D01*
G01X26200Y7932D02*
G01X26200Y8157D01*
G01X26363Y8036D01*
G01X26363Y8096D01*
G01X26384Y8138D01*
G01X26404Y8157D01*
G01X26465Y8178D01*
G01X26506Y8178D01*
G01X26568Y8157D01*
G01X26609Y8117D01*
G01X26629Y8055D01*
G01X26629Y7994D01*
G01X26609Y7932D01*
G01X26588Y7913D01*
G01X26547Y7892D01*
G01X26200Y8559D02*
G01X26200Y8355D01*
G01X26384Y8334D01*
G01X26363Y8355D01*
G01X26343Y8415D01*
G01X26343Y8476D01*
G01X26363Y8538D01*
G01X26404Y8580D01*
G01X26465Y8600D01*
G01X26506Y8600D01*
G01X26568Y8580D01*
G01X26609Y8538D01*
G01X26629Y8476D01*
G01X26629Y8415D01*
G01X26609Y8355D01*
G01X26588Y8334D01*
G01X26547Y8313D01*
G01X27200Y7490D02*
G01X27629Y7490D01*
G01X27200Y7490D02*
G01X27200Y7674D01*
G01X27220Y7735D01*
G01X27240Y7756D01*
G01X27281Y7776D01*
G01X27322Y7776D01*
G01X27363Y7756D01*
G01X27384Y7735D01*
G01X27404Y7674D01*
G01X27404Y7490D01*
G01X27404Y7633D02*
G01X27629Y7776D01*
G01X27200Y7952D02*
G01X27200Y8177D01*
G01X27363Y8055D01*
G01X27363Y8116D01*
G01X27384Y8157D01*
G01X27404Y8177D01*
G01X27465Y8198D01*
G01X27506Y8198D01*
G01X27568Y8177D01*
G01X27609Y8136D01*
G01X27629Y8075D01*
G01X27629Y8014D01*
G01X27609Y7952D01*
G01X27588Y7932D01*
G01X27547Y7911D01*
G01X27261Y8578D02*
G01X27220Y8558D01*
G01X27200Y8496D01*
G01X27200Y8455D01*
G01X27220Y8394D01*
G01X27281Y8353D01*
G01X27384Y8333D01*
G01X27486Y8333D01*
G01X27568Y8353D01*
G01X27609Y8394D01*
G01X27629Y8455D01*
G01X27629Y8476D01*
G01X27609Y8537D01*
G01X27568Y8578D01*
G01X27506Y8599D01*
G01X27486Y8599D01*
G01X27425Y8578D01*
G01X27384Y8537D01*
G01X27363Y8476D01*
G01X27363Y8455D01*
G01X27384Y8394D01*
G01X27425Y8353D01*
G01X27486Y8333D01*
G01X28200Y7471D02*
G01X28629Y7471D01*
G01X28200Y7471D02*
G01X28200Y7655D01*
G01X28220Y7715D01*
G01X28240Y7736D01*
G01X28281Y7757D01*
G01X28322Y7757D01*
G01X28363Y7736D01*
G01X28384Y7715D01*
G01X28404Y7655D01*
G01X28404Y7471D01*
G01X28404Y7613D02*
G01X28629Y7757D01*
G01X28200Y7932D02*
G01X28200Y8157D01*
G01X28363Y8036D01*
G01X28363Y8096D01*
G01X28384Y8138D01*
G01X28404Y8157D01*
G01X28465Y8178D01*
G01X28506Y8178D01*
G01X28568Y8157D01*
G01X28609Y8117D01*
G01X28629Y8055D01*
G01X28629Y7994D01*
G01X28609Y7932D01*
G01X28588Y7913D01*
G01X28547Y7892D01*
G01X28200Y8600D02*
G01X28629Y8396D01*
G01X28200Y8313D02*
G01X28200Y8600D01*
G01X29200Y7471D02*
G01X29629Y7471D01*
G01X29200Y7471D02*
G01X29200Y7655D01*
G01X29220Y7715D01*
G01X29240Y7736D01*
G01X29281Y7757D01*
G01X29322Y7757D01*
G01X29363Y7736D01*
G01X29384Y7715D01*
G01X29404Y7655D01*
G01X29404Y7471D01*
G01X29404Y7613D02*
G01X29629Y7757D01*
G01X29200Y7932D02*
G01X29200Y8157D01*
G01X29363Y8036D01*
G01X29363Y8096D01*
G01X29384Y8138D01*
G01X29404Y8157D01*
G01X29465Y8178D01*
G01X29506Y8178D01*
G01X29568Y8157D01*
G01X29609Y8117D01*
G01X29629Y8055D01*
G01X29629Y7994D01*
G01X29609Y7932D01*
G01X29588Y7913D01*
G01X29547Y7892D01*
G01X29200Y8415D02*
G01X29220Y8355D01*
G01X29261Y8334D01*
G01X29302Y8334D01*
G01X29343Y8355D01*
G01X29363Y8396D01*
G01X29384Y8476D01*
G01X29404Y8538D01*
G01X29445Y8580D01*
G01X29486Y8600D01*
G01X29547Y8600D01*
G01X29588Y8580D01*
G01X29609Y8559D01*
G01X29629Y8498D01*
G01X29629Y8415D01*
G01X29609Y8355D01*
G01X29588Y8334D01*
G01X29547Y8313D01*
G01X29486Y8313D01*
G01X29445Y8334D01*
G01X29404Y8375D01*
G01X29384Y8436D01*
G01X29363Y8517D01*
G01X29343Y8559D01*
G01X29302Y8580D01*
G01X29261Y8580D01*
G01X29220Y8559D01*
G01X29200Y8498D01*
G01X29200Y8415D01*
G01X30200Y7490D02*
G01X30629Y7490D01*
G01X30200Y7490D02*
G01X30200Y7674D01*
G01X30220Y7735D01*
G01X30240Y7756D01*
G01X30281Y7776D01*
G01X30322Y7776D01*
G01X30363Y7756D01*
G01X30384Y7735D01*
G01X30404Y7674D01*
G01X30404Y7490D01*
G01X30404Y7633D02*
G01X30629Y7776D01*
G01X30200Y7952D02*
G01X30200Y8177D01*
G01X30363Y8055D01*
G01X30363Y8116D01*
G01X30384Y8157D01*
G01X30404Y8177D01*
G01X30465Y8198D01*
G01X30506Y8198D01*
G01X30568Y8177D01*
G01X30609Y8136D01*
G01X30629Y8075D01*
G01X30629Y8014D01*
G01X30609Y7952D01*
G01X30588Y7932D01*
G01X30547Y7911D01*
G01X30343Y8599D02*
G01X30404Y8578D01*
G01X30445Y8537D01*
G01X30465Y8476D01*
G01X30465Y8455D01*
G01X30445Y8394D01*
G01X30404Y8353D01*
G01X30343Y8333D01*
G01X30322Y8333D01*
G01X30261Y8353D01*
G01X30220Y8394D01*
G01X30200Y8455D01*
G01X30200Y8476D01*
G01X30220Y8537D01*
G01X30261Y8578D01*
G01X30343Y8599D01*
G01X30445Y8599D01*
G01X30547Y8578D01*
G01X30609Y8537D01*
G01X30629Y8476D01*
G01X30629Y8435D01*
G01X30609Y8374D01*
G01X30568Y8353D01*
G01X13600Y7250D02*
G01X14029Y7250D01*
G01X13600Y7250D02*
G01X13600Y7434D01*
G01X13620Y7494D01*
G01X13640Y7515D01*
G01X13681Y7536D01*
G01X13722Y7536D01*
G01X13763Y7515D01*
G01X13784Y7494D01*
G01X13804Y7434D01*
G01X13804Y7250D01*
G01X13804Y7392D02*
G01X14029Y7536D01*
G01X13600Y7876D02*
G01X13886Y7671D01*
G01X13886Y7978D01*
G01X13600Y7876D02*
G01X14029Y7876D01*
G01X13600Y8236D02*
G01X13620Y8175D01*
G01X13681Y8134D01*
G01X13784Y8113D01*
G01X13845Y8113D01*
G01X13947Y8134D01*
G01X14009Y8175D01*
G01X14029Y8236D01*
G01X14029Y8276D01*
G01X14009Y8338D01*
G01X13947Y8378D01*
G01X13845Y8400D01*
G01X13784Y8400D01*
G01X13681Y8378D01*
G01X13620Y8338D01*
G01X13600Y8276D01*
G01X13600Y8236D01*
G01X14800Y7235D02*
G01X15229Y7235D01*
G01X14800Y7235D02*
G01X14800Y7419D01*
G01X14820Y7480D01*
G01X14840Y7501D01*
G01X14881Y7521D01*
G01X14922Y7521D01*
G01X14963Y7501D01*
G01X14984Y7480D01*
G01X15004Y7419D01*
G01X15004Y7235D01*
G01X15004Y7378D02*
G01X15229Y7521D01*
G01X14800Y7861D02*
G01X15086Y7656D01*
G01X15086Y7963D01*
G01X14800Y7861D02*
G01X15229Y7861D01*
G01X14881Y8098D02*
G01X14861Y8139D01*
G01X14800Y8200D01*
G01X15229Y8200D01*
G01X15800Y7250D02*
G01X16229Y7250D01*
G01X15800Y7250D02*
G01X15800Y7434D01*
G01X15820Y7494D01*
G01X15840Y7515D01*
G01X15881Y7536D01*
G01X15922Y7536D01*
G01X15963Y7515D01*
G01X15984Y7494D01*
G01X16004Y7434D01*
G01X16004Y7250D01*
G01X16004Y7392D02*
G01X16229Y7536D01*
G01X15800Y7876D02*
G01X16086Y7671D01*
G01X16086Y7978D01*
G01X15800Y7876D02*
G01X16229Y7876D01*
G01X15902Y8134D02*
G01X15881Y8134D01*
G01X15840Y8153D01*
G01X15820Y8175D01*
G01X15800Y8215D01*
G01X15800Y8296D01*
G01X15820Y8338D01*
G01X15840Y8359D01*
G01X15881Y8378D01*
G01X15922Y8378D01*
G01X15963Y8359D01*
G01X16025Y8317D01*
G01X16229Y8113D01*
G01X16229Y8400D01*
G01X16800Y7250D02*
G01X17229Y7250D01*
G01X16800Y7250D02*
G01X16800Y7434D01*
G01X16820Y7494D01*
G01X16840Y7515D01*
G01X16881Y7536D01*
G01X16922Y7536D01*
G01X16963Y7515D01*
G01X16984Y7494D01*
G01X17004Y7434D01*
G01X17004Y7250D01*
G01X17004Y7392D02*
G01X17229Y7536D01*
G01X16800Y7876D02*
G01X17086Y7671D01*
G01X17086Y7978D01*
G01X16800Y7876D02*
G01X17229Y7876D01*
G01X16800Y8153D02*
G01X16800Y8378D01*
G01X16963Y8255D01*
G01X16963Y8317D01*
G01X16984Y8359D01*
G01X17004Y8378D01*
G01X17065Y8400D01*
G01X17106Y8400D01*
G01X17168Y8378D01*
G01X17209Y8338D01*
G01X17229Y8276D01*
G01X17229Y8215D01*
G01X17209Y8153D01*
G01X17188Y8134D01*
G01X17147Y8113D01*
G01X17800Y7230D02*
G01X18229Y7230D01*
G01X17800Y7230D02*
G01X17800Y7413D01*
G01X17820Y7475D01*
G01X17840Y7496D01*
G01X17881Y7515D01*
G01X17922Y7515D01*
G01X17963Y7496D01*
G01X17984Y7475D01*
G01X18004Y7413D01*
G01X18004Y7230D01*
G01X18004Y7373D02*
G01X18229Y7515D01*
G01X17800Y7855D02*
G01X18086Y7651D01*
G01X18086Y7957D01*
G01X17800Y7855D02*
G01X18229Y7855D01*
G01X17800Y8298D02*
G01X18086Y8092D01*
G01X18086Y8400D01*
G01X17800Y8298D02*
G01X18229Y8298D01*
G01X18800Y7250D02*
G01X19229Y7250D01*
G01X18800Y7250D02*
G01X18800Y7434D01*
G01X18820Y7494D01*
G01X18840Y7515D01*
G01X18881Y7536D01*
G01X18922Y7536D01*
G01X18963Y7515D01*
G01X18984Y7494D01*
G01X19004Y7434D01*
G01X19004Y7250D01*
G01X19004Y7392D02*
G01X19229Y7536D01*
G01X18800Y7876D02*
G01X19086Y7671D01*
G01X19086Y7978D01*
G01X18800Y7876D02*
G01X19229Y7876D01*
G01X18800Y8359D02*
G01X18800Y8153D01*
G01X18984Y8134D01*
G01X18963Y8153D01*
G01X18943Y8215D01*
G01X18943Y8276D01*
G01X18963Y8338D01*
G01X19004Y8378D01*
G01X19065Y8400D01*
G01X19106Y8400D01*
G01X19168Y8378D01*
G01X19209Y8338D01*
G01X19229Y8276D01*
G01X19229Y8215D01*
G01X19209Y8153D01*
G01X19188Y8134D01*
G01X19147Y8113D01*
G01X1200Y2200D02*
G01X1200Y1771D01*
G01X1200Y2200D02*
G01X1384Y2200D01*
G01X1444Y2180D01*
G01X1465Y2159D01*
G01X1486Y2119D01*
G01X1486Y2078D01*
G01X1465Y2036D01*
G01X1444Y2015D01*
G01X1384Y1996D01*
G01X1200Y1996D01*
G01X1342Y1996D02*
G01X1486Y1771D01*
G01X1621Y2200D02*
G01X1621Y1771D01*
G01X1621Y2200D02*
G01X1907Y1771D01*
G01X1907Y2200D02*
G01X1907Y1771D01*
G01X2042Y2119D02*
G01X2084Y2138D01*
G01X2144Y2200D01*
G01X2144Y1771D01*
G01X4100Y20244D02*
G01X4100Y19815D01*
G01X4100Y20244D02*
G01X4284Y20244D01*
G01X4344Y20225D01*
G01X4365Y20205D01*
G01X4386Y20163D01*
G01X4386Y20123D01*
G01X4365Y20082D01*
G01X4344Y20061D01*
G01X4284Y20040D01*
G01X4100Y20040D01*
G01X4242Y20040D02*
G01X4386Y19815D01*
G01X4726Y20244D02*
G01X4521Y19959D01*
G01X4828Y19959D01*
G01X4726Y20244D02*
G01X4726Y19815D01*
G01X5065Y20244D02*
G01X5003Y20225D01*
G01X4984Y20184D01*
G01X4984Y20142D01*
G01X5003Y20102D01*
G01X5044Y20082D01*
G01X5126Y20061D01*
G01X5188Y20040D01*
G01X5228Y20000D01*
G01X5250Y19959D01*
G01X5250Y19898D01*
G01X5228Y19857D01*
G01X5209Y19836D01*
G01X5146Y19815D01*
G01X5065Y19815D01*
G01X5003Y19836D01*
G01X4984Y19857D01*
G01X4963Y19898D01*
G01X4963Y19959D01*
G01X4984Y20000D01*
G01X5025Y20040D01*
G01X5086Y20061D01*
G01X5167Y20082D01*
G01X5209Y20102D01*
G01X5228Y20142D01*
G01X5228Y20184D01*
G01X5209Y20225D01*
G01X5146Y20244D01*
G01X5065Y20244D01*
G01X3800Y14800D02*
G01X3800Y14371D01*
G01X3800Y14800D02*
G01X3984Y14800D01*
G01X4044Y14780D01*
G01X4065Y14760D01*
G01X4086Y14719D01*
G01X4086Y14678D01*
G01X4065Y14637D01*
G01X4044Y14616D01*
G01X3984Y14596D01*
G01X3800Y14596D01*
G01X3942Y14596D02*
G01X4086Y14371D01*
G01X4426Y14800D02*
G01X4221Y14514D01*
G01X4528Y14514D01*
G01X4426Y14800D02*
G01X4426Y14371D01*
G01X4928Y14657D02*
G01X4909Y14596D01*
G01X4867Y14555D01*
G01X4805Y14535D01*
G01X4786Y14535D01*
G01X4725Y14555D01*
G01X4684Y14596D01*
G01X4663Y14657D01*
G01X4663Y14678D01*
G01X4684Y14739D01*
G01X4725Y14780D01*
G01X4786Y14800D01*
G01X4805Y14800D01*
G01X4867Y14780D01*
G01X4909Y14739D01*
G01X4928Y14657D01*
G01X4928Y14555D01*
G01X4909Y14453D01*
G01X4867Y14391D01*
G01X4805Y14371D01*
G01X4765Y14371D01*
G01X4703Y14391D01*
G01X4684Y14432D01*
G54D31*
G01X13800Y3015D02*
G01X14087Y3082D01*
G01X13800Y3151D02*
G01X14087Y3082D01*
G01X13800Y3151D02*
G01X14087Y3219D01*
G01X13800Y3288D02*
G01X14087Y3219D01*
G01X13800Y3378D02*
G01X14087Y3378D01*
G01X13800Y3378D02*
G01X13800Y3500D01*
G01X13814Y3540D01*
G01X13828Y3555D01*
G01X13855Y3569D01*
G01X13896Y3569D01*
G01X13923Y3555D01*
G01X13937Y3540D01*
G01X13950Y3500D01*
G01X13950Y3378D01*
G01X13800Y3659D02*
G01X14087Y3659D01*
G01X13800Y3986D02*
G01X13800Y4136D01*
G01X13909Y4053D01*
G01X13909Y4094D01*
G01X13923Y4121D01*
G01X13937Y4136D01*
G01X13978Y4150D01*
G01X14005Y4150D01*
G01X14046Y4136D01*
G01X14073Y4109D01*
G01X14087Y4067D01*
G01X14087Y4026D01*
G01X14073Y3986D01*
G01X14059Y3971D01*
G01X14032Y3959D01*
G01X14799Y2987D02*
G01X15086Y3055D01*
G01X14799Y3123D02*
G01X15086Y3055D01*
G01X14799Y3123D02*
G01X15086Y3192D01*
G01X14799Y3260D02*
G01X15086Y3192D01*
G01X14799Y3350D02*
G01X15086Y3350D01*
G01X14799Y3350D02*
G01X14799Y3472D01*
G01X14813Y3513D01*
G01X14827Y3527D01*
G01X14854Y3541D01*
G01X14895Y3541D01*
G01X14922Y3527D01*
G01X14936Y3513D01*
G01X14949Y3472D01*
G01X14949Y3350D01*
G01X14799Y3631D02*
G01X15086Y3631D01*
G01X14854Y3931D02*
G01X14840Y3958D01*
G01X14799Y3999D01*
G01X15086Y3999D01*
G01X15800Y3015D02*
G01X16087Y3082D01*
G01X15800Y3151D02*
G01X16087Y3082D01*
G01X15800Y3151D02*
G01X16087Y3219D01*
G01X15800Y3288D02*
G01X16087Y3219D01*
G01X15800Y3378D02*
G01X16087Y3378D01*
G01X15800Y3378D02*
G01X15800Y3500D01*
G01X15814Y3540D01*
G01X15828Y3555D01*
G01X15855Y3569D01*
G01X15896Y3569D01*
G01X15923Y3555D01*
G01X15937Y3540D01*
G01X15950Y3500D01*
G01X15950Y3378D01*
G01X15800Y3659D02*
G01X16087Y3659D01*
G01X15800Y4121D02*
G01X15800Y3986D01*
G01X15923Y3971D01*
G01X15909Y3986D01*
G01X15896Y4026D01*
G01X15896Y4067D01*
G01X15909Y4109D01*
G01X15937Y4136D01*
G01X15978Y4150D01*
G01X16005Y4150D01*
G01X16046Y4136D01*
G01X16073Y4109D01*
G01X16087Y4067D01*
G01X16087Y4026D01*
G01X16073Y3986D01*
G01X16059Y3971D01*
G01X16032Y3959D01*
G01X16836Y3000D02*
G01X17123Y3067D01*
G01X16836Y3136D02*
G01X17123Y3067D01*
G01X16836Y3136D02*
G01X17123Y3205D01*
G01X16836Y3273D02*
G01X17123Y3205D01*
G01X16836Y3363D02*
G01X17123Y3363D01*
G01X16836Y3363D02*
G01X16836Y3484D01*
G01X16850Y3526D01*
G01X16864Y3540D01*
G01X16891Y3553D01*
G01X16932Y3553D01*
G01X16959Y3540D01*
G01X16973Y3526D01*
G01X16986Y3484D01*
G01X16986Y3363D01*
G01X16836Y3644D02*
G01X17123Y3644D01*
G01X16836Y4080D02*
G01X17027Y3944D01*
G01X17027Y4148D01*
G01X16836Y4080D02*
G01X17123Y4080D01*
G01X17836Y3000D02*
G01X18123Y3067D01*
G01X17836Y3136D02*
G01X18123Y3067D01*
G01X17836Y3136D02*
G01X18123Y3205D01*
G01X17836Y3273D02*
G01X18123Y3205D01*
G01X17836Y3363D02*
G01X18123Y3363D01*
G01X17836Y3363D02*
G01X17836Y3484D01*
G01X17850Y3526D01*
G01X17864Y3540D01*
G01X17891Y3553D01*
G01X17932Y3553D01*
G01X17959Y3540D01*
G01X17973Y3526D01*
G01X17986Y3484D01*
G01X17986Y3363D01*
G01X17836Y3644D02*
G01X18123Y3644D01*
G01X17905Y3957D02*
G01X17891Y3957D01*
G01X17864Y3971D01*
G01X17850Y3984D01*
G01X17836Y4011D01*
G01X17836Y4065D01*
G01X17850Y4094D01*
G01X17864Y4107D01*
G01X17891Y4121D01*
G01X17918Y4121D01*
G01X17945Y4107D01*
G01X17986Y4080D01*
G01X18123Y3944D01*
G01X18123Y4134D01*
G01X17905Y4238D02*
G01X17891Y4238D01*
G01X17864Y4251D01*
G01X17850Y4265D01*
G01X17836Y4292D01*
G01X17836Y4346D01*
G01X17850Y4375D01*
G01X17864Y4388D01*
G01X17891Y4401D01*
G01X17918Y4401D01*
G01X17945Y4388D01*
G01X17986Y4361D01*
G01X18123Y4225D01*
G01X18123Y4415D01*
G01X18836Y3000D02*
G01X19123Y3067D01*
G01X18836Y3136D02*
G01X19123Y3067D01*
G01X18836Y3136D02*
G01X19123Y3205D01*
G01X18836Y3273D02*
G01X19123Y3205D01*
G01X18836Y3363D02*
G01X19123Y3363D01*
G01X18836Y3363D02*
G01X18836Y3484D01*
G01X18850Y3526D01*
G01X18864Y3540D01*
G01X18891Y3553D01*
G01X18932Y3553D01*
G01X18959Y3540D01*
G01X18973Y3526D01*
G01X18986Y3484D01*
G01X18986Y3363D01*
G01X18836Y3644D02*
G01X19123Y3644D01*
G01X18905Y3957D02*
G01X18891Y3957D01*
G01X18864Y3971D01*
G01X18850Y3984D01*
G01X18836Y4011D01*
G01X18836Y4065D01*
G01X18850Y4094D01*
G01X18864Y4107D01*
G01X18891Y4121D01*
G01X18918Y4121D01*
G01X18945Y4107D01*
G01X18986Y4080D01*
G01X19123Y3944D01*
G01X19123Y4134D01*
G01X18891Y4225D02*
G01X18877Y4251D01*
G01X18836Y4292D01*
G01X19123Y4292D01*
G01X25249Y2871D02*
G01X25536Y2938D01*
G01X25249Y3007D02*
G01X25536Y2938D01*
G01X25249Y3007D02*
G01X25536Y3076D01*
G01X25249Y3144D02*
G01X25536Y3076D01*
G01X25249Y3234D02*
G01X25536Y3234D01*
G01X25249Y3234D02*
G01X25249Y3355D01*
G01X25263Y3396D01*
G01X25277Y3411D01*
G01X25304Y3425D01*
G01X25345Y3425D01*
G01X25372Y3411D01*
G01X25386Y3396D01*
G01X25399Y3355D01*
G01X25399Y3234D01*
G01X25249Y3515D02*
G01X25536Y3515D01*
G01X25318Y3828D02*
G01X25304Y3828D01*
G01X25277Y3842D01*
G01X25263Y3855D01*
G01X25249Y3882D01*
G01X25249Y3936D01*
G01X25263Y3965D01*
G01X25277Y3978D01*
G01X25304Y3992D01*
G01X25331Y3992D01*
G01X25358Y3978D01*
G01X25399Y3951D01*
G01X25536Y3815D01*
G01X25536Y4005D01*
G01X25249Y4232D02*
G01X25440Y4096D01*
G01X25440Y4300D01*
G01X25249Y4232D02*
G01X25536Y4232D01*
G01X26249Y2885D02*
G01X26536Y2953D01*
G01X26249Y3021D02*
G01X26536Y2953D01*
G01X26249Y3021D02*
G01X26536Y3090D01*
G01X26249Y3158D02*
G01X26536Y3090D01*
G01X26249Y3248D02*
G01X26536Y3248D01*
G01X26249Y3248D02*
G01X26249Y3370D01*
G01X26263Y3411D01*
G01X26277Y3425D01*
G01X26304Y3439D01*
G01X26345Y3439D01*
G01X26372Y3425D01*
G01X26386Y3411D01*
G01X26399Y3370D01*
G01X26399Y3248D01*
G01X26249Y3529D02*
G01X26536Y3529D01*
G01X26318Y3842D02*
G01X26304Y3842D01*
G01X26277Y3856D01*
G01X26263Y3870D01*
G01X26249Y3897D01*
G01X26249Y3951D01*
G01X26263Y3979D01*
G01X26277Y3992D01*
G01X26304Y4006D01*
G01X26331Y4006D01*
G01X26358Y3992D01*
G01X26399Y3965D01*
G01X26536Y3829D01*
G01X26536Y4020D01*
G01X26249Y4137D02*
G01X26249Y4287D01*
G01X26358Y4205D01*
G01X26358Y4246D01*
G01X26372Y4273D01*
G01X26386Y4287D01*
G01X26427Y4300D01*
G01X26454Y4300D01*
G01X26495Y4287D01*
G01X26522Y4260D01*
G01X26536Y4219D01*
G01X26536Y4178D01*
G01X26522Y4137D01*
G01X26508Y4123D01*
G01X26481Y4110D01*
G01X27249Y2885D02*
G01X27536Y2953D01*
G01X27249Y3021D02*
G01X27536Y2953D01*
G01X27249Y3021D02*
G01X27536Y3090D01*
G01X27249Y3158D02*
G01X27536Y3090D01*
G01X27249Y3248D02*
G01X27536Y3248D01*
G01X27249Y3248D02*
G01X27249Y3370D01*
G01X27263Y3411D01*
G01X27277Y3425D01*
G01X27304Y3439D01*
G01X27345Y3439D01*
G01X27372Y3425D01*
G01X27386Y3411D01*
G01X27399Y3370D01*
G01X27399Y3248D01*
G01X27249Y3529D02*
G01X27536Y3529D01*
G01X27318Y3842D02*
G01X27304Y3842D01*
G01X27277Y3856D01*
G01X27263Y3870D01*
G01X27249Y3897D01*
G01X27249Y3951D01*
G01X27263Y3979D01*
G01X27277Y3992D01*
G01X27304Y4006D01*
G01X27331Y4006D01*
G01X27358Y3992D01*
G01X27399Y3965D01*
G01X27536Y3829D01*
G01X27536Y4020D01*
G01X27249Y4178D02*
G01X27263Y4137D01*
G01X27290Y4123D01*
G01X27318Y4123D01*
G01X27345Y4137D01*
G01X27358Y4164D01*
G01X27372Y4219D01*
G01X27386Y4260D01*
G01X27413Y4287D01*
G01X27440Y4300D01*
G01X27481Y4300D01*
G01X27508Y4287D01*
G01X27522Y4273D01*
G01X27536Y4232D01*
G01X27536Y4178D01*
G01X27522Y4137D01*
G01X27508Y4123D01*
G01X27481Y4110D01*
G01X27440Y4110D01*
G01X27413Y4123D01*
G01X27386Y4150D01*
G01X27372Y4191D01*
G01X27358Y4246D01*
G01X27345Y4273D01*
G01X27318Y4287D01*
G01X27290Y4287D01*
G01X27263Y4273D01*
G01X27249Y4232D01*
G01X27249Y4178D01*
G01X28249Y2885D02*
G01X28536Y2953D01*
G01X28249Y3021D02*
G01X28536Y2953D01*
G01X28249Y3021D02*
G01X28536Y3090D01*
G01X28249Y3158D02*
G01X28536Y3090D01*
G01X28249Y3248D02*
G01X28536Y3248D01*
G01X28249Y3248D02*
G01X28249Y3370D01*
G01X28263Y3411D01*
G01X28277Y3425D01*
G01X28304Y3439D01*
G01X28345Y3439D01*
G01X28372Y3425D01*
G01X28386Y3411D01*
G01X28399Y3370D01*
G01X28399Y3248D01*
G01X28249Y3529D02*
G01X28536Y3529D01*
G01X28318Y3842D02*
G01X28304Y3842D01*
G01X28277Y3856D01*
G01X28263Y3870D01*
G01X28249Y3897D01*
G01X28249Y3951D01*
G01X28263Y3979D01*
G01X28277Y3992D01*
G01X28304Y4006D01*
G01X28331Y4006D01*
G01X28358Y3992D01*
G01X28399Y3965D01*
G01X28536Y3829D01*
G01X28536Y4020D01*
G01X28249Y4300D02*
G01X28536Y4164D01*
G01X28249Y4110D02*
G01X28249Y4300D01*
G01X29249Y2898D02*
G01X29536Y2965D01*
G01X29249Y3034D02*
G01X29536Y2965D01*
G01X29249Y3034D02*
G01X29536Y3103D01*
G01X29249Y3171D02*
G01X29536Y3103D01*
G01X29249Y3261D02*
G01X29536Y3261D01*
G01X29249Y3261D02*
G01X29249Y3382D01*
G01X29263Y3423D01*
G01X29277Y3438D01*
G01X29304Y3451D01*
G01X29345Y3451D01*
G01X29372Y3438D01*
G01X29386Y3423D01*
G01X29399Y3382D01*
G01X29399Y3261D01*
G01X29249Y3542D02*
G01X29536Y3542D01*
G01X29318Y3855D02*
G01X29304Y3855D01*
G01X29277Y3869D01*
G01X29263Y3882D01*
G01X29249Y3909D01*
G01X29249Y3963D01*
G01X29263Y3992D01*
G01X29277Y4005D01*
G01X29304Y4019D01*
G01X29331Y4019D01*
G01X29358Y4005D01*
G01X29399Y3978D01*
G01X29536Y3842D01*
G01X29536Y4032D01*
G01X29290Y4286D02*
G01X29263Y4273D01*
G01X29249Y4232D01*
G01X29249Y4203D01*
G01X29263Y4163D01*
G01X29304Y4136D01*
G01X29372Y4123D01*
G01X29440Y4123D01*
G01X29495Y4136D01*
G01X29522Y4163D01*
G01X29536Y4203D01*
G01X29536Y4217D01*
G01X29522Y4259D01*
G01X29495Y4286D01*
G01X29454Y4300D01*
G01X29440Y4300D01*
G01X29399Y4286D01*
G01X29372Y4259D01*
G01X29358Y4217D01*
G01X29358Y4203D01*
G01X29372Y4163D01*
G01X29399Y4136D01*
G01X29440Y4123D01*
G01X30200Y2884D02*
G01X30487Y2953D01*
G01X30200Y3021D02*
G01X30487Y2953D01*
G01X30200Y3021D02*
G01X30487Y3090D01*
G01X30200Y3157D02*
G01X30487Y3090D01*
G01X30200Y3248D02*
G01X30487Y3248D01*
G01X30200Y3248D02*
G01X30200Y3369D01*
G01X30214Y3411D01*
G01X30228Y3425D01*
G01X30255Y3438D01*
G01X30296Y3438D01*
G01X30323Y3425D01*
G01X30337Y3411D01*
G01X30350Y3369D01*
G01X30350Y3248D01*
G01X30200Y3528D02*
G01X30487Y3528D01*
G01X30269Y3842D02*
G01X30255Y3842D01*
G01X30228Y3855D01*
G01X30214Y3869D01*
G01X30200Y3896D01*
G01X30200Y3951D01*
G01X30214Y3978D01*
G01X30228Y3992D01*
G01X30255Y4005D01*
G01X30282Y4005D01*
G01X30309Y3992D01*
G01X30350Y3965D01*
G01X30487Y3828D01*
G01X30487Y4019D01*
G01X30200Y4273D02*
G01X30200Y4136D01*
G01X30323Y4123D01*
G01X30309Y4136D01*
G01X30296Y4178D01*
G01X30296Y4219D01*
G01X30309Y4259D01*
G01X30337Y4286D01*
G01X30378Y4300D01*
G01X30405Y4300D01*
G01X30446Y4286D01*
G01X30473Y4259D01*
G01X30487Y4219D01*
G01X30487Y4178D01*
G01X30473Y4136D01*
G01X30459Y4123D01*
G01X30432Y4109D01*
G01X14799Y1728D02*
G01X15086Y1619D01*
G01X14799Y1728D02*
G01X15086Y1838D01*
G01X14990Y1661D02*
G01X14990Y1796D01*
G01X14799Y1928D02*
G01X15086Y1928D01*
G01X14799Y1928D02*
G01X15086Y2119D01*
G01X14799Y2119D02*
G01X15086Y2119D01*
G01X14799Y2276D02*
G01X14813Y2236D01*
G01X14840Y2223D01*
G01X14868Y2223D01*
G01X14895Y2236D01*
G01X14908Y2263D01*
G01X14922Y2317D01*
G01X14936Y2359D01*
G01X14963Y2386D01*
G01X14990Y2400D01*
G01X15031Y2400D01*
G01X15058Y2386D01*
G01X15072Y2373D01*
G01X15086Y2332D01*
G01X15086Y2276D01*
G01X15072Y2236D01*
G01X15058Y2223D01*
G01X15031Y2209D01*
G01X14990Y2209D01*
G01X14963Y2223D01*
G01X14936Y2250D01*
G01X14922Y2290D01*
G01X14908Y2344D01*
G01X14895Y2373D01*
G01X14868Y2386D01*
G01X14840Y2386D01*
G01X14813Y2373D01*
G01X14799Y2332D01*
G01X14799Y2276D01*
G01X15835Y1709D02*
G01X16122Y1600D01*
G01X15835Y1709D02*
G01X16122Y1818D01*
G01X16026Y1641D02*
G01X16026Y1777D01*
G01X15835Y1908D02*
G01X16122Y1908D01*
G01X15835Y1908D02*
G01X16122Y2099D01*
G01X15835Y2099D02*
G01X16122Y2099D01*
G01X15835Y2380D02*
G01X16122Y2244D01*
G01X15835Y2189D02*
G01X15835Y2380D01*
G01X16835Y1709D02*
G01X17122Y1600D01*
G01X16835Y1709D02*
G01X17122Y1818D01*
G01X17026Y1641D02*
G01X17026Y1777D01*
G01X16835Y1908D02*
G01X17122Y1908D01*
G01X16835Y1908D02*
G01X17122Y2099D01*
G01X16835Y2099D02*
G01X17122Y2099D01*
G01X16876Y2353D02*
G01X16849Y2339D01*
G01X16835Y2298D01*
G01X16835Y2271D01*
G01X16849Y2230D01*
G01X16890Y2203D01*
G01X16958Y2189D01*
G01X17026Y2189D01*
G01X17081Y2203D01*
G01X17108Y2230D01*
G01X17122Y2271D01*
G01X17122Y2285D01*
G01X17108Y2325D01*
G01X17081Y2353D01*
G01X17040Y2366D01*
G01X17026Y2366D01*
G01X16985Y2353D01*
G01X16958Y2325D01*
G01X16944Y2285D01*
G01X16944Y2271D01*
G01X16958Y2230D01*
G01X16985Y2203D01*
G01X17026Y2189D01*
G01X17835Y1709D02*
G01X18122Y1600D01*
G01X17835Y1709D02*
G01X18122Y1818D01*
G01X18026Y1641D02*
G01X18026Y1777D01*
G01X17835Y1908D02*
G01X18122Y1908D01*
G01X17835Y1908D02*
G01X18122Y2099D01*
G01X17835Y2099D02*
G01X18122Y2099D01*
G01X17835Y2353D02*
G01X17835Y2216D01*
G01X17958Y2203D01*
G01X17944Y2216D01*
G01X17931Y2257D01*
G01X17931Y2298D01*
G01X17944Y2339D01*
G01X17972Y2366D01*
G01X18013Y2380D01*
G01X18040Y2380D01*
G01X18081Y2366D01*
G01X18108Y2339D01*
G01X18122Y2298D01*
G01X18122Y2257D01*
G01X18108Y2216D01*
G01X18094Y2203D01*
G01X18067Y2189D01*
G01X18835Y1709D02*
G01X19122Y1600D01*
G01X18835Y1709D02*
G01X19122Y1818D01*
G01X19026Y1641D02*
G01X19026Y1777D01*
G01X18835Y1908D02*
G01X19122Y1908D01*
G01X18835Y1908D02*
G01X19122Y2099D01*
G01X18835Y2099D02*
G01X19122Y2099D01*
G01X18835Y2325D02*
G01X19026Y2189D01*
G01X19026Y2394D01*
G01X18835Y2325D02*
G01X19122Y2325D01*
G01X19835Y1709D02*
G01X20122Y1600D01*
G01X19835Y1709D02*
G01X20122Y1818D01*
G01X20026Y1641D02*
G01X20026Y1777D01*
G01X19835Y1908D02*
G01X20122Y1908D01*
G01X19835Y1908D02*
G01X20122Y2099D01*
G01X19835Y2099D02*
G01X20122Y2099D01*
G01X19835Y2216D02*
G01X19835Y2366D01*
G01X19944Y2285D01*
G01X19944Y2325D01*
G01X19958Y2353D01*
G01X19972Y2366D01*
G01X20013Y2380D01*
G01X20040Y2380D01*
G01X20081Y2366D01*
G01X20108Y2339D01*
G01X20122Y2298D01*
G01X20122Y2257D01*
G01X20108Y2216D01*
G01X20094Y2203D01*
G01X20067Y2189D01*
G01X20835Y1709D02*
G01X21122Y1600D01*
G01X20835Y1709D02*
G01X21122Y1818D01*
G01X21026Y1641D02*
G01X21026Y1777D01*
G01X20835Y1908D02*
G01X21122Y1908D01*
G01X20835Y1908D02*
G01X21122Y2099D01*
G01X20835Y2099D02*
G01X21122Y2099D01*
G01X20904Y2203D02*
G01X20890Y2203D01*
G01X20863Y2216D01*
G01X20849Y2230D01*
G01X20835Y2257D01*
G01X20835Y2312D01*
G01X20849Y2339D01*
G01X20863Y2353D01*
G01X20890Y2366D01*
G01X20917Y2366D01*
G01X20944Y2353D01*
G01X20985Y2325D01*
G01X21122Y2189D01*
G01X21122Y2380D01*
G01X21835Y1709D02*
G01X22122Y1600D01*
G01X21835Y1709D02*
G01X22122Y1818D01*
G01X22026Y1641D02*
G01X22026Y1777D01*
G01X21835Y1908D02*
G01X22122Y1908D01*
G01X21835Y1908D02*
G01X22122Y2099D01*
G01X21835Y2099D02*
G01X22122Y2099D01*
G01X21890Y2189D02*
G01X21876Y2216D01*
G01X21835Y2257D01*
G01X22122Y2257D01*
G01X12905Y1805D02*
G01X12877Y1790D01*
G01X12850Y1763D01*
G01X12835Y1736D01*
G01X12835Y1682D01*
G01X12850Y1655D01*
G01X12877Y1626D01*
G01X12905Y1613D01*
G01X12944Y1600D01*
G01X13014Y1600D01*
G01X13055Y1613D01*
G01X13081Y1626D01*
G01X13109Y1655D01*
G01X13122Y1682D01*
G01X13122Y1736D01*
G01X13109Y1763D01*
G01X13081Y1790D01*
G01X13055Y1805D01*
G01X13014Y1805D01*
G01X13014Y1736D02*
G01X13014Y1805D01*
G01X12835Y1894D02*
G01X13122Y1894D01*
G01X12835Y1894D02*
G01X13122Y2084D01*
G01X12835Y2084D02*
G01X13122Y2084D01*
G01X12835Y2175D02*
G01X13122Y2175D01*
G01X12835Y2175D02*
G01X12835Y2271D01*
G01X12850Y2311D01*
G01X12877Y2338D01*
G01X12905Y2353D01*
G01X12944Y2365D01*
G01X13014Y2365D01*
G01X13055Y2353D01*
G01X13081Y2338D01*
G01X13109Y2311D01*
G01X13122Y2271D01*
G01X13122Y2175D01*
G01X13905Y1805D02*
G01X13877Y1790D01*
G01X13850Y1763D01*
G01X13835Y1736D01*
G01X13835Y1682D01*
G01X13850Y1655D01*
G01X13877Y1626D01*
G01X13905Y1613D01*
G01X13944Y1600D01*
G01X14014Y1600D01*
G01X14055Y1613D01*
G01X14081Y1626D01*
G01X14109Y1655D01*
G01X14122Y1682D01*
G01X14122Y1736D01*
G01X14109Y1763D01*
G01X14081Y1790D01*
G01X14055Y1805D01*
G01X14014Y1805D01*
G01X14014Y1736D02*
G01X14014Y1805D01*
G01X13835Y1894D02*
G01X14122Y1894D01*
G01X13835Y1894D02*
G01X14122Y2084D01*
G01X13835Y2084D02*
G01X14122Y2084D01*
G01X13835Y2175D02*
G01X14122Y2175D01*
G01X13835Y2175D02*
G01X13835Y2271D01*
G01X13850Y2311D01*
G01X13877Y2338D01*
G01X13905Y2353D01*
G01X13944Y2365D01*
G01X14014Y2365D01*
G01X14055Y2353D01*
G01X14081Y2338D01*
G01X14109Y2311D01*
G01X14122Y2271D01*
G01X14122Y2175D01*
G01X19869Y3639D02*
G01X19841Y3625D01*
G01X19814Y3598D01*
G01X19800Y3570D01*
G01X19800Y3516D01*
G01X19814Y3489D01*
G01X19841Y3461D01*
G01X19869Y3448D01*
G01X19909Y3434D01*
G01X19978Y3434D01*
G01X20019Y3448D01*
G01X20046Y3461D01*
G01X20073Y3489D01*
G01X20087Y3516D01*
G01X20087Y3570D01*
G01X20073Y3598D01*
G01X20046Y3625D01*
G01X20019Y3639D01*
G01X19978Y3639D01*
G01X19978Y3570D02*
G01X19978Y3639D01*
G01X19800Y3729D02*
G01X20087Y3729D01*
G01X19800Y3729D02*
G01X20087Y3919D01*
G01X19800Y3919D02*
G01X20087Y3919D01*
G01X19800Y4009D02*
G01X20087Y4009D01*
G01X19800Y4009D02*
G01X19800Y4105D01*
G01X19814Y4146D01*
G01X19841Y4173D01*
G01X19869Y4187D01*
G01X19909Y4200D01*
G01X19978Y4200D01*
G01X20019Y4187D01*
G01X20046Y4173D01*
G01X20073Y4146D01*
G01X20087Y4105D01*
G01X20087Y4009D01*
G01X31305Y3605D02*
G01X31277Y3590D01*
G01X31250Y3563D01*
G01X31235Y3536D01*
G01X31235Y3482D01*
G01X31250Y3455D01*
G01X31277Y3426D01*
G01X31305Y3413D01*
G01X31344Y3400D01*
G01X31414Y3400D01*
G01X31455Y3413D01*
G01X31481Y3426D01*
G01X31509Y3455D01*
G01X31522Y3482D01*
G01X31522Y3536D01*
G01X31509Y3563D01*
G01X31481Y3590D01*
G01X31455Y3605D01*
G01X31414Y3605D01*
G01X31414Y3536D02*
G01X31414Y3605D01*
G01X31235Y3694D02*
G01X31522Y3694D01*
G01X31235Y3694D02*
G01X31522Y3884D01*
G01X31235Y3884D02*
G01X31522Y3884D01*
G01X31235Y3975D02*
G01X31522Y3975D01*
G01X31235Y3975D02*
G01X31235Y4071D01*
G01X31250Y4111D01*
G01X31277Y4138D01*
G01X31305Y4153D01*
G01X31344Y4165D01*
G01X31414Y4165D01*
G01X31455Y4153D01*
G01X31481Y4138D01*
G01X31509Y4111D01*
G01X31522Y4071D01*
G01X31522Y3975D01*
G01X24241Y3557D02*
G01X24487Y3557D01*
G01X24364Y3434D02*
G01X24364Y3678D01*
G01X24200Y3932D02*
G01X24200Y3796D01*
G01X24323Y3782D01*
G01X24309Y3796D01*
G01X24296Y3838D01*
G01X24296Y3878D01*
G01X24309Y3919D01*
G01X24337Y3946D01*
G01X24378Y3959D01*
G01X24405Y3959D01*
G01X24446Y3946D01*
G01X24473Y3919D01*
G01X24487Y3878D01*
G01X24487Y3838D01*
G01X24473Y3796D01*
G01X24459Y3782D01*
G01X24432Y3769D01*
G01X24200Y4050D02*
G01X24487Y4159D01*
G01X24200Y4269D02*
G01X24487Y4159D01*
G01X12877Y3523D02*
G01X13123Y3523D01*
G01X13000Y3400D02*
G01X13000Y3644D01*
G01X12836Y3898D02*
G01X12836Y3763D01*
G01X12959Y3748D01*
G01X12945Y3763D01*
G01X12932Y3803D01*
G01X12932Y3844D01*
G01X12945Y3884D01*
G01X12973Y3913D01*
G01X13014Y3926D01*
G01X13041Y3926D01*
G01X13082Y3913D01*
G01X13109Y3884D01*
G01X13123Y3844D01*
G01X13123Y3803D01*
G01X13109Y3763D01*
G01X13095Y3748D01*
G01X13068Y3734D01*
G01X12836Y4015D02*
G01X13123Y4125D01*
G01X12836Y4234D02*
G01X13123Y4125D01*
G54D39*
G75*
G01X8620Y15930D02*
G3X8620Y15929I-49J-1D01*
G01*
G75*
G01X12620Y15930D02*
G3X12620Y15929I-49J-1D01*
G01*
G75*
G01X32020Y15930D02*
G3X32020Y15929I-49J-1D01*
G01*
G75*
G01X25020Y15930D02*
G3X25020Y15929I-49J-1D01*
G01*
G75*
G01X22420Y10530D02*
G3X22420Y10529I-49J-1D01*
G01*
G75*
G01X16220Y10530D02*
G3X16220Y10529I-49J-1D01*
G01*
G75*
G01X19020Y15930D02*
G3X19020Y15929I-49J-1D01*
G01*
G75*
G01X29020Y10530D02*
G3X29020Y10529I-49J-1D01*
G01*
G54D10*
G75*
G01X4187Y21496D02*
G3X4187Y21483I-787J-7D01*
G01*
G75*
G01X4855Y16880D02*
G03X4855Y16880I-59J0D01*
G01*
G54D36*
G75*
G01X1808Y6226D02*
G03X1808Y6226I-106J0D01*
G01*
M00*
M02*
