G04 ---------------------------- Layer name :BOTTOM SOLDER LAYER*
G04 EasyEDA v5.8.20, Fri, 09 Nov 2018 02:12:10 GMT*
G04 afbeeaa0033d4c789317b0f66a149b2b*
G04 Gerber Generator version 0.2*
G04 Scale: 100 percent, Rotated: No, Reflected: No *
G04 Dimensions in inches *
G04 leading zeros omitted , absolute positions ,2 integer and 4 decimal *
%FSLAX24Y24*%
%MOIN*%
G90*
G70D02*

%ADD43R,0.070000X0.070000*%
%ADD44C,0.070000*%
%ADD50C,0.047370*%
%ADD55C,0.228000*%
%ADD56C,0.068000*%

%LPD*%
G54D43*
G01X11800Y20000D03*
G54D44*
G01X11800Y21000D03*
G01X12800Y20000D03*
G01X12800Y21000D03*
G01X13800Y20000D03*
G01X13800Y21000D03*
G01X14800Y20000D03*
G01X14800Y21000D03*
G01X15800Y20000D03*
G01X15800Y21000D03*
G01X16800Y20000D03*
G01X16800Y21000D03*
G01X17800Y20000D03*
G01X17800Y21000D03*
G01X18800Y20000D03*
G01X18800Y21000D03*
G01X19800Y20000D03*
G01X19800Y21000D03*
G01X20800Y20000D03*
G01X20800Y21000D03*
G01X21800Y20000D03*
G01X21800Y21000D03*
G01X22800Y20000D03*
G01X22800Y21000D03*
G01X23800Y20000D03*
G01X23800Y21000D03*
G01X24800Y20000D03*
G01X24800Y21000D03*
G01X25800Y20000D03*
G01X25800Y21000D03*
G01X26800Y20000D03*
G01X26800Y21000D03*
G01X27800Y20000D03*
G01X27800Y21000D03*
G01X28800Y20000D03*
G01X28800Y21000D03*
G01X29800Y20000D03*
G01X29800Y21000D03*
G01X30800Y20000D03*
G01X30800Y21000D03*
G54D50*
G01X3400Y21200D03*
G01X3400Y21790D03*
G54D43*
G01X1800Y12400D03*
G54D44*
G01X1800Y11400D03*
G01X1800Y10400D03*
G01X1800Y9400D03*
G54D43*
G01X1800Y14800D03*
G54D44*
G01X1800Y15800D03*
G01X1800Y16800D03*
G01X1800Y17800D03*
G01X1800Y18800D03*
G01X1800Y19800D03*
G01X1800Y20800D03*
G01X1800Y21800D03*
G01X13000Y1000D03*
G01X14000Y1000D03*
G01X15000Y1000D03*
G01X16000Y1000D03*
G01X17000Y1000D03*
G01X18000Y1000D03*
G01X19000Y1000D03*
G01X20000Y1000D03*
G01X21000Y1000D03*
G54D43*
G01X22000Y1000D03*
G01X24400Y5000D03*
G54D44*
G01X25400Y5000D03*
G01X26400Y5000D03*
G01X27400Y5000D03*
G01X28400Y5000D03*
G01X29400Y5000D03*
G01X30400Y5000D03*
G01X31400Y5000D03*
G54D43*
G01X13000Y5000D03*
G54D44*
G01X14000Y5000D03*
G01X15000Y5000D03*
G01X16000Y5000D03*
G01X17000Y5000D03*
G01X18000Y5000D03*
G01X19000Y5000D03*
G01X20000Y5000D03*
G54D55*
G01X9800Y20500D03*
G01X32800Y20500D03*
G01X9800Y1250D03*
G01X32800Y1250D03*
G54D56*
G01X5400Y10600D03*
M00*
M02*
