<?xml version="1.0" encoding="utf-8" standalone="no"?><svg xmlns="http://www.w3.org/2000/svg" xmlns:xlink="http://www.w3.org/1999/xlink" width="27.94mm" height="45.72mm" viewBox="3990 2990 110 180"><title>Photo View</title><style type="text/css">
path, polyline, polygon {stroke-linejoin:round;}
path, polyline, polygon, line {stroke-linecap:round;}
rect, circle, ellipse, polyline, polygon, line, path {shape-rendering:crispEdges;}
*[layerid="0"] {stroke:#FFFFFF; FILL:#FFFFFF;}*[layerid="1"] {stroke:#00BE00; fill:#00BE00;}*[layerid="2"] {stroke:#00BE00; fill:#00BE00;}*[layerid="3"] {stroke:#FFFFFF; fill:#FFFFFF;}*[layerid="4"] {stroke:#FFFFFF; fill:#FFFFFF;}*[layerid="5"] {stroke:#808080; fill:#808080;}*[layerid="6"] {stroke:#800000; fill:#800000;}*[layerid="7"] {stroke:#D2D2D2; fill:#D2D2D2;}*[layerid="8"] {stroke:#D2D2D2; fill:#D2D2D2;}*[layerid="9"] {display:none}*[layerid="10"] {stroke:#0B3B0B; fill:#0B3B0B;}*[layerid="11"] {stroke:#C0C0C0; fill:#C0C0C0;}*[layerid="12"] {stroke:#FFFFFF; fill:#FFFFFF;}*[layerid="13"] {stroke:#33CC99; fill:#33CC99;}*[layerid="14"] {stroke:#5555FF; fill:#5555FF;}*[layerid="15"] {stroke:#F022F0; fill:#F022F0;}*[layerid="16"] {stroke:#FFFFFF; FILL:#FFFFFF;}*[layerid="17"] {stroke:#FFFFFF; FILL:#FFFFFF;}*[layerid="18"] {stroke:#FFFFFF; FILL:#FFFFFF;}*[layerid="19"] {stroke:#FFFFFF; FILL:#FFFFFF;}*[layerid="20"] {stroke:#FFFFFF; FILL:#FFFFFF;}*[layerid="21"] {stroke:#800000; fill:#800000;}*[layerid="22"] {stroke:#008000; fill:#008000;}*[layerid="23"] {stroke:#00FF00; fill:#00FF00;}*[layerid="24"] {stroke:#000080; fill:#000080;}*[fill="none"] {fill: none;}
*[stroke="none"] {stroke: none;}
g[c_partid="part_pad"] > * + circle {fill: #111111;}
g[c_partid="part_via"] > * + circle {fill: #111111;}
g[c_partid="part_pad"] > polyline:nth-of-type(2) {stroke: #111111;}g[c_partid="part_pad"][c_shape="ELLIPSE"]  polyline:nth-last-of-type(1) {stroke:#111111;}g[c_partid="part_pad"][c_shape="RECT"]  polyline:nth-last-of-type(1) {stroke:#111111;}g[c_partid="part_pad"][c_shape="POLYGON"]  polyline:nth-last-of-type(1) {stroke:#111111;}g[c_partid="part_pad"] > polygon[c_padid], #gCurParts g[c_partid="part_pad"] > polygon[c_padid] {stroke-linejoin: miter;stroke-miterlimit: 100;}</style>
<rect x="3990" y="2990" width="110" height="180" fill="#111111" stroke="none"/><g style="pointer-events: none;" transform="matrix(-1, 0, 0, 1, 8090, 0)"><path d="M4000,3160 4000,3000 4090,3000 4090,3160z" layerid="10" stroke="none"/><path d="M4000,3160 4000,3000 4090,3000 4090,3160zM4009.8751,3015.0084 4010.3744,3014.996 4010.87,3014.9339 4011.3569,3014.8227 4011.8304,3014.6637 4012.2856,3014.4583 4012.7182,3014.2085 4013.1237,3013.917 4013.4982,3013.5865 4013.8379,3013.2204 4014.1395,3012.8222 4014.3999,3012.3961 4014.6166,3011.9461 4014.7874,3011.4767 4014.9107,3010.9927 4014.9851,3010.4988 4015.01,3010 4014.9851,3009.5012 4014.9107,3009.0073 4014.7874,3008.5233 4014.6166,3008.0539 4014.3999,3007.6039 4014.1395,3007.1778 4013.8379,3006.7796 4013.4982,3006.4135 4013.1237,3006.083 4012.7182,3005.7915 4012.2856,3005.5417 4011.8304,3005.3363 4011.3569,3005.1773 4010.87,3005.0661 4010.3744,3005.004 4009.8751,3004.9916 4009.377,3005.0289 4008.8852,3005.1156 4008.4044,3005.2509 4007.9395,3005.4334 4007.495,3005.6612 4007.0754,3005.9322 4006.685,3006.2436 4006.3274,3006.5923 4006.0064,3006.9749 4005.725,3007.3876 4005.4861,3007.8262 4005.2921,3008.2865 4005.1449,3008.7637 4005.046,3009.2533 4004.9962,3009.7503 4004.9962,3010.2497 4005.046,3010.7467 4005.1449,3011.2363 4005.2921,3011.7135 4005.4861,3012.1738 4005.725,3012.6124 4006.0064,3013.0251 4006.3274,3013.4077 4006.685,3013.7564 4007.0754,3014.0678 4007.495,3014.3388 4007.9395,3014.5666 4008.4044,3014.7491 4008.8852,3014.8844 4009.377,3014.9711zM4009.8751,3155.0084 4010.3744,3154.996 4010.87,3154.9339 4011.3569,3154.8227 4011.8304,3154.6637 4012.2856,3154.4583 4012.7182,3154.2085 4013.1237,3153.917 4013.4982,3153.5865 4013.8379,3153.2204 4014.1395,3152.8222 4014.3999,3152.3961 4014.6166,3151.9461 4014.7874,3151.4767 4014.9107,3150.9927 4014.9851,3150.4988 4015.01,3150 4014.9851,3149.5012 4014.9107,3149.0073 4014.7874,3148.5233 4014.6166,3148.0539 4014.3999,3147.6039 4014.1395,3147.1778 4013.8379,3146.7796 4013.4982,3146.4135 4013.1237,3146.083 4012.7182,3145.7915 4012.2856,3145.5417 4011.8304,3145.3363 4011.3569,3145.1773 4010.87,3145.0661 4010.3744,3145.004 4009.8751,3144.9916 4009.377,3145.0289 4008.8852,3145.1156 4008.4044,3145.2509 4007.9395,3145.4334 4007.495,3145.6612 4007.0754,3145.9322 4006.685,3146.2436 4006.3274,3146.5923 4006.0064,3146.9749 4005.725,3147.3876 4005.4861,3147.8262 4005.2921,3148.2865 4005.1449,3148.7637 4005.046,3149.2533 4004.9962,3149.7503 4004.9962,3150.2497 4005.046,3150.7467 4005.1449,3151.2363 4005.2921,3151.7135 4005.4861,3152.1738 4005.725,3152.6124 4006.0064,3153.0251 4006.3274,3153.4077 4006.685,3153.7564 4007.0754,3154.0678 4007.495,3154.3388 4007.9395,3154.5666 4008.4044,3154.7491 4008.8852,3154.8844 4009.377,3154.9711zM4067.9454,3127.2293 4068.1676,3127.2238 4068.3882,3127.1961 4068.605,3127.1467 4068.8157,3127.0758 4069.0183,3126.9844 4069.2109,3126.8733 4069.3914,3126.7435 4069.5581,3126.5964 4069.6475,3126.5 4071.3512,3126.5 4071.3653,3126.5168 4071.5244,3126.672 4071.6983,3126.8106 4071.885,3126.9312 4072.0828,3127.0327 4072.2898,3127.1139 4072.5038,3127.1741 4072.7227,3127.2127 4072.9444,3127.2293 4073.1666,3127.2238 4073.3872,3127.1961 4073.604,3127.1467 4073.8147,3127.0758 4074.0173,3126.9844 4074.2099,3126.8733 4074.3904,3126.7435 4074.5571,3126.5964 4074.7083,3126.4334 4074.8425,3126.2562 4074.9584,3126.0665 4075.0549,3125.8662 4075.1309,3125.6573 4075.1858,3125.4419 4075.2189,3125.222 4075.23,3125 4075.2189,3124.778 4075.1858,3124.5581 4075.1309,3124.3427 4075.0549,3124.1338 4074.9584,3123.9335 4074.8425,3123.7438 4074.7083,3123.5666 4074.5571,3123.4036 4074.3904,3123.2565 4074.2099,3123.1267 4074.0173,3123.0156 4073.8147,3122.9242 4073.604,3122.8533 4073.3872,3122.8039 4073.1666,3122.7762 4072.9444,3122.7707 4072.7227,3122.7873 4072.5038,3122.8259 4072.2898,3122.8861 4072.0828,3122.9673 4071.885,3123.0688 4071.6983,3123.1894 4071.5244,3123.328 4071.3653,3123.4832 4071.3512,3123.5 4069.6475,3123.5 4069.5581,3123.4036 4069.3914,3123.2565 4069.2109,3123.1267 4069.0183,3123.0156 4068.8157,3122.9242 4068.605,3122.8533 4068.3882,3122.8039 4068.1676,3122.7762 4067.9454,3122.7707 4067.7237,3122.7873 4067.5048,3122.8259 4067.2908,3122.8861 4067.0838,3122.9673 4066.886,3123.0688 4066.6993,3123.1894 4066.5254,3123.328 4066.3663,3123.4832 4066.2234,3123.6535 4066.0982,3123.8372 4065.9918,3124.0324 4065.9055,3124.2373 4065.84,3124.4497 4065.7959,3124.6676 4065.7738,3124.8888 4065.7738,3125.1112 4065.7959,3125.3324 4065.84,3125.5503 4065.9055,3125.7627 4065.9918,3125.9676 4066.0982,3126.1628 4066.2234,3126.3465 4066.3663,3126.5168 4066.5254,3126.672 4066.6993,3126.8106 4066.886,3126.9312 4067.0838,3127.0327 4067.2908,3127.1139 4067.5048,3127.1741 4067.7237,3127.2127zM4079.8751,3015.0084 4080.3744,3014.996 4080.87,3014.9339 4081.3569,3014.8227 4081.8304,3014.6637 4082.2856,3014.4583 4082.7182,3014.2085 4083.1237,3013.917 4083.4982,3013.5865 4083.8379,3013.2204 4084.1395,3012.8222 4084.3999,3012.3961 4084.6166,3011.9461 4084.7874,3011.4767 4084.9107,3010.9927 4084.9851,3010.4988 4085.01,3010 4084.9851,3009.5012 4084.9107,3009.0073 4084.7874,3008.5233 4084.6166,3008.0539 4084.3999,3007.6039 4084.1395,3007.1778 4083.8379,3006.7796 4083.4982,3006.4135 4083.1237,3006.083 4082.7182,3005.7915 4082.2856,3005.5417 4081.8304,3005.3363 4081.3569,3005.1773 4080.87,3005.0661 4080.3744,3005.004 4079.8751,3004.9916 4079.377,3005.0289 4078.8852,3005.1156 4078.4044,3005.2509 4077.9395,3005.4334 4077.495,3005.6612 4077.0754,3005.9322 4076.685,3006.2436 4076.3274,3006.5923 4076.0064,3006.9749 4075.725,3007.3876 4075.4861,3007.8262 4075.2921,3008.2865 4075.1449,3008.7637 4075.046,3009.2533 4074.9962,3009.7503 4074.9962,3010.2497 4075.046,3010.7467 4075.1449,3011.2363 4075.2921,3011.7135 4075.4861,3012.1738 4075.725,3012.6124 4076.0064,3013.0251 4076.3274,3013.4077 4076.685,3013.7564 4077.0754,3014.0678 4077.495,3014.3388 4077.9395,3014.5666 4078.4044,3014.7491 4078.8852,3014.8844 4079.377,3014.9711zM4006.9,3124.1 4013.1,3124.1 4013.1413,3124.0991 4013.1826,3124.0966 4013.2237,3124.0923 4013.2646,3124.0864 4013.3052,3124.0787 4013.3455,3124.0694 4013.3853,3124.0584 4013.4247,3124.0458 4013.4635,3124.0316 4013.5017,3124.0158 4013.5392,3123.9984 4013.5759,3123.9795 4013.6119,3123.9591 4013.6469,3123.9372 4013.6811,3123.9138 4013.7142,3123.8891 4013.7463,3123.8631 4013.7773,3123.8357 4013.8071,3123.8071 4013.8357,3123.7773 4013.8631,3123.7463 4013.8891,3123.7142 4013.9138,3123.6811 4013.9372,3123.6469 4013.9591,3123.6119 4013.9795,3123.5759 4013.9984,3123.5392 4014.0158,3123.5017 4014.0316,3123.4635 4014.0458,3123.4247 4014.0584,3123.3853 4014.0694,3123.3455 4014.0787,3123.3052 4014.0864,3123.2646 4014.0923,3123.2237 4014.0966,3123.1826 4014.0991,3123.1413 4014.1,3123.1 4014.1,3116.9 4014.0991,3116.8587 4014.0966,3116.8174 4014.0923,3116.7763 4014.0864,3116.7354 4014.0787,3116.6948 4014.0694,3116.6545 4014.0584,3116.6147 4014.0458,3116.5753 4014.0316,3116.5365 4014.0158,3116.4983 4013.9984,3116.4608 4013.9795,3116.4241 4013.9591,3116.3881 4013.9372,3116.3531 4013.9138,3116.3189 4013.8891,3116.2858 4013.8631,3116.2537 4013.8357,3116.2227 4013.8071,3116.1929 4013.7773,3116.1643 4013.7463,3116.1369 4013.7142,3116.1109 4013.6811,3116.0862 4013.6469,3116.0628 4013.6119,3116.0409 4013.5759,3116.0205 4013.5392,3116.0016 4013.5017,3115.9842 4013.4635,3115.9684 4013.4247,3115.9542 4013.3853,3115.9416 4013.3455,3115.9306 4013.3052,3115.9213 4013.2646,3115.9136 4013.2237,3115.9077 4013.1826,3115.9034 4013.1413,3115.9009 4013.1,3115.9 4006.9,3115.9 4006.8587,3115.9009 4006.8174,3115.9034 4006.7763,3115.9077 4006.7354,3115.9136 4006.6948,3115.9213 4006.6545,3115.9306 4006.6147,3115.9416 4006.5753,3115.9542 4006.5365,3115.9684 4006.4983,3115.9842 4006.4608,3116.0016 4006.4241,3116.0205 4006.3881,3116.0409 4006.3531,3116.0628 4006.3189,3116.0862 4006.2858,3116.1109 4006.2537,3116.1369 4006.2227,3116.1643 4006.1929,3116.1929 4006.1643,3116.2227 4006.1369,3116.2537 4006.1109,3116.2858 4006.0862,3116.3189 4006.0628,3116.3531 4006.0409,3116.3881 4006.0205,3116.4241 4006.0016,3116.4608 4005.9842,3116.4983 4005.9684,3116.5365 4005.9542,3116.5753 4005.9416,3116.6147 4005.9306,3116.6545 4005.9213,3116.6948 4005.9136,3116.7354 4005.9077,3116.7763 4005.9034,3116.8174 4005.9009,3116.8587 4005.9,3116.9 4005.9,3123.1 4005.9009,3123.1413 4005.9034,3123.1826 4005.9077,3123.2237 4005.9136,3123.2646 4005.9213,3123.3052 4005.9306,3123.3455 4005.9416,3123.3853 4005.9542,3123.4247 4005.9684,3123.4635 4005.9842,3123.5017 4006.0016,3123.5392 4006.0205,3123.5759 4006.0409,3123.6119 4006.0628,3123.6469 4006.0862,3123.6811 4006.1109,3123.7142 4006.1369,3123.7463 4006.1643,3123.7773 4006.1929,3123.8071 4006.2227,3123.8357 4006.2537,3123.8631 4006.2858,3123.8891 4006.3189,3123.9138 4006.3531,3123.9372 4006.3881,3123.9591 4006.4241,3123.9795 4006.4608,3123.9984 4006.4983,3124.0158 4006.5365,3124.0316 4006.5753,3124.0458 4006.6147,3124.0584 4006.6545,3124.0694 4006.6948,3124.0787 4006.7354,3124.0864 4006.7763,3124.0923 4006.8174,3124.0966 4006.8587,3124.0991zM4036.9444,3018.2293 4037.1666,3018.2238 4037.3872,3018.1961 4037.604,3018.1467 4037.8147,3018.0758 4038.0173,3017.9844 4038.2099,3017.8733 4038.3904,3017.7435 4038.5571,3017.5964 4038.7083,3017.4334 4038.8425,3017.2562 4038.9584,3017.0665 4039.0549,3016.8662 4039.1309,3016.6573 4039.1858,3016.4419 4039.2189,3016.222 4039.23,3016 4039.2189,3015.778 4039.1858,3015.5581 4039.1309,3015.3427 4039.0549,3015.1338 4038.9584,3014.9335 4038.8425,3014.7438 4038.7083,3014.5666 4038.5571,3014.4036 4038.3904,3014.2565 4038.2099,3014.1267 4038.0173,3014.0156 4037.8147,3013.9242 4037.604,3013.8533 4037.3872,3013.8039 4037.1666,3013.7762 4036.9444,3013.7707 4036.7227,3013.7873 4036.5038,3013.8259 4036.2898,3013.8861 4036.0828,3013.9673 4035.885,3014.0688 4035.6983,3014.1894 4035.5244,3014.328 4035.3653,3014.4832 4035.2224,3014.6535 4035.0972,3014.8372 4034.9908,3015.0324 4034.9045,3015.2373 4034.839,3015.4497 4034.7949,3015.6676 4034.7728,3015.8888 4034.7728,3016.1112 4034.7949,3016.3324 4034.839,3016.5503 4034.9045,3016.7627 4034.9908,3016.9676 4035.0972,3017.1628 4035.2224,3017.3465 4035.3653,3017.5168 4035.5244,3017.672 4035.6983,3017.8106 4035.885,3017.9312 4036.0828,3018.0327 4036.2898,3018.1139 4036.5038,3018.1741 4036.7227,3018.2127zM4056.9454,3123.2293 4057.1676,3123.2238 4057.3882,3123.1961 4057.605,3123.1467 4057.8157,3123.0758 4058.0183,3122.9844 4058.2109,3122.8733 4058.3914,3122.7435 4058.5581,3122.5964 4058.6475,3122.5 4075.3512,3122.5 4075.3653,3122.5168 4075.5244,3122.672 4075.6983,3122.8106 4075.885,3122.9312 4076.0828,3123.0327 4076.2898,3123.1139 4076.5038,3123.1741 4076.7227,3123.2127 4076.9444,3123.2293 4077.1666,3123.2238 4077.3872,3123.1961 4077.604,3123.1467 4077.8147,3123.0758 4078.0173,3122.9844 4078.2099,3122.8733 4078.3904,3122.7435 4078.5571,3122.5964 4078.7083,3122.4334 4078.8425,3122.2562 4078.9584,3122.0665 4079.0549,3121.8662 4079.1309,3121.6573 4079.1858,3121.4419 4079.2189,3121.222 4079.23,3121 4079.2189,3120.778 4079.1858,3120.5581 4079.1309,3120.3427 4079.0549,3120.1338 4078.9584,3119.9335 4078.8425,3119.7438 4078.7083,3119.5666 4078.5571,3119.4036 4078.3904,3119.2565 4078.2099,3119.1267 4078.0173,3119.0156 4077.8147,3118.9242 4077.604,3118.8533 4077.3872,3118.8039 4077.1666,3118.7762 4076.9444,3118.7707 4076.7227,3118.7873 4076.5038,3118.8259 4076.2898,3118.8861 4076.0828,3118.9673 4075.885,3119.0688 4075.6983,3119.1894 4075.5244,3119.328 4075.3653,3119.4832 4075.3512,3119.5 4058.6475,3119.5 4058.5581,3119.4036 4058.3914,3119.2565 4058.2109,3119.1267 4058.0183,3119.0156 4057.8157,3118.9242 4057.605,3118.8533 4057.3882,3118.8039 4057.1676,3118.7762 4056.9454,3118.7707 4056.7237,3118.7873 4056.5048,3118.8259 4056.2908,3118.8861 4056.0838,3118.9673 4055.886,3119.0688 4055.6993,3119.1894 4055.5254,3119.328 4055.3663,3119.4832 4055.2234,3119.6535 4055.0982,3119.8372 4054.9918,3120.0324 4054.9055,3120.2373 4054.84,3120.4497 4054.7959,3120.6676 4054.7738,3120.8888 4054.7738,3121.1112 4054.7959,3121.3324 4054.84,3121.5503 4054.9055,3121.7627 4054.9918,3121.9676 4055.0982,3122.1628 4055.2234,3122.3465 4055.3663,3122.5168 4055.5254,3122.672 4055.6993,3122.8106 4055.886,3122.9312 4056.0838,3123.0327 4056.2908,3123.1139 4056.5048,3123.1741 4056.7237,3123.2127zM4041.9444,3039.2293 4042.1666,3039.2238 4042.3872,3039.1961 4042.604,3039.1467 4042.8147,3039.0758 4043.0173,3038.9844 4043.2099,3038.8733 4043.3904,3038.7435 4043.5571,3038.5964 4043.6465,3038.5 4071.3512,3038.5 4071.3653,3038.5168 4071.5244,3038.672 4071.6983,3038.8106 4071.885,3038.9312 4072.0828,3039.0327 4072.2898,3039.1139 4072.5038,3039.1741 4072.7227,3039.2127 4072.9444,3039.2293 4073.1666,3039.2238 4073.3872,3039.1961 4073.604,3039.1467 4073.8147,3039.0758 4074.0173,3038.9844 4074.2099,3038.8733 4074.3904,3038.7435 4074.5571,3038.5964 4074.7083,3038.4334 4074.8425,3038.2562 4074.9584,3038.0665 4075.0549,3037.8662 4075.1309,3037.6573 4075.1858,3037.4419 4075.2189,3037.222 4075.23,3037 4075.2189,3036.778 4075.1858,3036.5581 4075.1309,3036.3427 4075.0549,3036.1338 4074.9584,3035.9335 4074.8425,3035.7438 4074.7083,3035.5666 4074.5571,3035.4036 4074.3904,3035.2565 4074.2099,3035.1267 4074.0173,3035.0156 4073.8147,3034.9242 4073.604,3034.8533 4073.3872,3034.8039 4073.1666,3034.7762 4072.9444,3034.7707 4072.7227,3034.7873 4072.5038,3034.8259 4072.2898,3034.8861 4072.0828,3034.9673 4071.885,3035.0688 4071.6983,3035.1894 4071.5244,3035.328 4071.3653,3035.4832 4071.3512,3035.5 4043.6465,3035.5 4043.5571,3035.4036 4043.3904,3035.2565 4043.2099,3035.1267 4043.0173,3035.0156 4042.8147,3034.9242 4042.604,3034.8533 4042.3872,3034.8039 4042.1666,3034.7762 4041.9444,3034.7707 4041.7227,3034.7873 4041.5038,3034.8259 4041.2898,3034.8861 4041.0828,3034.9673 4040.885,3035.0688 4040.6983,3035.1894 4040.5244,3035.328 4040.3653,3035.4832 4040.2224,3035.6535 4040.0972,3035.8372 4039.9908,3036.0324 4039.9045,3036.2373 4039.839,3036.4497 4039.7949,3036.6676 4039.7728,3036.8888 4039.7728,3037.1112 4039.7949,3037.3324 4039.839,3037.5503 4039.9045,3037.7627 4039.9908,3037.9676 4040.0972,3038.1628 4040.2224,3038.3465 4040.3653,3038.5168 4040.5244,3038.672 4040.6983,3038.8106 4040.885,3038.9312 4041.0828,3039.0327 4041.2898,3039.1139 4041.5038,3039.1741 4041.7227,3039.2127zM4036.9444,3039.2293 4037.1666,3039.2238 4037.3872,3039.1961 4037.604,3039.1467 4037.8147,3039.0758 4038.0173,3038.9844 4038.2099,3038.8733 4038.3904,3038.7435 4038.5571,3038.5964 4038.7083,3038.4334 4038.8425,3038.2562 4038.9584,3038.0665 4039.0549,3037.8662 4039.1309,3037.6573 4039.1858,3037.4419 4039.2189,3037.222 4039.23,3037 4039.2189,3036.778 4039.1858,3036.5581 4039.1309,3036.3427 4039.0549,3036.1338 4038.9584,3035.9335 4038.8425,3035.7438 4038.7083,3035.5666 4038.5571,3035.4036 4038.3904,3035.2565 4038.2099,3035.1267 4038.0173,3035.0156 4037.8147,3034.9242 4037.604,3034.8533 4037.3872,3034.8039 4037.1666,3034.7762 4036.9444,3034.7707 4036.7227,3034.7873 4036.5038,3034.8259 4036.2898,3034.8861 4036.0828,3034.9673 4035.885,3035.0688 4035.6983,3035.1894 4035.5244,3035.328 4035.3653,3035.4832 4035.2224,3035.6535 4035.0972,3035.8372 4034.9908,3036.0324 4034.9045,3036.2373 4034.839,3036.4497 4034.7949,3036.6676 4034.7728,3036.8888 4034.7728,3037.1112 4034.7949,3037.3324 4034.839,3037.5503 4034.9045,3037.7627 4034.9908,3037.9676 4035.0972,3038.1628 4035.2224,3038.3465 4035.3653,3038.5168 4035.5244,3038.672 4035.6983,3038.8106 4035.885,3038.9312 4036.0828,3039.0327 4036.2898,3039.1139 4036.5038,3039.1741 4036.7227,3039.2127zM4045.9454,3119.2293 4046.1676,3119.2238 4046.3882,3119.1961 4046.605,3119.1467 4046.8157,3119.0758 4047.0183,3118.9844 4047.2109,3118.8733 4047.3914,3118.7435 4047.5581,3118.5964 4047.6475,3118.5 4078.3512,3118.5 4078.3653,3118.5168 4078.5244,3118.672 4078.6983,3118.8106 4078.885,3118.9312 4079.0828,3119.0327 4079.2898,3119.1139 4079.5038,3119.1741 4079.7227,3119.2127 4079.9444,3119.2293 4080.1666,3119.2238 4080.3872,3119.1961 4080.604,3119.1467 4080.8147,3119.0758 4081.0173,3118.9844 4081.2099,3118.8733 4081.3904,3118.7435 4081.5571,3118.5964 4081.7083,3118.4334 4081.8425,3118.2562 4081.9584,3118.0665 4082.0549,3117.8662 4082.1309,3117.6573 4082.1858,3117.4419 4082.2189,3117.222 4082.23,3117 4082.2189,3116.778 4082.1858,3116.5581 4082.1309,3116.3427 4082.0549,3116.1338 4081.9584,3115.9335 4081.8425,3115.7438 4081.7083,3115.5666 4081.5571,3115.4036 4081.3904,3115.2565 4081.2099,3115.1267 4081.0173,3115.0156 4080.8147,3114.9242 4080.604,3114.8533 4080.3872,3114.8039 4080.1666,3114.7762 4079.9444,3114.7707 4079.7227,3114.7873 4079.5038,3114.8259 4079.2898,3114.8861 4079.0828,3114.9673 4078.885,3115.0688 4078.6983,3115.1894 4078.5244,3115.328 4078.3653,3115.4832 4078.3512,3115.5 4047.6475,3115.5 4047.5581,3115.4036 4047.3914,3115.2565 4047.2109,3115.1267 4047.0183,3115.0156 4046.8157,3114.9242 4046.605,3114.8533 4046.3882,3114.8039 4046.1676,3114.7762 4045.9454,3114.7707 4045.7237,3114.7873 4045.5048,3114.8259 4045.2908,3114.8861 4045.0838,3114.9673 4044.886,3115.0688 4044.6993,3115.1894 4044.5254,3115.328 4044.3663,3115.4832 4044.2234,3115.6535 4044.0982,3115.8372 4043.9918,3116.0324 4043.9055,3116.2373 4043.84,3116.4497 4043.7959,3116.6676 4043.7738,3116.8888 4043.7738,3117.1112 4043.7959,3117.3324 4043.84,3117.5503 4043.9055,3117.7627 4043.9918,3117.9676 4044.0982,3118.1628 4044.2234,3118.3465 4044.3663,3118.5168 4044.5254,3118.672 4044.6993,3118.8106 4044.886,3118.9312 4045.0838,3119.0327 4045.2908,3119.1139 4045.5048,3119.1741 4045.7237,3119.2127zM4043.9444,3044.2293 4044.1666,3044.2238 4044.3872,3044.1961 4044.604,3044.1467 4044.8147,3044.0758 4045.0173,3043.9844 4045.2099,3043.8733 4045.3904,3043.7435 4045.5571,3043.5964 4045.6465,3043.5 4075.3512,3043.5 4075.3653,3043.5168 4075.5244,3043.672 4075.6983,3043.8106 4075.885,3043.9312 4076.0828,3044.0327 4076.2898,3044.1139 4076.5038,3044.1741 4076.7227,3044.2127 4076.9444,3044.2293 4077.1666,3044.2238 4077.3872,3044.1961 4077.604,3044.1467 4077.8147,3044.0758 4078.0173,3043.9844 4078.2099,3043.8733 4078.3904,3043.7435 4078.5571,3043.5964 4078.7083,3043.4334 4078.8425,3043.2562 4078.9584,3043.0665 4079.0549,3042.8662 4079.1309,3042.6573 4079.1858,3042.4419 4079.2189,3042.222 4079.23,3042 4079.2189,3041.778 4079.1858,3041.5581 4079.1309,3041.3427 4079.0549,3041.1338 4078.9584,3040.9335 4078.8425,3040.7438 4078.7083,3040.5666 4078.5571,3040.4036 4078.3904,3040.2565 4078.2099,3040.1267 4078.0173,3040.0156 4077.8147,3039.9242 4077.604,3039.8533 4077.3872,3039.8039 4077.1666,3039.7762 4076.9444,3039.7707 4076.7227,3039.7873 4076.5038,3039.8259 4076.2898,3039.8861 4076.0828,3039.9673 4075.885,3040.0688 4075.6983,3040.1894 4075.5244,3040.328 4075.3653,3040.4832 4075.3512,3040.5 4045.6465,3040.5 4045.5571,3040.4036 4045.3904,3040.2565 4045.2099,3040.1267 4045.0173,3040.0156 4044.8147,3039.9242 4044.604,3039.8533 4044.3872,3039.8039 4044.1666,3039.7762 4043.9444,3039.7707 4043.7227,3039.7873 4043.5038,3039.8259 4043.2898,3039.8861 4043.0828,3039.9673 4042.885,3040.0688 4042.6983,3040.1894 4042.5244,3040.328 4042.3653,3040.4832 4042.2224,3040.6535 4042.0972,3040.8372 4041.9908,3041.0324 4041.9045,3041.2373 4041.839,3041.4497 4041.7949,3041.6676 4041.7728,3041.8888 4041.7728,3042.1112 4041.7949,3042.3324 4041.839,3042.5503 4041.9045,3042.7627 4041.9908,3042.9676 4042.0972,3043.1628 4042.2224,3043.3465 4042.3653,3043.5168 4042.5244,3043.672 4042.6983,3043.8106 4042.885,3043.9312 4043.0828,3044.0327 4043.2898,3044.1139 4043.5038,3044.1741 4043.7227,3044.2127zM4006.1987,3048.45 4008.45,3048.45 4008.45,3046.1986 4008.3096,3046.2537 4007.945,3046.4406 4007.6008,3046.6629 4007.2805,3046.9184 4006.9872,3047.2045 4006.7238,3047.5184 4006.493,3047.8569 4006.297,3048.2167zM4011.55,3113.8041 4011.875,3113.6574 4012.2299,3113.4525 4012.5625,3113.2133 4012.8698,3112.9422 4013.1484,3112.6419 4013.3958,3112.3152 4013.6095,3111.9656 4013.7873,3111.5965 4013.8042,3111.55 4011.55,3111.55zM4008.45,3113.8014 4008.45,3111.55 4006.1987,3111.55 4006.297,3111.7833 4006.493,3112.1431 4006.7238,3112.4816 4006.9872,3112.7955 4007.2805,3113.0816 4007.6008,3113.3371 4007.945,3113.5594 4008.3096,3113.7463zM4038.9444,3110.2293 4039.1666,3110.2238 4039.3872,3110.1961 4039.604,3110.1467 4039.8147,3110.0758 4040.0173,3109.9844 4040.2099,3109.8733 4040.3904,3109.7435 4040.5571,3109.5964 4040.7083,3109.4334 4040.8425,3109.2562 4040.9584,3109.0665 4041.0549,3108.8662 4041.1309,3108.6573 4041.1858,3108.4419 4041.2189,3108.222 4041.23,3108 4041.2189,3107.778 4041.1858,3107.5581 4041.1309,3107.3427 4041.0549,3107.1338 4040.9584,3106.9335 4040.8425,3106.7438 4040.7083,3106.5666 4040.5571,3106.4036 4040.3904,3106.2565 4040.2099,3106.1267 4040.0173,3106.0156 4039.8147,3105.9242 4039.604,3105.8533 4039.3872,3105.8039 4039.1666,3105.7762 4038.9444,3105.7707 4038.7227,3105.7873 4038.5038,3105.8259 4038.2898,3105.8861 4038.0828,3105.9673 4037.885,3106.0688 4037.6983,3106.1894 4037.5244,3106.328 4037.3653,3106.4832 4037.3512,3106.5 4025.5,3106.5 4025.5,3100 4025.4992,3099.9499 4025.4967,3099.8998 4025.4925,3099.8499 4025.4866,3099.8001 4025.4791,3099.7505 4025.4699,3099.7012 4025.4591,3099.6523 4025.4467,3099.6037 4025.4327,3099.5556 4025.417,3099.508 4025.3998,3099.4609 4025.381,3099.4144 4025.3606,3099.3686 4025.3388,3099.3235 4025.3154,3099.2791 4025.2906,3099.2356 4025.2643,3099.1929 4025.2367,3099.1511 4025.2076,3099.1102 4025.1772,3099.0704 4025.1455,3099.0316 4025.1125,3098.9938 4025.0782,3098.9572 4025.0428,3098.9218 4025.0062,3098.8875 4024.9684,3098.8545 4024.9296,3098.8228 4024.8898,3098.7924 4024.8489,3098.7633 4024.8071,3098.7357 4024.7644,3098.7094 4024.7209,3098.6846 4024.6765,3098.6612 4024.6314,3098.6394 4024.5856,3098.619 4024.5391,3098.6002 4024.492,3098.583 4024.4444,3098.5673 4024.3963,3098.5533 4024.3477,3098.5409 4024.2988,3098.5301 4024.2495,3098.5209 4024.1999,3098.5134 4024.1501,3098.5075 4024.1002,3098.5033 4024.0501,3098.5008 4024,3098.5 4013.8224,3098.5 4013.7873,3098.4035 4013.6095,3098.0344 4013.3958,3097.6848 4013.1484,3097.3581 4012.8698,3097.0578 4012.5625,3096.7867 4012.2299,3096.5475 4012.1476,3096.5 4026.5,3096.5 4026.5,3103 4026.5008,3103.0501 4026.5033,3103.1002 4026.5075,3103.1501 4026.5134,3103.1999 4026.5209,3103.2495 4026.5301,3103.2988 4026.5409,3103.3477 4026.5533,3103.3963 4026.5673,3103.4444 4026.583,3103.492 4026.6002,3103.5391 4026.619,3103.5856 4026.6394,3103.6314 4026.6612,3103.6765 4026.6846,3103.7209 4026.7094,3103.7644 4026.7357,3103.8071 4026.7633,3103.8489 4026.7924,3103.8898 4026.8228,3103.9296 4026.8545,3103.9684 4026.8875,3104.0062 4026.9218,3104.0428 4026.9572,3104.0782 4026.9938,3104.1125 4027.0316,3104.1455 4027.0704,3104.1772 4027.1102,3104.2076 4027.1511,3104.2367 4027.1929,3104.2643 4027.2356,3104.2906 4027.2791,3104.3154 4027.3235,3104.3388 4027.3686,3104.3606 4027.4144,3104.381 4027.4609,3104.3998 4027.508,3104.417 4027.5556,3104.4327 4027.6037,3104.4467 4027.6523,3104.4591 4027.7012,3104.4699 4027.7505,3104.4791 4027.8001,3104.4866 4027.8499,3104.4925 4027.8998,3104.4967 4027.9499,3104.4992 4028,3104.5 4038.3512,3104.5 4038.3653,3104.5168 4038.5244,3104.672 4038.6983,3104.8106 4038.885,3104.9312 4039.0828,3105.0327 4039.2898,3105.1139 4039.5038,3105.1741 4039.7227,3105.2127 4039.9444,3105.2293 4040.1666,3105.2238 4040.3872,3105.1961 4040.604,3105.1467 4040.8147,3105.0758 4041.0173,3104.9844 4041.2099,3104.8733 4041.3904,3104.7435 4041.5571,3104.5964 4041.7083,3104.4334 4041.8425,3104.2562 4041.9584,3104.0665 4042.0549,3103.8662 4042.1309,3103.6573 4042.1858,3103.4419 4042.2189,3103.222 4042.23,3103 4042.2189,3102.778 4042.1858,3102.5581 4042.1309,3102.3427 4042.0549,3102.1338 4041.9584,3101.9335 4041.8425,3101.7438 4041.7083,3101.5666 4041.5571,3101.4036 4041.3904,3101.2565 4041.2099,3101.1267 4041.0173,3101.0156 4040.8147,3100.9242 4040.604,3100.8533 4040.3872,3100.8039 4040.1666,3100.7762 4039.9444,3100.7707 4039.7227,3100.7873 4039.5038,3100.8259 4039.2898,3100.8861 4039.0828,3100.9673 4038.885,3101.0688 4038.6983,3101.1894 4038.5244,3101.328 4038.3653,3101.4832 4038.3512,3101.5 4029.5,3101.5 4029.5,3095 4029.4992,3094.9499 4029.4967,3094.8998 4029.4925,3094.8499 4029.4866,3094.8001 4029.4791,3094.7505 4029.4699,3094.7012 4029.4591,3094.6523 4029.4467,3094.6037 4029.4327,3094.5556 4029.417,3094.508 4029.3998,3094.4609 4029.381,3094.4144 4029.3606,3094.3686 4029.3388,3094.3235 4029.3154,3094.2791 4029.2906,3094.2356 4029.2643,3094.1929 4029.2367,3094.1511 4029.2076,3094.1102 4029.1772,3094.0704 4029.1455,3094.0316 4029.1125,3093.9938 4029.0782,3093.9572 4029.0428,3093.9218 4029.0062,3093.8875 4028.9684,3093.8545 4028.9296,3093.8228 4028.8898,3093.7924 4028.8489,3093.7633 4028.8071,3093.7357 4028.7644,3093.7094 4028.7209,3093.6846 4028.6765,3093.6612 4028.6314,3093.6394 4028.5856,3093.619 4028.5391,3093.6002 4028.492,3093.583 4028.4444,3093.5673 4028.3963,3093.5533 4028.3477,3093.5409 4028.2988,3093.5301 4028.2495,3093.5209 4028.1999,3093.5134 4028.1501,3093.5075 4028.1002,3093.5033 4028.0501,3093.5008 4028,3093.5 4012.1476,3093.5 4012.2299,3093.4525 4012.5625,3093.2133 4012.8698,3092.9422 4013.1484,3092.6419 4013.3958,3092.3152 4013.6095,3091.9656 4013.7873,3091.5965 4013.8224,3091.5 4030.5,3091.5 4030.5,3098 4030.5008,3098.0501 4030.5033,3098.1002 4030.5075,3098.1501 4030.5134,3098.1999 4030.5209,3098.2495 4030.5301,3098.2988 4030.5409,3098.3477 4030.5533,3098.3963 4030.5673,3098.4444 4030.583,3098.492 4030.6002,3098.5391 4030.619,3098.5856 4030.6394,3098.6314 4030.6612,3098.6765 4030.6846,3098.7209 4030.7094,3098.7644 4030.7357,3098.8071 4030.7633,3098.8489 4030.7924,3098.8898 4030.8228,3098.9296 4030.8545,3098.9684 4030.8875,3099.0062 4030.9218,3099.0428 4030.9572,3099.0782 4030.9938,3099.1125 4031.0316,3099.1455 4031.0704,3099.1772 4031.1102,3099.2076 4031.1511,3099.2367 4031.1929,3099.2643 4031.2356,3099.2906 4031.2791,3099.3154 4031.3235,3099.3388 4031.3686,3099.3606 4031.4144,3099.381 4031.4609,3099.3998 4031.508,3099.417 4031.5556,3099.4327 4031.6037,3099.4467 4031.6523,3099.4591 4031.7012,3099.4699 4031.7505,3099.4791 4031.8001,3099.4866 4031.8499,3099.4925 4031.8998,3099.4967 4031.9499,3099.4992 4032,3099.5 4066.3512,3099.5 4066.3653,3099.5168 4066.5244,3099.672 4066.6983,3099.8106 4066.885,3099.9312 4067.0828,3100.0327 4067.2898,3100.1139 4067.5038,3100.1741 4067.7227,3100.2127 4067.9444,3100.2293 4068.1666,3100.2238 4068.3872,3100.1961 4068.604,3100.1467 4068.8147,3100.0758 4069.0173,3099.9844 4069.2099,3099.8733 4069.3904,3099.7435 4069.5571,3099.5964 4069.7083,3099.4334 4069.8425,3099.2562 4069.9584,3099.0665 4070.0549,3098.8662 4070.1309,3098.6573 4070.1858,3098.4419 4070.2189,3098.222 4070.23,3098 4070.2189,3097.778 4070.1858,3097.5581 4070.1309,3097.3427 4070.0549,3097.1338 4069.9584,3096.9335 4069.8425,3096.7438 4069.7083,3096.5666 4069.6465,3096.5 4083.3512,3096.5 4083.3653,3096.5168 4083.5244,3096.672 4083.6983,3096.8106 4083.885,3096.9312 4084.0828,3097.0327 4084.2898,3097.1139 4084.5038,3097.1741 4084.7227,3097.2127 4084.9444,3097.2293 4085.1666,3097.2238 4085.3872,3097.1961 4085.604,3097.1467 4085.8147,3097.0758 4086.0173,3096.9844 4086.2099,3096.8733 4086.3904,3096.7435 4086.5571,3096.5964 4086.7083,3096.4334 4086.8425,3096.2562 4086.9584,3096.0665 4087.0549,3095.8662 4087.1309,3095.6573 4087.1858,3095.4419 4087.2189,3095.222 4087.23,3095 4087.2189,3094.778 4087.1858,3094.5581 4087.1309,3094.3427 4087.0549,3094.1338 4086.9584,3093.9335 4086.8425,3093.7438 4086.7083,3093.5666 4086.5571,3093.4036 4086.3904,3093.2565 4086.2099,3093.1267 4086.0173,3093.0156 4085.8147,3092.9242 4085.604,3092.8533 4085.3872,3092.8039 4085.1666,3092.7762 4084.9444,3092.7707 4084.7227,3092.7873 4084.5038,3092.8259 4084.2898,3092.8861 4084.0828,3092.9673 4083.885,3093.0688 4083.6983,3093.1894 4083.5244,3093.328 4083.3653,3093.4832 4083.3512,3093.5 4049.6465,3093.5 4049.5571,3093.4036 4049.3904,3093.2565 4049.2099,3093.1267 4049.0173,3093.0156 4048.8147,3092.9242 4048.604,3092.8533 4048.3872,3092.8039 4048.1666,3092.7762 4047.9444,3092.7707 4047.7227,3092.7873 4047.5038,3092.8259 4047.2898,3092.8861 4047.0828,3092.9673 4046.885,3093.0688 4046.6983,3093.1894 4046.5244,3093.328 4046.3653,3093.4832 4046.2224,3093.6535 4046.0972,3093.8372 4045.9908,3094.0324 4045.9045,3094.2373 4045.839,3094.4497 4045.7949,3094.6676 4045.7728,3094.8888 4045.7728,3095.1112 4045.7949,3095.3324 4045.839,3095.5503 4045.9045,3095.7627 4045.9908,3095.9676 4046.0972,3096.1628 4046.2224,3096.3465 4046.3512,3096.5 4033.5,3096.5 4033.5,3090 4033.4992,3089.9499 4033.4967,3089.8998 4033.4925,3089.8499 4033.4866,3089.8001 4033.4791,3089.7505 4033.4699,3089.7012 4033.4591,3089.6523 4033.4467,3089.6037 4033.4327,3089.5556 4033.417,3089.508 4033.3998,3089.4609 4033.381,3089.4144 4033.3606,3089.3686 4033.3388,3089.3235 4033.3154,3089.2791 4033.2906,3089.2356 4033.2643,3089.1929 4033.2367,3089.1511 4033.2076,3089.1102 4033.1772,3089.0704 4033.1455,3089.0316 4033.1125,3088.9938 4033.0782,3088.9572 4033.0428,3088.9218 4033.0062,3088.8875 4032.9684,3088.8545 4032.9296,3088.8228 4032.8898,3088.7924 4032.8489,3088.7633 4032.8071,3088.7357 4032.7644,3088.7094 4032.7209,3088.6846 4032.6765,3088.6612 4032.6314,3088.6394 4032.5856,3088.619 4032.5391,3088.6002 4032.492,3088.583 4032.4444,3088.5673 4032.3963,3088.5533 4032.3477,3088.5409 4032.2988,3088.5301 4032.2495,3088.5209 4032.1999,3088.5134 4032.1501,3088.5075 4032.1002,3088.5033 4032.0501,3088.5008 4032,3088.5 4013.8224,3088.5 4013.7873,3088.4035 4013.6095,3088.0344 4013.3958,3087.6848 4013.1484,3087.3581 4012.8698,3087.0578 4012.5625,3086.7867 4012.2299,3086.5475 4011.875,3086.3426 4011.5016,3086.1741 4011.1132,3086.0436 4010.7137,3085.9524 4010.3071,3085.9015 4009.8975,3085.8913 4009.4889,3085.9219 4009.0854,3085.993 4008.691,3086.104 4008.3096,3086.2537 4007.945,3086.4406 4007.6008,3086.6629 4007.2805,3086.9184 4006.9872,3087.2045 4006.7238,3087.5184 4006.493,3087.8569 4006.297,3088.2167 4006.1379,3088.5943 4006.0171,3088.9858 4005.9359,3089.3874 4005.8951,3089.7951 4005.8951,3090.2049 4005.9359,3090.6126 4006.0171,3091.0142 4006.1379,3091.4057 4006.297,3091.7833 4006.493,3092.1431 4006.7238,3092.4816 4006.9872,3092.7955 4007.2805,3093.0816 4007.6008,3093.3371 4007.853,3093.5 4005.5,3093.5 4005.5,3061.5 4006.1776,3061.5 4006.297,3061.7833 4006.493,3062.1431 4006.7238,3062.4816 4006.9872,3062.7955 4007.2805,3063.0816 4007.6008,3063.3371 4007.945,3063.5594 4008.3096,3063.7463 4008.691,3063.896 4009.0854,3064.007 4009.4889,3064.0781 4009.8975,3064.1087 4010.3071,3064.0985 4010.7137,3064.0476 4011.1132,3063.9564 4011.5016,3063.8259 4011.875,3063.6574 4012.2299,3063.4525 4012.5625,3063.2133 4012.8698,3062.9422 4013.1484,3062.6419 4013.3958,3062.3152 4013.6095,3061.9656 4013.7873,3061.5965 4013.9274,3061.2114 4014.0285,3060.8144 4014.0896,3060.4092 4014.11,3060 4014.0896,3059.5908 4014.0285,3059.1856 4013.9274,3058.7886 4013.7873,3058.4035 4013.6095,3058.0344 4013.3958,3057.6848 4013.1484,3057.3581 4012.8698,3057.0578 4012.5625,3056.7867 4012.2299,3056.5475 4011.875,3056.3426 4011.5016,3056.1741 4011.1132,3056.0436 4010.7137,3055.9524 4010.3071,3055.9015 4009.8975,3055.8913 4009.4889,3055.9219 4009.0854,3055.993 4008.691,3056.104 4008.3096,3056.2537 4007.945,3056.4406 4007.6008,3056.6629 4007.2805,3056.9184 4006.9872,3057.2045 4006.7238,3057.5184 4006.493,3057.8569 4006.297,3058.2167 4006.1776,3058.5 4004,3058.5 4003.9499,3058.5008 4003.8998,3058.5033 4003.8499,3058.5075 4003.8001,3058.5134 4003.7505,3058.5209 4003.7012,3058.5301 4003.6523,3058.5409 4003.6037,3058.5533 4003.5556,3058.5673 4003.508,3058.583 4003.4609,3058.6002 4003.4144,3058.619 4003.3686,3058.6394 4003.3235,3058.6612 4003.2791,3058.6846 4003.2356,3058.7094 4003.1929,3058.7357 4003.1511,3058.7633 4003.1102,3058.7924 4003.0704,3058.8228 4003.0316,3058.8545 4002.9938,3058.8875 4002.9572,3058.9218 4002.9218,3058.9572 4002.8875,3058.9938 4002.8545,3059.0316 4002.8228,3059.0704 4002.7924,3059.1102 4002.7633,3059.1511 4002.7357,3059.1929 4002.7094,3059.2356 4002.6846,3059.2791 4002.6612,3059.3235 4002.6394,3059.3686 4002.619,3059.4144 4002.6002,3059.4609 4002.583,3059.508 4002.5673,3059.5556 4002.5533,3059.6037 4002.5409,3059.6523 4002.5301,3059.7012 4002.5209,3059.7505 4002.5134,3059.8001 4002.5075,3059.8499 4002.5033,3059.8998 4002.5008,3059.9499 4002.5,3060 4002.5,3095 4002.5008,3095.0501 4002.5033,3095.1002 4002.5075,3095.1501 4002.5134,3095.1999 4002.5209,3095.2495 4002.5301,3095.2988 4002.5409,3095.3477 4002.5533,3095.3963 4002.5673,3095.4444 4002.583,3095.492 4002.6002,3095.5391 4002.619,3095.5856 4002.6394,3095.6314 4002.6612,3095.6765 4002.6846,3095.7209 4002.7094,3095.7644 4002.7357,3095.8071 4002.7633,3095.8489 4002.7924,3095.8898 4002.8228,3095.9296 4002.8545,3095.9684 4002.8875,3096.0062 4002.9218,3096.0428 4002.9572,3096.0782 4002.9938,3096.1125 4003.0316,3096.1455 4003.0704,3096.1772 4003.1102,3096.2076 4003.1511,3096.2367 4003.1929,3096.2643 4003.2356,3096.2906 4003.2791,3096.3154 4003.3235,3096.3388 4003.3686,3096.3606 4003.4144,3096.381 4003.4609,3096.3998 4003.508,3096.417 4003.5556,3096.4327 4003.6037,3096.4467 4003.6523,3096.4591 4003.7012,3096.4699 4003.7505,3096.4791 4003.8001,3096.4866 4003.8499,3096.4925 4003.8998,3096.4967 4003.9499,3096.4992 4004,3096.5 4007.853,3096.5 4007.6008,3096.6629 4007.2805,3096.9184 4006.9872,3097.2045 4006.7238,3097.5184 4006.493,3097.8569 4006.297,3098.2167 4006.1379,3098.5943 4006.0171,3098.9858 4005.9359,3099.3874 4005.8951,3099.7951 4005.8951,3100.2049 4005.9359,3100.6126 4006.0171,3101.0142 4006.1379,3101.4057 4006.297,3101.7833 4006.493,3102.1431 4006.7238,3102.4816 4006.9872,3102.7955 4007.2805,3103.0816 4007.6008,3103.3371 4007.945,3103.5594 4008.3096,3103.7463 4008.691,3103.896 4009.0854,3104.007 4009.4889,3104.0781 4009.8975,3104.1087 4010.3071,3104.0985 4010.7137,3104.0476 4011.1132,3103.9564 4011.5016,3103.8259 4011.875,3103.6574 4012.2299,3103.4525 4012.5625,3103.2133 4012.8698,3102.9422 4013.1484,3102.6419 4013.3958,3102.3152 4013.6095,3101.9656 4013.7873,3101.5965 4013.8224,3101.5 4022.5,3101.5 4022.5,3108 4022.5008,3108.0501 4022.5033,3108.1002 4022.5075,3108.1501 4022.5134,3108.1999 4022.5209,3108.2495 4022.5301,3108.2988 4022.5409,3108.3477 4022.5533,3108.3963 4022.5673,3108.4444 4022.583,3108.492 4022.6002,3108.5391 4022.619,3108.5856 4022.6394,3108.6314 4022.6612,3108.6765 4022.6846,3108.7209 4022.7094,3108.7644 4022.7357,3108.8071 4022.7633,3108.8489 4022.7924,3108.8898 4022.8228,3108.9296 4022.8545,3108.9684 4022.8875,3109.0062 4022.9218,3109.0428 4022.9572,3109.0782 4022.9938,3109.1125 4023.0316,3109.1455 4023.0704,3109.1772 4023.1102,3109.2076 4023.1511,3109.2367 4023.1929,3109.2643 4023.2356,3109.2906 4023.2791,3109.3154 4023.3235,3109.3388 4023.3686,3109.3606 4023.4144,3109.381 4023.4609,3109.3998 4023.508,3109.417 4023.5556,3109.4327 4023.6037,3109.4467 4023.6523,3109.4591 4023.7012,3109.4699 4023.7505,3109.4791 4023.8001,3109.4866 4023.8499,3109.4925 4023.8998,3109.4967 4023.9499,3109.4992 4024,3109.5 4037.3512,3109.5 4037.3653,3109.5168 4037.5244,3109.672 4037.6983,3109.8106 4037.885,3109.9312 4038.0828,3110.0327 4038.2898,3110.1139 4038.5038,3110.1741 4038.7227,3110.2127zM4011.55,3048.45 4013.8042,3048.45 4013.7873,3048.4035 4013.6095,3048.0344 4013.3958,3047.6848 4013.1484,3047.3581 4012.8698,3047.0578 4012.5625,3046.7867 4012.2299,3046.5475 4011.875,3046.3426 4011.55,3046.1959zM4011.55,3108.45 4013.8042,3108.45 4013.7873,3108.4035 4013.6095,3108.0344 4013.3958,3107.6848 4013.1484,3107.3581 4012.8698,3107.0578 4012.5625,3106.7867 4012.2299,3106.5475 4011.875,3106.3426 4011.55,3106.1959zM4006.1987,3108.45 4008.45,3108.45 4008.45,3106.1986 4008.3096,3106.2537 4007.945,3106.4406 4007.6008,3106.6629 4007.2805,3106.9184 4006.9872,3107.2045 4006.7238,3107.5184 4006.493,3107.8569 4006.297,3108.2167zM4084.9444,3050.2293 4085.1666,3050.2238 4085.3872,3050.1961 4085.604,3050.1467 4085.8147,3050.0758 4086.0173,3049.9844 4086.2099,3049.8733 4086.3904,3049.7435 4086.5571,3049.5964 4086.7083,3049.4334 4086.8425,3049.2562 4086.9584,3049.0665 4087.0549,3048.8662 4087.1309,3048.6573 4087.1858,3048.4419 4087.2189,3048.222 4087.23,3048 4087.2189,3047.778 4087.1858,3047.5581 4087.1309,3047.3427 4087.0549,3047.1338 4086.9584,3046.9335 4086.8425,3046.7438 4086.7083,3046.5666 4086.5571,3046.4036 4086.3904,3046.2565 4086.2099,3046.1267 4086.0173,3046.0156 4085.8147,3045.9242 4085.604,3045.8533 4085.3872,3045.8039 4085.1666,3045.7762 4084.9444,3045.7707 4084.7227,3045.7873 4084.5038,3045.8259 4084.2898,3045.8861 4084.0828,3045.9673 4083.885,3046.0688 4083.6983,3046.1894 4083.5244,3046.328 4083.3653,3046.4832 4083.2224,3046.6535 4083.0972,3046.8372 4082.9908,3047.0324 4082.9045,3047.2373 4082.839,3047.4497 4082.7949,3047.6676 4082.7728,3047.8888 4082.7728,3048.1112 4082.7949,3048.3324 4082.839,3048.5503 4082.9045,3048.7627 4082.9908,3048.9676 4083.0972,3049.1628 4083.2224,3049.3465 4083.3653,3049.5168 4083.5244,3049.672 4083.6983,3049.8106 4083.885,3049.9312 4084.0828,3050.0327 4084.2898,3050.1139 4084.5038,3050.1741 4084.7227,3050.2127zM4045.9444,3050.2293 4046.1666,3050.2238 4046.3872,3050.1961 4046.604,3050.1467 4046.8147,3050.0758 4047.0173,3049.9844 4047.2099,3049.8733 4047.3904,3049.7435 4047.5571,3049.5964 4047.6465,3049.5 4078.3512,3049.5 4078.3653,3049.5168 4078.5244,3049.672 4078.6983,3049.8106 4078.885,3049.9312 4079.0828,3050.0327 4079.2898,3050.1139 4079.5038,3050.1741 4079.7227,3050.2127 4079.9444,3050.2293 4080.1666,3050.2238 4080.3872,3050.1961 4080.604,3050.1467 4080.8147,3050.0758 4081.0173,3049.9844 4081.2099,3049.8733 4081.3904,3049.7435 4081.5571,3049.5964 4081.7083,3049.4334 4081.8425,3049.2562 4081.9584,3049.0665 4082.0549,3048.8662 4082.1309,3048.6573 4082.1858,3048.4419 4082.2189,3048.222 4082.23,3048 4082.2189,3047.778 4082.1858,3047.5581 4082.1309,3047.3427 4082.0549,3047.1338 4081.9584,3046.9335 4081.8425,3046.7438 4081.7083,3046.5666 4081.5571,3046.4036 4081.3904,3046.2565 4081.2099,3046.1267 4081.0173,3046.0156 4080.8147,3045.9242 4080.604,3045.8533 4080.3872,3045.8039 4080.1666,3045.7762 4079.9444,3045.7707 4079.7227,3045.7873 4079.5038,3045.8259 4079.2898,3045.8861 4079.0828,3045.9673 4078.885,3046.0688 4078.6983,3046.1894 4078.5244,3046.328 4078.3653,3046.4832 4078.3512,3046.5 4047.6465,3046.5 4047.5571,3046.4036 4047.3904,3046.2565 4047.2099,3046.1267 4047.0173,3046.0156 4046.8147,3045.9242 4046.604,3045.8533 4046.3872,3045.8039 4046.1666,3045.7762 4045.9444,3045.7707 4045.7227,3045.7873 4045.5038,3045.8259 4045.2898,3045.8861 4045.0828,3045.9673 4044.885,3046.0688 4044.6983,3046.1894 4044.5244,3046.328 4044.3653,3046.4832 4044.2224,3046.6535 4044.0972,3046.8372 4043.9908,3047.0324 4043.9045,3047.2373 4043.839,3047.4497 4043.7949,3047.6676 4043.7728,3047.8888 4043.7728,3048.1112 4043.7949,3048.3324 4043.839,3048.5503 4043.9045,3048.7627 4043.9908,3048.9676 4044.0972,3049.1628 4044.2224,3049.3465 4044.3653,3049.5168 4044.5244,3049.672 4044.6983,3049.8106 4044.885,3049.9312 4045.0828,3050.0327 4045.2898,3050.1139 4045.5038,3050.1741 4045.7227,3050.2127zM4008.45,3053.8014 4008.45,3051.55 4006.1987,3051.55 4006.297,3051.7833 4006.493,3052.1431 4006.7238,3052.4816 4006.9872,3052.7955 4007.2805,3053.0816 4007.6008,3053.3371 4007.945,3053.5594 4008.3096,3053.7463zM4011.55,3053.8041 4011.875,3053.6574 4012.2299,3053.4525 4012.5625,3053.2133 4012.8698,3052.9422 4013.1484,3052.6419 4013.3958,3052.3152 4013.6095,3051.9656 4013.7873,3051.5965 4013.8042,3051.55 4011.55,3051.55zM4009.8975,3074.1087 4010.3071,3074.0985 4010.7137,3074.0476 4011.1132,3073.9564 4011.5016,3073.8259 4011.875,3073.6574 4012.2299,3073.4525 4012.5625,3073.2133 4012.8698,3072.9422 4013.1484,3072.6419 4013.3958,3072.3152 4013.6095,3071.9656 4013.7873,3071.5965 4013.8224,3071.5 4040,3071.5 4040.0501,3071.4992 4040.1002,3071.4967 4040.1501,3071.4925 4040.1999,3071.4866 4040.2495,3071.4791 4040.2988,3071.4699 4040.3477,3071.4591 4040.3963,3071.4467 4040.4444,3071.4327 4040.492,3071.417 4040.5391,3071.3998 4040.5856,3071.381 4040.6314,3071.3606 4040.6765,3071.3388 4040.7209,3071.3154 4040.7644,3071.2906 4040.8071,3071.2643 4040.8489,3071.2367 4040.8898,3071.2076 4040.9296,3071.1772 4040.9684,3071.1455 4041.0062,3071.1125 4041.0428,3071.0782 4041.0782,3071.0428 4041.1125,3071.0062 4041.1455,3070.9684 4041.1772,3070.9296 4041.2076,3070.8898 4041.2367,3070.8489 4041.2643,3070.8071 4041.2906,3070.7644 4041.3154,3070.7209 4041.3388,3070.6765 4041.3606,3070.6314 4041.381,3070.5856 4041.3998,3070.5391 4041.417,3070.492 4041.4327,3070.4444 4041.4467,3070.3963 4041.4591,3070.3477 4041.4699,3070.2988 4041.4791,3070.2495 4041.4866,3070.1999 4041.4925,3070.1501 4041.4967,3070.1002 4041.4992,3070.0501 4041.5,3070 4041.5,3069.6468 4041.5571,3069.5964 4041.7083,3069.4334 4041.8425,3069.2562 4041.9584,3069.0665 4042.0549,3068.8662 4042.1309,3068.6573 4042.1858,3068.4419 4042.2189,3068.222 4042.23,3068 4042.2189,3067.778 4042.1858,3067.5581 4042.1309,3067.3427 4042.0549,3067.1338 4041.9584,3066.9335 4041.8425,3066.7438 4041.7083,3066.5666 4041.5571,3066.4036 4041.3904,3066.2565 4041.2099,3066.1267 4041.0173,3066.0156 4040.8147,3065.9242 4040.604,3065.8533 4040.3872,3065.8039 4040.1666,3065.7762 4039.9444,3065.7707 4039.7227,3065.7873 4039.5038,3065.8259 4039.2898,3065.8861 4039.0828,3065.9673 4038.885,3066.0688 4038.6983,3066.1894 4038.5244,3066.328 4038.3653,3066.4832 4038.2224,3066.6535 4038.0972,3066.8372 4037.9908,3067.0324 4037.9045,3067.2373 4037.839,3067.4497 4037.7949,3067.6676 4037.7728,3067.8888 4037.7728,3068.1112 4037.7949,3068.3324 4037.8288,3068.5 4013.8224,3068.5 4013.7873,3068.4035 4013.6095,3068.0344 4013.3958,3067.6848 4013.1484,3067.3581 4012.8698,3067.0578 4012.5625,3066.7867 4012.2299,3066.5475 4011.875,3066.3426 4011.5016,3066.1741 4011.1132,3066.0436 4010.7137,3065.9524 4010.3071,3065.9015 4009.8975,3065.8913 4009.4889,3065.9219 4009.0854,3065.993 4008.691,3066.104 4008.3096,3066.2537 4007.945,3066.4406 4007.6008,3066.6629 4007.2805,3066.9184 4006.9872,3067.2045 4006.7238,3067.5184 4006.493,3067.8569 4006.297,3068.2167 4006.1379,3068.5943 4006.0171,3068.9858 4005.9359,3069.3874 4005.8951,3069.7951 4005.8951,3070.2049 4005.9359,3070.6126 4006.0171,3071.0142 4006.1379,3071.4057 4006.297,3071.7833 4006.493,3072.1431 4006.7238,3072.4816 4006.9872,3072.7955 4007.2805,3073.0816 4007.6008,3073.3371 4007.945,3073.5594 4008.3096,3073.7463 4008.691,3073.896 4009.0854,3074.007 4009.4889,3074.0781zM4009.8975,3084.1087 4010.3071,3084.0985 4010.7137,3084.0476 4011.1132,3083.9564 4011.5016,3083.8259 4011.875,3083.6574 4012.2299,3083.4525 4012.5625,3083.2133 4012.8698,3082.9422 4013.1484,3082.6419 4013.3958,3082.3152 4013.6095,3081.9656 4013.7873,3081.5965 4013.8224,3081.5 4023,3081.5 4023.0501,3081.4992 4023.1002,3081.4967 4023.1501,3081.4925 4023.1999,3081.4866 4023.2495,3081.4791 4023.2988,3081.4699 4023.3477,3081.4591 4023.3963,3081.4467 4023.4444,3081.4327 4023.492,3081.417 4023.5391,3081.3998 4023.5856,3081.381 4023.6314,3081.3606 4023.6765,3081.3388 4023.7209,3081.3154 4023.7644,3081.2906 4023.8071,3081.2643 4023.8489,3081.2367 4023.8898,3081.2076 4023.9296,3081.1772 4023.9684,3081.1455 4024.0062,3081.1125 4024.0428,3081.0782 4024.0782,3081.0428 4024.1125,3081.0062 4024.1455,3080.9684 4024.1772,3080.9296 4024.2076,3080.8898 4024.2367,3080.8489 4024.2643,3080.8071 4024.2906,3080.7644 4024.3154,3080.7209 4024.3388,3080.6765 4024.3606,3080.6314 4024.381,3080.5856 4024.3998,3080.5391 4024.417,3080.492 4024.4327,3080.4444 4024.4467,3080.3963 4024.4591,3080.3477 4024.4699,3080.2988 4024.4791,3080.2495 4024.4866,3080.1999 4024.4925,3080.1501 4024.4967,3080.1002 4024.4992,3080.0501 4024.5,3080 4024.5,3078.299 4057.3522,3078.299 4057.3663,3078.3158 4057.5254,3078.471 4057.6993,3078.6096 4057.886,3078.7302 4058.0838,3078.8317 4058.2908,3078.9129 4058.5048,3078.9731 4058.7237,3079.0117 4058.9454,3079.0283 4059.1676,3079.0228 4059.3882,3078.9951 4059.605,3078.9457 4059.8157,3078.8748 4060.0183,3078.7834 4060.2109,3078.6723 4060.3914,3078.5425 4060.5581,3078.3954 4060.7093,3078.2324 4060.8435,3078.0552 4060.9594,3077.8655 4061.0559,3077.6652 4061.1319,3077.4563 4061.1868,3077.2409 4061.2199,3077.021 4061.231,3076.799 4061.2199,3076.577 4061.1868,3076.3571 4061.1319,3076.1417 4061.0559,3075.9328 4060.9594,3075.7325 4060.8435,3075.5428 4060.8111,3075.5 4062.3512,3075.5 4062.3653,3075.5168 4062.5244,3075.672 4062.6983,3075.8106 4062.885,3075.9312 4063.0828,3076.0327 4063.2898,3076.1139 4063.5038,3076.1741 4063.7227,3076.2127 4063.9444,3076.2293 4064.1666,3076.2238 4064.3872,3076.1961 4064.604,3076.1467 4064.8147,3076.0758 4065.0173,3075.9844 4065.2099,3075.8733 4065.3904,3075.7435 4065.5571,3075.5964 4065.7083,3075.4334 4065.8425,3075.2562 4065.9584,3075.0665 4066.0549,3074.8662 4066.1309,3074.6573 4066.1858,3074.4419 4066.2189,3074.222 4066.23,3074 4066.2189,3073.778 4066.1858,3073.5581 4066.1309,3073.3427 4066.0549,3073.1338 4065.9584,3072.9335 4065.8425,3072.7438 4065.7083,3072.5666 4065.5571,3072.4036 4065.3904,3072.2565 4065.2099,3072.1267 4065.0173,3072.0156 4064.8147,3071.9242 4064.604,3071.8533 4064.3872,3071.8039 4064.1666,3071.7762 4063.9444,3071.7707 4063.7227,3071.7873 4063.5038,3071.8259 4063.2898,3071.8861 4063.0828,3071.9673 4062.885,3072.0688 4062.6983,3072.1894 4062.5244,3072.328 4062.3653,3072.4832 4062.3512,3072.5 4038.6465,3072.5 4038.5571,3072.4036 4038.3904,3072.2565 4038.2099,3072.1267 4038.0173,3072.0156 4037.8147,3071.9242 4037.604,3071.8533 4037.3872,3071.8039 4037.1666,3071.7762 4036.9444,3071.7707 4036.7227,3071.7873 4036.5038,3071.8259 4036.2898,3071.8861 4036.0828,3071.9673 4035.885,3072.0688 4035.6983,3072.1894 4035.5244,3072.328 4035.3653,3072.4832 4035.2224,3072.6535 4035.0972,3072.8372 4034.9908,3073.0324 4034.9045,3073.2373 4034.839,3073.4497 4034.7949,3073.6676 4034.7728,3073.8888 4034.7728,3074.1112 4034.7949,3074.3324 4034.839,3074.5503 4034.9045,3074.7627 4034.9908,3074.9676 4035.0972,3075.1628 4035.19,3075.299 4023,3075.299 4022.9499,3075.2998 4022.8998,3075.3023 4022.8499,3075.3065 4022.8001,3075.3124 4022.7505,3075.3199 4022.7012,3075.3291 4022.6523,3075.3399 4022.6037,3075.3523 4022.5556,3075.3663 4022.508,3075.382 4022.4609,3075.3992 4022.4144,3075.418 4022.3686,3075.4384 4022.3235,3075.4602 4022.2791,3075.4836 4022.2356,3075.5084 4022.1929,3075.5347 4022.1511,3075.5623 4022.1102,3075.5914 4022.0704,3075.6218 4022.0316,3075.6535 4021.9938,3075.6865 4021.9572,3075.7208 4021.9218,3075.7562 4021.8875,3075.7928 4021.8545,3075.8306 4021.8228,3075.8694 4021.7924,3075.9092 4021.7633,3075.9501 4021.7357,3075.9919 4021.7094,3076.0346 4021.6846,3076.0781 4021.6612,3076.1225 4021.6394,3076.1676 4021.619,3076.2134 4021.6002,3076.2599 4021.583,3076.307 4021.5673,3076.3546 4021.5533,3076.4027 4021.5409,3076.4513 4021.5301,3076.5002 4021.5209,3076.5495 4021.5134,3076.5991 4021.5075,3076.6489 4021.5033,3076.6988 4021.5008,3076.7489 4021.5,3076.799 4021.5,3078.5 4013.8224,3078.5 4013.7873,3078.4035 4013.6095,3078.0344 4013.3958,3077.6848 4013.1484,3077.3581 4012.8698,3077.0578 4012.5625,3076.7867 4012.2299,3076.5475 4011.875,3076.3426 4011.5016,3076.1741 4011.1132,3076.0436 4010.7137,3075.9524 4010.3071,3075.9015 4009.8975,3075.8913 4009.4889,3075.9219 4009.0854,3075.993 4008.691,3076.104 4008.3096,3076.2537 4007.945,3076.4406 4007.6008,3076.6629 4007.2805,3076.9184 4006.9872,3077.2045 4006.7238,3077.5184 4006.493,3077.8569 4006.297,3078.2167 4006.1379,3078.5943 4006.0171,3078.9858 4005.9359,3079.3874 4005.8951,3079.7951 4005.8951,3080.2049 4005.9359,3080.6126 4006.0171,3081.0142 4006.1379,3081.4057 4006.297,3081.7833 4006.493,3082.1431 4006.7238,3082.4816 4006.9872,3082.7955 4007.2805,3083.0816 4007.6008,3083.3371 4007.945,3083.5594 4008.3096,3083.7463 4008.691,3083.896 4009.0854,3084.007 4009.4889,3084.0781zM4070.9444,3090.2293 4071.1666,3090.2238 4071.3872,3090.1961 4071.604,3090.1467 4071.8147,3090.0758 4072.0173,3089.9844 4072.2099,3089.8733 4072.3904,3089.7435 4072.5571,3089.5964 4072.7083,3089.4334 4072.8425,3089.2562 4072.9584,3089.0665 4073.0549,3088.8662 4073.1309,3088.6573 4073.1858,3088.4419 4073.2189,3088.222 4073.23,3088 4073.2189,3087.778 4073.1858,3087.5581 4073.1309,3087.3427 4073.0549,3087.1338 4072.9584,3086.9335 4072.8425,3086.7438 4072.7083,3086.5666 4072.5571,3086.4036 4072.3904,3086.2565 4072.2099,3086.1267 4072.0173,3086.0156 4071.8147,3085.9242 4071.604,3085.8533 4071.3872,3085.8039 4071.1666,3085.7762 4070.9444,3085.7707 4070.7227,3085.7873 4070.5038,3085.8259 4070.2898,3085.8861 4070.0828,3085.9673 4069.885,3086.0688 4069.6983,3086.1894 4069.5244,3086.328 4069.5,3086.3518 4069.5,3058 4069.4992,3057.9499 4069.4967,3057.8998 4069.4925,3057.8499 4069.4866,3057.8001 4069.4791,3057.7505 4069.4699,3057.7012 4069.4591,3057.6523 4069.4467,3057.6037 4069.4327,3057.5556 4069.417,3057.508 4069.3998,3057.4609 4069.381,3057.4144 4069.3606,3057.3686 4069.3388,3057.3235 4069.3154,3057.2791 4069.2906,3057.2356 4069.2643,3057.1929 4069.2367,3057.1511 4069.2076,3057.1102 4069.1772,3057.0704 4069.1455,3057.0316 4069.1125,3056.9938 4069.0782,3056.9572 4069.0428,3056.9218 4069.0062,3056.8875 4068.9684,3056.8545 4068.9296,3056.8228 4068.8898,3056.7924 4068.8489,3056.7633 4068.8071,3056.7357 4068.7644,3056.7094 4068.7209,3056.6846 4068.6765,3056.6612 4068.6314,3056.6394 4068.5856,3056.619 4068.5391,3056.6002 4068.492,3056.583 4068.4444,3056.5673 4068.3963,3056.5533 4068.3477,3056.5409 4068.2988,3056.5301 4068.2495,3056.5209 4068.1999,3056.5134 4068.1501,3056.5075 4068.1002,3056.5033 4068.0501,3056.5008 4068,3056.5 4026.6465,3056.5 4026.5571,3056.4036 4026.3904,3056.2565 4026.2099,3056.1267 4026.0173,3056.0156 4025.8147,3055.9242 4025.604,3055.8533 4025.3872,3055.8039 4025.1666,3055.7762 4024.9444,3055.7707 4024.7227,3055.7873 4024.5038,3055.8259 4024.2898,3055.8861 4024.0828,3055.9673 4023.885,3056.0688 4023.6983,3056.1894 4023.5244,3056.328 4023.3653,3056.4832 4023.2224,3056.6535 4023.0972,3056.8372 4022.9908,3057.0324 4022.9045,3057.2373 4022.839,3057.4497 4022.7949,3057.6676 4022.7728,3057.8888 4022.7728,3058.1112 4022.7949,3058.3324 4022.839,3058.5503 4022.9045,3058.7627 4022.9908,3058.9676 4023.0972,3059.1628 4023.2224,3059.3465 4023.3653,3059.5168 4023.5244,3059.672 4023.6983,3059.8106 4023.885,3059.9312 4024.0828,3060.0327 4024.2898,3060.1139 4024.5038,3060.1741 4024.7227,3060.2127 4024.9444,3060.2293 4025.1666,3060.2238 4025.3872,3060.1961 4025.604,3060.1467 4025.8147,3060.0758 4026.0173,3059.9844 4026.2099,3059.8733 4026.3904,3059.7435 4026.5571,3059.5964 4026.6465,3059.5 4066.5,3059.5 4066.5,3088 4066.5008,3088.0501 4066.5033,3088.1002 4066.5075,3088.1501 4066.5134,3088.1999 4066.5209,3088.2494 4066.53,3088.2987 4066.5408,3088.3476 4066.5533,3088.3962 4066.5673,3088.4443 4066.583,3088.4919 4066.6002,3088.539 4066.619,3088.5854 4066.6393,3088.6312 4066.6611,3088.6763 4066.6845,3088.7207 4066.7093,3088.7642 4066.7355,3088.8069 4066.7632,3088.8487 4066.7922,3088.8896 4066.8226,3088.9294 4066.8543,3088.9682 4066.8873,3089.006 4066.9216,3089.0426 4066.957,3089.078 4066.9936,3089.1123 4067.0313,3089.1453 4067.0701,3089.177 4067.1099,3089.2074 4067.1508,3089.2364 4067.1925,3089.2641 4067.2352,3089.2904 4067.2788,3089.3152 4067.3231,3089.3386 4067.3682,3089.3604 4067.414,3089.3808 4067.4604,3089.3996 4067.5075,3089.4168 4067.5551,3089.4325 4067.6032,3089.4466 4067.6518,3089.459 4067.7007,3089.4698 4067.75,3089.479 4067.7995,3089.4865 4067.8493,3089.4924 4067.8992,3089.4966 4067.9493,3089.4991 4067.9994,3089.5 4069.3517,3089.5006 4069.3653,3089.5168 4069.5244,3089.672 4069.6983,3089.8106 4069.885,3089.9312 4070.0828,3090.0327 4070.2898,3090.1139 4070.5038,3090.1741 4070.7227,3090.2127zM4079.8751,3155.0084 4080.3744,3154.996 4080.87,3154.9339 4081.3569,3154.8227 4081.8304,3154.6637 4082.2856,3154.4583 4082.7182,3154.2085 4083.1237,3153.917 4083.4982,3153.5865 4083.8379,3153.2204 4084.1395,3152.8222 4084.3999,3152.3961 4084.6166,3151.9461 4084.7874,3151.4767 4084.9107,3150.9927 4084.9851,3150.4988 4085.01,3150 4084.9851,3149.5012 4084.9107,3149.0073 4084.7874,3148.5233 4084.6166,3148.0539 4084.3999,3147.6039 4084.1395,3147.1778 4083.8379,3146.7796 4083.4982,3146.4135 4083.1237,3146.083 4082.7182,3145.7915 4082.2856,3145.5417 4081.8304,3145.3363 4081.3569,3145.1773 4080.87,3145.0661 4080.3744,3145.004 4079.8751,3144.9916 4079.377,3145.0289 4078.8852,3145.1156 4078.4044,3145.2509 4077.9395,3145.4334 4077.495,3145.6612 4077.0754,3145.9322 4076.685,3146.2436 4076.3274,3146.5923 4076.0064,3146.9749 4075.725,3147.3876 4075.4861,3147.8262 4075.2921,3148.2865 4075.1449,3148.7637 4075.046,3149.2533 4074.9962,3149.7503 4074.9962,3150.2497 4075.046,3150.7467 4075.1449,3151.2363 4075.2921,3151.7135 4075.4861,3152.1738 4075.725,3152.6124 4076.0064,3153.0251 4076.3274,3153.4077 4076.685,3153.7564 4077.0754,3154.0678 4077.495,3154.3388 4077.9395,3154.5666 4078.4044,3154.7491 4078.8852,3154.8844 4079.377,3154.9711z" stroke-width="0" layerid="2"/><g c_partid="part_via" c_etype="pinpart" c_shapetype="group" c_origin="4037,3016" layerid="2"><circle cx="4037" cy="3016" r="1.22" stroke-width="0"/><circle cx="4037" cy="3016" r="0.6" stroke-width="0"/></g><g c_partid="part_via" c_etype="pinpart" c_shapetype="group" c_origin="4085,3048" layerid="2"><circle cx="4085" cy="3048" r="1.22" stroke-width="0"/><circle cx="4085" cy="3048" r="0.6" stroke-width="0"/></g><g c_partid="part_via" c_etype="pinpart" c_shapetype="group" c_origin="4048,3095" layerid="2"><circle cx="4048" cy="3095" r="1.22" stroke-width="0"/><circle cx="4048" cy="3095" r="0.6" stroke-width="0"/></g><g c_partid="part_via" c_etype="pinpart" c_shapetype="group" c_origin="4085,3095" layerid="2"><circle cx="4085" cy="3095" r="1.22" stroke-width="0"/><circle cx="4085" cy="3095" r="0.6" stroke-width="0"/></g><g c_partid="part_via" c_etype="pinpart" c_shapetype="group" c_origin="4059.001,3076.799" layerid="2"><circle cx="4059.001" cy="3076.799" r="1.22" stroke-width="0"/><circle cx="4059.001" cy="3076.799" r="0.6" stroke-width="0"/></g><g c_partid="part_via" c_etype="pinpart" c_shapetype="group" c_origin="4025,3058" layerid="2"><circle cx="4025" cy="3058" r="1.22" stroke-width="0"/><circle cx="4025" cy="3058" r="0.6" stroke-width="0"/></g><g c_partid="part_via" c_etype="pinpart" c_shapetype="group" c_origin="4071,3088" layerid="2"><circle cx="4071" cy="3088" r="1.22" stroke-width="0"/><circle cx="4071" cy="3088" r="0.6" stroke-width="0"/></g><g c_partid="part_via" c_etype="pinpart" c_shapetype="group" c_origin="4040,3068" layerid="2"><circle cx="4040" cy="3068" r="1.22" stroke-width="0"/><circle cx="4040" cy="3068" r="0.6" stroke-width="0"/></g><g c_partid="part_via" c_etype="pinpart" c_shapetype="group" c_origin="4037,3074" layerid="2"><circle cx="4037" cy="3074" r="1.22" stroke-width="0"/><circle cx="4037" cy="3074" r="0.6" stroke-width="0"/></g><g c_partid="part_via" c_etype="pinpart" c_shapetype="group" c_origin="4064,3074" layerid="2"><circle cx="4064" cy="3074" r="1.22" stroke-width="0"/><circle cx="4064" cy="3074" r="0.6" stroke-width="0"/></g><g c_partid="part_via" c_etype="pinpart" c_shapetype="group" c_origin="4046.001,3117" layerid="2"><circle cx="4046.001" cy="3117" r="1.22" stroke-width="0"/><circle cx="4046.001" cy="3117" r="0.6" stroke-width="0"/></g><g c_partid="part_via" c_etype="pinpart" c_shapetype="group" c_origin="4057.001,3121" layerid="2"><circle cx="4057.001" cy="3121" r="1.22" stroke-width="0"/><circle cx="4057.001" cy="3121" r="0.6" stroke-width="0"/></g><g c_partid="part_via" c_etype="pinpart" c_shapetype="group" c_origin="4068.001,3125" layerid="2"><circle cx="4068.001" cy="3125" r="1.22" stroke-width="0"/><circle cx="4068.001" cy="3125" r="0.6" stroke-width="0"/></g><g c_partid="part_via" c_etype="pinpart" c_shapetype="group" c_origin="4046,3048" layerid="2"><circle cx="4046" cy="3048" r="1.22" stroke-width="0"/><circle cx="4046" cy="3048" r="0.6" stroke-width="0"/></g><g c_partid="part_via" c_etype="pinpart" c_shapetype="group" c_origin="4044,3042" layerid="2"><circle cx="4044" cy="3042" r="1.22" stroke-width="0"/><circle cx="4044" cy="3042" r="0.6" stroke-width="0"/></g><g c_partid="part_via" c_etype="pinpart" c_shapetype="group" c_origin="4042,3037" layerid="2"><circle cx="4042" cy="3037" r="1.22" stroke-width="0"/><circle cx="4042" cy="3037" r="0.6" stroke-width="0"/></g><g c_partid="part_via" c_etype="pinpart" c_shapetype="group" c_origin="4073,3037" layerid="2"><circle cx="4073" cy="3037" r="1.22" stroke-width="0"/><circle cx="4073" cy="3037" r="0.6" stroke-width="0"/></g><g c_partid="part_via" c_etype="pinpart" c_shapetype="group" c_origin="4077,3042" layerid="2"><circle cx="4077" cy="3042" r="1.22" stroke-width="0"/><circle cx="4077" cy="3042" r="0.6" stroke-width="0"/></g><g c_partid="part_via" c_etype="pinpart" c_shapetype="group" c_origin="4080,3048" layerid="2"><circle cx="4080" cy="3048" r="1.22" stroke-width="0"/><circle cx="4080" cy="3048" r="0.6" stroke-width="0"/></g><g c_partid="part_via" c_etype="pinpart" c_shapetype="group" c_origin="4080,3117" layerid="2"><circle cx="4080" cy="3117" r="1.22" stroke-width="0"/><circle cx="4080" cy="3117" r="0.6" stroke-width="0"/></g><g c_partid="part_via" c_etype="pinpart" c_shapetype="group" c_origin="4073,3125" layerid="2"><circle cx="4073" cy="3125" r="1.22" stroke-width="0"/><circle cx="4073" cy="3125" r="0.6" stroke-width="0"/></g><g c_partid="part_via" c_etype="pinpart" c_shapetype="group" c_origin="4077,3121" layerid="2"><circle cx="4077" cy="3121" r="1.22" stroke-width="0"/><circle cx="4077" cy="3121" r="0.6" stroke-width="0"/></g><g c_partid="part_via" c_etype="pinpart" c_shapetype="group" c_origin="4037,3037" layerid="2"><circle cx="4037" cy="3037" r="1.22" stroke-width="0"/><circle cx="4037" cy="3037" r="0.6" stroke-width="0"/></g><g c_partid="part_via" c_etype="pinpart" c_shapetype="group" c_origin="4040,3103" layerid="2"><circle cx="4040" cy="3103" r="1.22" stroke-width="0"/><circle cx="4040" cy="3103" r="0.6" stroke-width="0"/></g><g c_partid="part_via" c_etype="pinpart" c_shapetype="group" c_origin="4068,3098" layerid="2"><circle cx="4068" cy="3098" r="1.22" stroke-width="0"/><circle cx="4068" cy="3098" r="0.6" stroke-width="0"/></g><g c_partid="part_via" c_etype="pinpart" c_shapetype="group" c_origin="4039,3108" layerid="2"><circle cx="4039" cy="3108" r="1.22" stroke-width="0"/><circle cx="4039" cy="3108" r="0.6" stroke-width="0"/></g><g c_partid="part_via" c_etype="pinpart" c_shapetype="group" c_origin="4010,3010" layerid="2" locked="0" solderExpansion=""><circle cx="4010" cy="3010" r="4" stroke-width="0"/><circle cx="4010" cy="3010" r="4" stroke-width="0"/></g><g c_partid="part_via" c_etype="pinpart" c_shapetype="group" c_origin="4080,3010" layerid="2" locked="0" solderExpansion=""><circle cx="4080" cy="3010" r="4" stroke-width="0"/><circle cx="4080" cy="3010" r="4" stroke-width="0"/></g><g c_partid="part_via" c_etype="pinpart" c_shapetype="group" c_origin="4010,3150" layerid="2" locked="0" solderExpansion=""><circle cx="4010" cy="3150" r="4" stroke-width="0"/><circle cx="4010" cy="3150" r="4" stroke-width="0"/></g><g c_partid="part_via" c_etype="pinpart" c_shapetype="group" c_origin="4080,3150" layerid="2" locked="0" solderExpansion=""><circle cx="4080" cy="3150" r="4" stroke-width="0"/><circle cx="4080" cy="3150" r="4" stroke-width="0"/></g><polyline points="4048 3095 4085 3095" stroke-width="1" c_shapetype="line" stroke-linecap="round" fill="none" layerid="2" locked="0"/><polyline points="4059.001 3076.799 4023 3076.799 4023 3080 4010 3080" stroke-width="1" c_shapetype="line" stroke-linecap="round" fill="none" layerid="2" locked="0"/><polyline points="4025 3058 4068 3058 4068 3088 4070.4 3088.001" stroke-width="1" c_shapetype="line" stroke-linecap="round" fill="none" layerid="2" locked="0"/><polyline points="4010 3070 4040 3070 4040 3067.5233" stroke-width="1" c_shapetype="line" stroke-linecap="round" fill="none" layerid="2" locked="0"/><polyline points="4064 3074 4037 3074" stroke-width="1" c_shapetype="line" stroke-linecap="round" fill="none" layerid="2" locked="0"/><polyline points="4042 3037 4073 3037" stroke-width="1" c_shapetype="line" stroke-linecap="round" fill="none" layerid="2" locked="0"/><polyline points="4044 3042 4077 3042" stroke-width="1" c_shapetype="line" stroke-linecap="round" fill="none" layerid="2" locked="0"/><polyline points="4046 3048 4080 3048" stroke-width="1" c_shapetype="line" stroke-linecap="round" fill="none" layerid="2" locked="0"/><polyline points="4073 3125 4068.001 3125" stroke-width="1" c_shapetype="line" stroke-linecap="round" fill="none" layerid="2" locked="0"/><polyline points="4077 3121 4057.001 3121" stroke-width="1" c_shapetype="line" stroke-linecap="round" fill="none" layerid="2" locked="0"/><polyline points="4080 3117 4046.001 3117" stroke-width="1" c_shapetype="line" stroke-linecap="round" fill="none" layerid="2" locked="0"/><polyline points="4039 3108 4024 3108 4024 3100 4010 3100" stroke-width="1" c_shapetype="line" stroke-linecap="round" fill="none" layerid="2" locked="0"/><polyline points="4010 3060 4004 3060 4004 3095 4028 3095 4028 3103 4040 3103" stroke-width="1" c_shapetype="line" stroke-linecap="round" fill="none" layerid="2" locked="0"/><polyline points="4068 3098 4068 3098 4032 3098 4032 3090 4010 3090" stroke-width="1" c_shapetype="line" stroke-linecap="round" fill="none" layerid="2" locked="0"/><polyline points="4034 3032 4034 3003" stroke-width="1.5" c_shapetype="line" stroke-linecap="round" fill="none" layerid="4" locked="0"/><polyline points="4056 3031 4056 3003" stroke-width="1.5" c_shapetype="line" stroke-linecap="round" fill="none" layerid="4" locked="0"/><polyline points="4027 3032 4027 3127" stroke-width="1.5" c_shapetype="line" stroke-linecap="round" fill="none" layerid="4" locked="0"/><polyline points="4064 3033 4064 3126" stroke-width="1.5" c_shapetype="line" stroke-linecap="round" fill="none" layerid="4" locked="0"/><polyline points="4019 3032 4071 3032 4071 3127 4019 3127 4019 3032" stroke-width="1.5" c_shapetype="line" stroke-linecap="round" fill="none" layerid="4" locked="0"/><g c_partid="part_pcbtext" c_origin="4070.291,3153.182" c_rotation="0" c_mirror="1" locked="0" layerid="4" c_shapetype="group"><path c_fontSize="4" c_fontFamily="" c_text="UP" d="M 4070.291 3151.0001 L 4070.291 3153.7273 L 4070.1092 3154.2728 L 4069.7456 3154.6364 L 4069.2001 3154.8182 L 4068.8365 3154.8182 L 4068.291 3154.6364 L 4067.9274 3154.2728 L 4067.7456 3153.7273 L 4067.7456 3151.0001 M 4066.5456 3151.0001 L 4066.5456 3154.8182 M 4066.5456 3151.0001 L 4064.9092 3151.0001 L 4064.3637 3151.1819 L 4064.1819 3151.3637 L 4064.0001 3151.7273 L 4064.0001 3152.2728 L 4064.1819 3152.6364 L 4064.3637 3152.8182 L 4064.9092 3153.0001 L 4066.5456 3153.0001" fill="none" stroke-width="0.8"/></g><g c_partid="part_pcbtext" c_origin="4053.364,3045" c_rotation="90" c_mirror="1" locked="0" layerid="4" c_shapetype="group"><path c_fontSize="8" c_fontFamily="" c_text="CFAL12832d" d="M 4050.8181 3050.4545 L 4050.0908 3050.0909 L 4049.3635 3049.3636 L 4048.9999 3048.6363 L 4048.9999 3047.1818 L 4049.3635 3046.4545 L 4050.0908 3045.7272 L 4050.8181 3045.3636 L 4051.909 3045 L 4053.7272 3045 L 4054.8181 3045.3636 L 4055.5453 3045.7272 L 4056.2726 3046.4545 L 4056.6363 3047.1818 L 4056.6363 3048.6363 L 4056.2726 3049.3636 L 4055.5453 3050.0909 L 4054.8181 3050.4545 M 4048.9999 3052.8545 L 4056.6363 3052.8545 M 4048.9999 3052.8545 L 4048.9999 3057.5818 M 4052.6363 3052.8545 L 4052.6363 3055.7636 M 4048.9999 3062.8909 L 4056.6363 3059.9818 M 4048.9999 3062.8909 L 4056.6363 3065.8 M 4054.0908 3061.0727 L 4054.0908 3064.7091 M 4048.9999 3068.2 L 4056.6363 3068.2 M 4056.6363 3068.2 L 4056.6363 3072.5636 M 4050.4544 3074.9636 L 4050.0908 3075.6909 L 4048.9999 3076.7818 L 4056.6363 3076.7818 M 4050.8181 3079.5454 L 4050.4544 3079.5454 L 4049.7272 3079.9091 L 4049.3635 3080.2727 L 4048.9999 3081 L 4048.9999 3082.4545 L 4049.3635 3083.1818 L 4049.7272 3083.5454 L 4050.4544 3083.9091 L 4051.1817 3083.9091 L 4051.909 3083.5454 L 4052.9999 3082.8181 L 4056.6363 3079.1818 L 4056.6363 3084.2727 M 4048.9999 3088.4909 L 4049.3635 3087.4 L 4050.0908 3087.0363 L 4050.8181 3087.0363 L 4051.5453 3087.4 L 4051.909 3088.1272 L 4052.2726 3089.5818 L 4052.6363 3090.6727 L 4053.3635 3091.4 L 4054.0908 3091.7636 L 4055.1817 3091.7636 L 4055.909 3091.4 L 4056.2726 3091.0363 L 4056.6363 3089.9454 L 4056.6363 3088.4909 L 4056.2726 3087.4 L 4055.909 3087.0363 L 4055.1817 3086.6727 L 4054.0908 3086.6727 L 4053.3635 3087.0363 L 4052.6363 3087.7636 L 4052.2726 3088.8545 L 4051.909 3090.3091 L 4051.5453 3091.0363 L 4050.8181 3091.4 L 4050.0908 3091.4 L 4049.3635 3091.0363 L 4048.9999 3089.9454 L 4048.9999 3088.4909 M 4048.9999 3094.8909 L 4048.9999 3098.8909 L 4051.909 3096.7091 L 4051.909 3097.8 L 4052.2726 3098.5272 L 4052.6363 3098.8909 L 4053.7272 3099.2545 L 4054.4544 3099.2545 L 4055.5453 3098.8909 L 4056.2726 3098.1636 L 4056.6363 3097.0727 L 4056.6363 3095.9818 L 4056.2726 3094.8909 L 4055.909 3094.5272 L 4055.1817 3094.1636 M 4050.8181 3102.0181 L 4050.4544 3102.0181 L 4049.7272 3102.3818 L 4049.3635 3102.7454 L 4048.9999 3103.4727 L 4048.9999 3104.9272 L 4049.3635 3105.6545 L 4049.7272 3106.0181 L 4050.4544 3106.3818 L 4051.1817 3106.3818 L 4051.909 3106.0181 L 4052.9999 3105.2909 L 4056.6363 3101.6545 L 4056.6363 3106.7454 M 4048.9999 3113.5091 L 4056.6363 3113.5091 M 4052.6363 3113.5091 L 4051.909 3112.7818 L 4051.5453 3112.0545 L 4051.5453 3110.9636 L 4051.909 3110.2363 L 4052.6363 3109.5091 L 4053.7272 3109.1454 L 4054.4544 3109.1454 L 4055.5453 3109.5091 L 4056.2726 3110.2363 L 4056.6363 3110.9636 L 4056.6363 3112.0545 L 4056.2726 3112.7818 L 4055.5453 3113.5091" fill="none" stroke-width="0.8"/></g><g c_partid="part_via" c_etype="pinpart" c_shapetype="group" c_origin="4037,3016" layerid="8"><circle cx="4037" cy="3016" r="0.6" stroke-width="0"/><circle cx="4037" cy="3016" r="0.6" stroke-width="0"/></g><g c_partid="part_via" c_etype="pinpart" c_shapetype="group" c_origin="4085,3048" layerid="8"><circle cx="4085" cy="3048" r="0.6" stroke-width="0"/><circle cx="4085" cy="3048" r="0.6" stroke-width="0"/></g><g c_partid="part_via" c_etype="pinpart" c_shapetype="group" c_origin="4048,3095" layerid="8"><circle cx="4048" cy="3095" r="0.6" stroke-width="0"/><circle cx="4048" cy="3095" r="0.6" stroke-width="0"/></g><g c_partid="part_via" c_etype="pinpart" c_shapetype="group" c_origin="4085,3095" layerid="8"><circle cx="4085" cy="3095" r="0.6" stroke-width="0"/><circle cx="4085" cy="3095" r="0.6" stroke-width="0"/></g><g c_partid="part_via" c_etype="pinpart" c_shapetype="group" c_origin="4059.001,3076.799" layerid="8"><circle cx="4059.001" cy="3076.799" r="0.6" stroke-width="0"/><circle cx="4059.001" cy="3076.799" r="0.6" stroke-width="0"/></g><g c_partid="part_via" c_etype="pinpart" c_shapetype="group" c_origin="4025,3058" layerid="8"><circle cx="4025" cy="3058" r="0.6" stroke-width="0"/><circle cx="4025" cy="3058" r="0.6" stroke-width="0"/></g><g c_partid="part_via" c_etype="pinpart" c_shapetype="group" c_origin="4071,3088" layerid="8"><circle cx="4071" cy="3088" r="0.6" stroke-width="0"/><circle cx="4071" cy="3088" r="0.6" stroke-width="0"/></g><g c_partid="part_via" c_etype="pinpart" c_shapetype="group" c_origin="4040,3068" layerid="8"><circle cx="4040" cy="3068" r="0.6" stroke-width="0"/><circle cx="4040" cy="3068" r="0.6" stroke-width="0"/></g><g c_partid="part_via" c_etype="pinpart" c_shapetype="group" c_origin="4037,3074" layerid="8"><circle cx="4037" cy="3074" r="0.6" stroke-width="0"/><circle cx="4037" cy="3074" r="0.6" stroke-width="0"/></g><g c_partid="part_via" c_etype="pinpart" c_shapetype="group" c_origin="4064,3074" layerid="8"><circle cx="4064" cy="3074" r="0.6" stroke-width="0"/><circle cx="4064" cy="3074" r="0.6" stroke-width="0"/></g><g c_partid="part_via" c_etype="pinpart" c_shapetype="group" c_origin="4046.001,3117" layerid="8"><circle cx="4046.001" cy="3117" r="0.6" stroke-width="0"/><circle cx="4046.001" cy="3117" r="0.6" stroke-width="0"/></g><g c_partid="part_via" c_etype="pinpart" c_shapetype="group" c_origin="4057.001,3121" layerid="8"><circle cx="4057.001" cy="3121" r="0.6" stroke-width="0"/><circle cx="4057.001" cy="3121" r="0.6" stroke-width="0"/></g><g c_partid="part_via" c_etype="pinpart" c_shapetype="group" c_origin="4068.001,3125" layerid="8"><circle cx="4068.001" cy="3125" r="0.6" stroke-width="0"/><circle cx="4068.001" cy="3125" r="0.6" stroke-width="0"/></g><g c_partid="part_via" c_etype="pinpart" c_shapetype="group" c_origin="4046,3048" layerid="8"><circle cx="4046" cy="3048" r="0.6" stroke-width="0"/><circle cx="4046" cy="3048" r="0.6" stroke-width="0"/></g><g c_partid="part_via" c_etype="pinpart" c_shapetype="group" c_origin="4044,3042" layerid="8"><circle cx="4044" cy="3042" r="0.6" stroke-width="0"/><circle cx="4044" cy="3042" r="0.6" stroke-width="0"/></g><g c_partid="part_via" c_etype="pinpart" c_shapetype="group" c_origin="4042,3037" layerid="8"><circle cx="4042" cy="3037" r="0.6" stroke-width="0"/><circle cx="4042" cy="3037" r="0.6" stroke-width="0"/></g><g c_partid="part_via" c_etype="pinpart" c_shapetype="group" c_origin="4073,3037" layerid="8"><circle cx="4073" cy="3037" r="0.6" stroke-width="0"/><circle cx="4073" cy="3037" r="0.6" stroke-width="0"/></g><g c_partid="part_via" c_etype="pinpart" c_shapetype="group" c_origin="4077,3042" layerid="8"><circle cx="4077" cy="3042" r="0.6" stroke-width="0"/><circle cx="4077" cy="3042" r="0.6" stroke-width="0"/></g><g c_partid="part_via" c_etype="pinpart" c_shapetype="group" c_origin="4080,3048" layerid="8"><circle cx="4080" cy="3048" r="0.6" stroke-width="0"/><circle cx="4080" cy="3048" r="0.6" stroke-width="0"/></g><g c_partid="part_via" c_etype="pinpart" c_shapetype="group" c_origin="4080,3117" layerid="8"><circle cx="4080" cy="3117" r="0.6" stroke-width="0"/><circle cx="4080" cy="3117" r="0.6" stroke-width="0"/></g><g c_partid="part_via" c_etype="pinpart" c_shapetype="group" c_origin="4073,3125" layerid="8"><circle cx="4073" cy="3125" r="0.6" stroke-width="0"/><circle cx="4073" cy="3125" r="0.6" stroke-width="0"/></g><g c_partid="part_via" c_etype="pinpart" c_shapetype="group" c_origin="4077,3121" layerid="8"><circle cx="4077" cy="3121" r="0.6" stroke-width="0"/><circle cx="4077" cy="3121" r="0.6" stroke-width="0"/></g><g c_partid="part_via" c_etype="pinpart" c_shapetype="group" c_origin="4037,3037" layerid="8"><circle cx="4037" cy="3037" r="0.6" stroke-width="0"/><circle cx="4037" cy="3037" r="0.6" stroke-width="0"/></g><g c_partid="part_via" c_etype="pinpart" c_shapetype="group" c_origin="4040,3103" layerid="8"><circle cx="4040" cy="3103" r="0.6" stroke-width="0"/><circle cx="4040" cy="3103" r="0.6" stroke-width="0"/></g><g c_partid="part_via" c_etype="pinpart" c_shapetype="group" c_origin="4068,3098" layerid="8"><circle cx="4068" cy="3098" r="0.6" stroke-width="0"/><circle cx="4068" cy="3098" r="0.6" stroke-width="0"/></g><g c_partid="part_via" c_etype="pinpart" c_shapetype="group" c_origin="4039,3108" layerid="8"><circle cx="4039" cy="3108" r="0.6" stroke-width="0"/><circle cx="4039" cy="3108" r="0.6" stroke-width="0"/></g><g c_partid="part_via" c_etype="pinpart" c_shapetype="group" c_origin="4010,3010" layerid="8"><circle cx="4010" cy="3010" r="4" stroke-width="0"/><circle cx="4010" cy="3010" r="4" stroke-width="0"/></g><g c_partid="part_via" c_etype="pinpart" c_shapetype="group" c_origin="4080,3010" layerid="8"><circle cx="4080" cy="3010" r="4" stroke-width="0"/><circle cx="4080" cy="3010" r="4" stroke-width="0"/></g><g c_partid="part_via" c_etype="pinpart" c_shapetype="group" c_origin="4010,3150" layerid="8"><circle cx="4010" cy="3150" r="4" stroke-width="0"/><circle cx="4010" cy="3150" r="4" stroke-width="0"/></g><g c_partid="part_via" c_etype="pinpart" c_shapetype="group" c_origin="4080,3150" layerid="8"><circle cx="4080" cy="3150" r="4" stroke-width="0"/><circle cx="4080" cy="3150" r="4" stroke-width="0"/></g><g c_partid="part_pad" c_etype="pinpart" c_origin="4010,3120" layerid="8" plated="Y" locked="0" c_rotation="90" c_width="6.2" c_height="6.2" c_shape="RECT" pasteExpansion="0" solderExpansion="0.4"><polygon points="4006.9 3123.1 4006.9 3116.9 4013.1 3116.9 4013.1 3123.1" layerid="8" stroke-width="0"/><circle cx="4010" cy="3120" r="1.75" layerid="8" stroke-width="0"/></g><g c_partid="part_pad" c_etype="pinpart" c_origin="4010,3110" layerid="8" plated="Y" locked="0" c_rotation="90" c_width="6.2" c_height="6.2" c_shape="ELLIPSE" pasteExpansion="0" solderExpansion="0.4"><ellipse cx="4010" cy="3110" rx="3.1" ry="3.1" layerid="8" stroke-width="0"/><circle cx="4010" cy="3110" r="1.75" layerid="8" stroke-width="0"/></g><g c_partid="part_pad" c_etype="pinpart" c_origin="4010,3100" layerid="8" plated="Y" locked="0" c_rotation="90" c_width="6.2" c_height="6.2" c_shape="ELLIPSE" pasteExpansion="0" solderExpansion="0.4"><ellipse cx="4010" cy="3100" rx="3.1" ry="3.1" layerid="8" stroke-width="0"/><circle cx="4010" cy="3100" r="1.75" layerid="8" stroke-width="0"/></g><g c_partid="part_pad" c_etype="pinpart" c_origin="4010,3090" layerid="8" plated="Y" locked="0" c_rotation="90" c_width="6.2" c_height="6.2" c_shape="ELLIPSE" pasteExpansion="0" solderExpansion="0.4"><ellipse cx="4010" cy="3090" rx="3.1" ry="3.1" layerid="8" stroke-width="0"/><circle cx="4010" cy="3090" r="1.75" layerid="8" stroke-width="0"/></g><g c_partid="part_pad" c_etype="pinpart" c_origin="4010,3080" layerid="8" plated="Y" locked="0" c_rotation="90" c_width="6.2" c_height="6.2" c_shape="ELLIPSE" pasteExpansion="0" solderExpansion="0.4"><ellipse cx="4010" cy="3080" rx="3.1" ry="3.1" layerid="8" stroke-width="0"/><circle cx="4010" cy="3080" r="1.75" layerid="8" stroke-width="0"/></g><g c_partid="part_pad" c_etype="pinpart" c_origin="4010,3070" layerid="8" plated="Y" locked="0" c_rotation="90" c_width="6.2" c_height="6.2" c_shape="ELLIPSE" pasteExpansion="0" solderExpansion="0.4"><ellipse cx="4010" cy="3070" rx="3.1" ry="3.1" layerid="8" stroke-width="0"/><circle cx="4010" cy="3070" r="1.75" layerid="8" stroke-width="0"/></g><g c_partid="part_pad" c_etype="pinpart" c_origin="4010,3060" layerid="8" plated="Y" locked="0" c_rotation="90" c_width="6.2" c_height="6.2" c_shape="ELLIPSE" pasteExpansion="0" solderExpansion="0.4"><ellipse cx="4010" cy="3060" rx="3.1" ry="3.1" layerid="8" stroke-width="0"/><circle cx="4010" cy="3060" r="1.75" layerid="8" stroke-width="0"/></g><g c_partid="part_pad" c_etype="pinpart" c_origin="4010,3050" layerid="8" plated="Y" locked="0" c_rotation="90" c_width="6.2" c_height="6.2" c_shape="ELLIPSE" pasteExpansion="0" solderExpansion="0.4"><ellipse cx="4010" cy="3050" rx="3.1" ry="3.1" layerid="8" stroke-width="0"/><circle cx="4010" cy="3050" r="1.75" layerid="8" stroke-width="0"/></g></g></svg>